<svg width="401" height="127" viewBox="0 0 401 127" fill="none" xmlns="http://www.w3.org/2000/svg">
<path d="M27.0367 2.07748C27.0367 2.07748 27.0603 2.6565 27.1076 3.81455C27.1548 4.97259 27.3521 7.47996 27.6996 11.3366C28.0478 15.1934 28.5663 21.1002 29.2552 29.0571C29.9441 37.014 30.4066 44.9854 30.6427 52.9713C30.8796 60.9573 30.8051 68.2952 30.4191 74.9851C30.033 81.6758 29.357 87.3051 28.3911 91.8729C27.4243 96.4415 26.0222 99.5728 24.1849 101.267C22.3468 102.961 20.3149 102.983 18.0891 101.332C15.8641 99.6824 13.651 97.294 11.45 94.1673C9.2491 91.0398 7.43085 87.8444 5.99528 84.581C4.55978 81.3168 3.83109 78.281 3.80922 75.4736C3.78734 72.6662 3.92097 70.0994 4.21012 67.7734C4.49926 65.4473 4.64815 64.2682 4.65677 64.2362C4.6661 64.2051 4.67996 64.1755 4.69836 64.1476C4.71668 64.1205 4.73935 64.0969 4.76636 64.0768C4.79259 64.0567 4.82147 64.0416 4.85299 64.0314C4.88382 64.0203 4.91604 64.0149 4.94967 64.015C4.98253 64.0151 5.01446 64.0206 5.04547 64.0315C5.07726 64.0425 5.10626 64.0578 5.13249 64.0776C5.15871 64.0974 5.18102 64.1211 5.19943 64.1488C5.21784 64.1764 5.23137 64.2059 5.24002 64.2373C5.24937 64.2695 5.25322 64.302 5.25156 64.3347C5.24906 64.3681 5.24198 64.4002 5.23033 64.4312C5.21798 64.4613 5.20078 64.4889 5.17874 64.5141C5.15747 64.5394 5.13267 64.5608 5.10434 64.5784C5.07608 64.5952 5.04557 64.607 5.0128 64.614C4.98081 64.621 4.94854 64.6229 4.91599 64.6197C4.88274 64.6157 4.85115 64.6067 4.82122 64.5928C4.79129 64.5789 4.76414 64.5606 4.73977 64.5378C4.71618 64.5152 4.69646 64.489 4.6806 64.4592C4.66545 64.4304 4.65517 64.3996 4.64977 64.367C4.64437 64.3344 4.64448 64.3015 4.65008 64.2684C4.65561 64.2361 4.66606 64.2055 4.68144 64.1764C4.69689 64.1467 4.71668 64.1204 4.74082 64.0978C4.76496 64.0751 4.79217 64.0571 4.82245 64.0436C4.85202 64.0293 4.88339 64.0207 4.91655 64.0177C4.94901 64.0138 4.98171 64.0155 5.01466 64.0226C5.04683 64.0297 5.07695 64.0417 5.10503 64.0585C5.1338 64.0762 5.15871 64.0974 5.17974 64.1222C5.20148 64.1478 5.21826 64.1761 5.23009 64.207C5.24199 64.2371 5.24902 64.2691 5.25117 64.3029C5.25261 64.3359 5.25337 64.3521 5.25345 64.3513C5.25345 64.3513 5.1438 65.4974 4.9245 67.7897C4.70449 70.0811 4.70454 72.5377 4.92465 75.1596C5.14475 77.7815 5.97539 80.656 7.41656 83.783C8.85773 86.91 10.6322 89.9576 12.7401 92.9256C14.8479 95.8937 16.9742 98.2016 19.1188 99.8493C21.2635 101.497 22.8058 101.637 23.7456 100.268C24.6847 98.8997 25.6236 95.9974 26.5625 91.5615C27.5007 87.1248 28.173 81.5887 28.5794 74.9532C28.9859 68.3177 29.0856 61.0222 28.8786 53.0665C28.6715 45.1116 28.2552 37.1522 27.6296 29.1882C27.0041 21.2235 26.5608 15.2838 26.2996 11.3691C26.0394 7.45367 25.985 4.92086 26.1365 3.77064C26.288 2.62119 26.3658 2.03337 26.3699 2.00717C26.3741 1.9802 26.3817 1.95434 26.3928 1.92961C26.4031 1.9048 26.4167 1.88149 26.4337 1.85969C26.4499 1.83781 26.4687 1.81853 26.4899 1.80183C26.5111 1.78436 26.5341 1.77019 26.5586 1.7593C26.5832 1.74764 26.6087 1.73919 26.635 1.73396C26.6615 1.72795 26.6883 1.72589 26.7155 1.72779C26.742 1.72883 26.7682 1.73297 26.7941 1.74021C26.8207 1.74831 26.8454 1.75896 26.8684 1.77218C26.892 1.78624 26.9135 1.80283 26.9327 1.82194C26.9528 1.84035 26.97 1.8612 26.9841 1.8845C26.9982 1.90781 27.0095 1.93239 27.0179 1.95826C27.0264 1.98335 27.0316 2.00969 27.0336 2.03727C27.0357 2.06408 27.0367 2.07748 27.0367 2.07748Z" fill="#2563eb"/>
<path d="M43.9043 90.6187C43.9043 90.6187 43.6482 90.4581 43.1359 90.1369C42.6245 89.8159 42.0756 89.1116 41.4893 88.0241C40.9038 86.9368 40.7881 85.2188 41.142 82.8701C41.4967 80.5223 42.6307 78.3694 44.5441 76.4113C46.4574 74.4539 48.5343 73.2314 50.7749 72.7437C53.0146 72.256 55.28 72.6851 57.5709 74.0311C59.8611 75.3769 61.4026 77.2059 62.1955 79.518C62.9883 81.8308 63.021 84.1854 62.2938 86.5818C61.5674 88.9776 60.0756 90.8664 57.8183 92.2484C55.5602 93.6303 53.2613 94.2817 50.9216 94.2025C48.5811 94.1232 46.6155 93.4027 45.0249 92.0412C43.435 90.6797 42.6563 89.067 42.6887 87.2032C42.7211 85.3393 43.1061 83.7602 43.8439 82.4658C44.5808 81.1713 45.4045 79.9299 46.3148 78.7417C47.2259 77.5543 47.6932 76.9488 47.7166 76.9253C47.74 76.9018 47.7669 76.8829 47.7973 76.8687C47.8269 76.8536 47.858 76.8442 47.8905 76.8403C47.923 76.8357 47.9558 76.8366 47.9888 76.843C48.021 76.8493 48.0516 76.8605 48.0806 76.8766C48.1095 76.8928 48.1349 76.9133 48.1567 76.9381C48.1785 76.963 48.1961 76.9905 48.2096 77.0208C48.2222 77.0518 48.2296 77.0834 48.2319 77.1157C48.2349 77.1489 48.2325 77.1815 48.2246 77.2136C48.216 77.2456 48.2029 77.2756 48.1853 77.3036C48.1669 77.3315 48.1449 77.356 48.1194 77.3769C48.0939 77.3971 48.0653 77.4131 48.0337 77.4248C48.0028 77.4359 47.971 77.4418 47.938 77.4424C47.9051 77.4431 47.8727 77.4387 47.8407 77.4293C47.8089 77.4192 47.7798 77.4046 47.7535 77.3855C47.7265 77.3657 47.7034 77.3423 47.6841 77.3153C47.6648 77.2884 47.6505 77.2592 47.6411 77.2278C47.6309 77.1962 47.6266 77.1637 47.6284 77.1303C47.6292 77.0975 47.6355 77.0656 47.6472 77.0347C47.658 77.0037 47.6741 76.9751 47.6955 76.9491C47.716 76.9237 47.7404 76.9022 47.7687 76.8847C47.7964 76.8663 47.8262 76.8532 47.8583 76.8454C47.8903 76.8376 47.923 76.8353 47.9564 76.8386C47.989 76.841 48.0207 76.8488 48.0515 76.862C48.0815 76.8752 48.1087 76.8927 48.1332 76.9147C48.1575 76.9374 48.1781 76.9633 48.1948 76.9923C48.2108 77.0205 48.2219 77.0509 48.228 77.0836C48.2342 77.1163 48.2349 77.1489 48.2302 77.1813C48.2253 77.2144 48.2156 77.246 48.2009 77.2758C48.1863 77.3049 48.179 77.3194 48.179 77.3194C48.179 77.3194 47.7714 77.919 46.9562 79.1182C46.1418 80.3174 45.4832 81.5152 44.9805 82.7114C44.4794 83.9071 44.2009 85.278 44.145 86.8242C44.0899 88.3704 44.6751 89.6683 45.9005 90.7177C47.1266 91.7679 48.7237 92.3523 50.6917 92.4709C52.6605 92.5903 54.6409 92.0973 56.6332 90.9921C58.6262 89.8861 59.9497 88.3367 60.6036 86.3439C61.2582 84.3511 61.2921 82.3642 60.7054 80.3831C60.1179 78.4011 58.8783 76.8077 56.9867 75.6027C55.0949 74.3985 53.2168 73.9747 51.3523 74.3311C49.4884 74.6884 47.6744 75.6927 45.9101 77.3438C44.1466 78.9951 43.0437 80.8404 42.6012 82.8799C42.1586 84.9201 42.1271 86.4214 42.5066 87.3836C42.8869 88.3459 43.29 89.0288 43.7159 89.4322C44.1411 89.8348 44.3644 90.0465 44.3858 90.0674C44.4064 90.0882 44.4245 90.1111 44.44 90.1362C44.4556 90.1612 44.4678 90.1878 44.4768 90.2161C44.4857 90.2443 44.4915 90.2735 44.494 90.3034C44.4958 90.3326 44.4942 90.3614 44.489 90.3898C44.4838 90.419 44.4751 90.4475 44.463 90.4753C44.451 90.5023 44.436 90.5274 44.418 90.5507C44.4001 90.5739 44.3796 90.595 44.3567 90.6139C44.333 90.6319 44.3076 90.647 44.2806 90.6592C44.2535 90.6722 44.2256 90.6812 44.1969 90.6862C44.1674 90.6919 44.1379 90.6941 44.1083 90.6927C44.0795 90.6907 44.0511 90.6855 44.0229 90.6773C43.9949 90.6683 43.9679 90.6562 43.942 90.6411C43.9169 90.6262 43.9043 90.6187 43.9043 90.6187Z" fill="#2563eb"/>
<path d="M72.3658 32.9276C72.3658 32.9276 72.6327 33.4915 73.1665 34.6191C73.6994 35.7475 74.4293 38.0357 75.3561 41.4838C76.2837 44.9312 77.0731 48.4632 77.7243 52.0798C78.3763 55.6958 78.862 59.8454 79.1813 64.5287C79.5005 69.2129 79.6546 73.3529 79.6435 76.949C79.6316 80.5449 79.5856 83.3097 79.5057 85.2432C79.425 87.1766 79.3798 88.1808 79.3701 88.2557C79.361 88.3315 79.3429 88.4049 79.3156 88.4757C79.2875 88.5465 79.252 88.6131 79.2091 88.6753C79.1654 88.7376 79.1149 88.7936 79.0575 88.8435C79.001 88.8935 78.9389 88.9359 78.8713 88.9708C78.8037 89.0056 78.733 89.0319 78.6593 89.0497C78.5856 89.0667 78.5109 89.075 78.435 89.0745C78.3592 89.0741 78.2842 89.0648 78.2101 89.0465C78.1368 89.0276 78.0667 89.0004 77.9998 88.9648C77.9329 88.9293 77.871 88.886 77.8142 88.835C77.7582 88.7841 77.7086 88.7276 77.6654 88.6655C77.6231 88.6026 77.5886 88.5354 77.562 88.464C77.5353 88.3933 77.5178 88.32 77.5097 88.244C77.5006 88.1688 77.6758 87.9787 78.0353 87.6737C78.3954 87.3695 78.9327 86.5894 79.6471 85.3334C80.3614 84.0781 81.3222 82.6441 82.5294 81.0312C83.7374 79.4184 85.0217 77.8421 86.3822 76.3022C87.7434 74.7624 88.7701 73.6204 89.4623 72.8763C90.1537 72.1321 90.5277 71.7346 90.5844 71.6839C90.6417 71.6339 90.7038 71.5912 90.7707 71.5555C90.8376 71.5198 90.9079 71.4931 90.9817 71.4753C91.0555 71.4567 91.1303 71.4477 91.2062 71.4481C91.2821 71.4477 91.3572 71.4567 91.4313 71.4749C91.5046 71.4931 91.5748 71.5196 91.6418 71.5543C91.7095 71.5899 91.7718 71.6329 91.8286 71.6831C91.8855 71.7333 91.9355 71.7898 91.9786 71.8527C92.0218 71.9149 92.0567 71.9813 92.0834 72.052C92.1101 72.1227 92.1283 72.1957 92.1382 72.271C92.1471 72.347 92.1471 72.4226 92.1382 72.4976C92.1284 72.5725 92.1103 72.6458 92.0836 72.7176C92.0571 72.7885 92.0224 72.8551 91.9795 72.9174C91.9358 72.9796 91.8346 73.1813 91.6758 73.5225C91.517 73.8637 90.8128 74.8054 89.5632 76.3476C88.3137 77.889 87.0189 79.6247 85.6787 81.5547C84.3386 83.4839 83.341 84.9817 82.686 86.0479C82.0303 87.1133 81.954 87.9763 82.4571 88.637C82.9594 89.2967 83.918 89.5437 85.3326 89.3777C86.7473 89.2109 88.4054 88.8412 90.3069 88.2685C92.2092 87.6951 93.9804 87.1347 95.6204 86.5871C97.2611 86.0404 98.6485 85.5787 99.7826 85.202C100.917 84.8262 101.803 84.5209 102.44 84.2862C103.076 84.0515 103.605 83.8637 104.026 83.7228C104.447 83.5811 104.848 83.3471 105.231 83.0209C105.614 82.6955 105.818 82.5227 105.844 82.5026C105.871 82.4817 105.899 82.4658 105.931 82.4548C105.962 82.4446 105.994 82.4391 106.027 82.4384C106.06 82.4386 106.093 82.4437 106.124 82.4538C106.156 82.464 106.185 82.479 106.211 82.4988C106.238 82.5187 106.261 82.542 106.279 82.5689C106.298 82.5958 106.312 82.6254 106.321 82.6575C106.33 82.6889 106.334 82.7214 106.332 82.7549C106.331 82.7877 106.325 82.8195 106.312 82.8503C106.301 82.8813 106.284 82.9094 106.263 82.9347C106.242 82.96 106.217 82.9814 106.189 82.999C106.16 83.0165 106.13 83.0288 106.098 83.0358C106.066 83.0436 106.033 83.0459 106 83.0426C105.967 83.0394 105.936 83.0309 105.906 83.017C105.875 83.0038 105.848 82.9858 105.824 82.963C105.8 82.9404 105.78 82.9146 105.764 82.8856C105.748 82.8567 105.738 82.8259 105.732 82.7933C105.726 82.7606 105.726 82.7281 105.731 82.6957C105.736 82.6626 105.746 82.6315 105.762 82.6025C105.776 82.5726 105.796 82.5464 105.82 82.5237C105.843 82.5002 105.87 82.4817 105.9 82.4682C105.93 82.4539 105.961 82.4449 105.995 82.4411C106.027 82.4365 106.06 82.4378 106.093 82.4449C106.125 82.452 106.155 82.464 106.183 82.4808C106.212 82.497 106.237 82.5178 106.259 82.5435C106.281 82.5683 106.298 82.5962 106.311 82.6272C106.323 82.6573 106.33 82.6889 106.332 82.722C106.334 82.7551 106.331 82.7876 106.322 82.8196C106.314 82.8517 106.3 82.8812 106.282 82.9084C106.264 82.9363 106.254 82.9503 106.254 82.9503C106.254 82.9503 106.086 83.1744 105.75 83.6225C105.414 84.0707 105.05 84.5282 104.658 84.9951C104.264 85.4619 103.736 85.818 103.074 86.0634C102.41 86.3088 101.512 86.6191 100.379 86.9943C99.2453 87.3703 97.8486 87.835 96.1885 88.3884C94.5275 88.9425 92.6782 89.5179 90.6405 90.1148C88.6029 90.7116 86.7265 91.0247 85.0116 91.0539C83.2974 91.0832 82.0524 90.5628 81.2766 89.4927C80.5008 88.4226 80.4471 87.1352 81.1155 85.6305C81.7833 84.1249 82.802 82.3879 84.1718 80.4193C85.5416 78.4508 86.8144 76.752 87.9903 75.3231C89.1661 73.8949 89.8782 72.9442 90.1266 72.471C90.3752 71.997 90.5277 71.7346 90.5844 71.6839C90.6417 71.6339 90.7038 71.5912 90.7707 71.5555C90.8376 71.5198 90.9079 71.4931 90.9817 71.4753C91.0555 71.4567 91.1303 71.4477 91.2062 71.4481C91.2821 71.4477 91.3568 71.4566 91.4301 71.4748C91.5042 71.4931 91.5748 71.5196 91.6418 71.5543C91.7095 71.5899 91.7718 71.6329 91.8286 71.6831C91.8855 71.7333 91.9355 71.7894 91.9787 71.8516C92.0218 71.9145 92.0567 71.9813 92.0834 72.052C92.1101 72.1227 92.1283 72.1957 92.1382 72.271C92.1471 72.347 92.1471 72.4226 92.1382 72.4976C92.1292 72.5726 92.1111 72.6455 92.0838 72.7164C92.0571 72.7881 92.0224 72.8551 91.9795 72.9174C91.9358 72.9796 91.5683 73.3828 90.8768 74.127C90.1847 74.8711 89.174 75.9936 87.8447 77.4943C86.5163 78.995 85.2626 80.5306 84.0838 82.1008C82.9057 83.672 81.8207 85.1838 80.8288 86.6363C79.8375 88.0897 79.349 88.704 79.3633 88.4793C79.3775 88.2553 79.3798 88.1808 79.3701 88.2557C79.361 88.3315 79.3429 88.4049 79.3156 88.4757C79.2882 88.5466 79.2527 88.6131 79.2091 88.6753C79.1655 88.7368 79.1149 88.7928 79.0575 88.8435C79.001 88.8935 78.9389 88.9359 78.8713 88.9708C78.8037 89.0056 78.7331 89.0315 78.6594 89.0485C78.5857 89.0663 78.5109 89.075 78.435 89.0745C78.3592 89.0741 78.2842 89.0648 78.2101 89.0465C78.1368 89.0276 78.0667 89.0004 77.9998 88.9648C77.9329 88.9293 77.871 88.886 77.8142 88.835C77.7582 88.7841 77.7086 88.7276 77.6654 88.6655C77.6231 88.6026 77.5886 88.5354 77.562 88.464C77.5353 88.3933 77.5178 88.3203 77.5096 88.2452C77.5006 88.1692 77.5392 87.1644 77.6254 85.2307C77.7108 83.2977 77.7706 80.5543 77.805 77.0005C77.8386 73.4466 77.7175 69.3574 77.4417 64.7331C77.1659 60.1089 76.7217 56.0063 76.1093 52.4256C75.4969 48.8441 74.7732 45.3394 73.9384 41.9113C73.1036 38.4832 72.5344 36.1638 72.231 34.9531C71.9284 33.7426 71.7739 33.1253 71.7677 33.1012C71.7623 33.0764 71.7601 33.0515 71.7609 33.0266C71.7611 33.0015 71.7643 32.9768 71.7706 32.9524C71.7777 32.928 71.787 32.9051 71.7985 32.8835C71.8109 32.8613 71.8258 32.8408 71.8433 32.8222C71.86 32.8035 71.8788 32.7874 71.8997 32.7738C71.9206 32.7594 71.9433 32.7479 71.9676 32.7394C71.9911 32.7315 72.0155 32.7261 72.0408 32.7231C72.0653 32.7208 72.0899 32.7213 72.1146 32.7245C72.1393 32.7277 72.1634 32.734 72.1867 32.7433C72.21 32.7534 72.2318 32.7658 72.2523 32.7803C72.2728 32.7948 72.2915 32.8115 72.3084 32.8304C72.3245 32.85 72.3381 32.8709 72.3492 32.8931C72.3602 32.9161 72.3658 32.9276 72.3658 32.9276Z" fill="#2563eb"/>
<path d="M118.434 80.1977C118.434 80.1977 118.486 79.9654 118.591 79.5007C118.695 79.0352 118.905 78.2953 119.221 77.281C119.538 76.2659 119.814 75.3428 120.051 74.5116C120.288 73.6812 120.357 72.7088 120.259 71.5943C120.162 70.4806 119.763 69.7578 119.061 69.4258C118.358 69.0945 117.346 69.5845 116.024 70.8958C114.703 72.208 113.814 73.7183 113.357 75.427C112.901 77.1356 112.962 78.6542 113.542 79.9828C114.122 81.3122 115.36 82.1719 117.256 82.562C119.152 82.9512 120.974 82.9579 122.721 82.5821C124.467 82.2062 125.982 81.6529 127.263 80.9222C128.544 80.1914 129.73 79.3453 130.822 78.3838C131.914 77.4216 132.474 76.9313 132.502 76.9129C132.529 76.8944 132.558 76.8805 132.59 76.8711C132.622 76.8625 132.654 76.859 132.688 76.8608C132.72 76.8616 132.752 76.8683 132.783 76.8807C132.814 76.8931 132.842 76.91 132.867 76.9313C132.893 76.9525 132.914 76.9773 132.932 77.0057C132.948 77.0339 132.961 77.0641 132.968 77.0962C132.975 77.1281 132.977 77.1608 132.974 77.1941C132.97 77.2266 132.961 77.2582 132.948 77.289C132.934 77.3189 132.916 77.3457 132.893 77.3693C132.871 77.3937 132.845 77.4138 132.816 77.4297C132.786 77.4448 132.755 77.4554 132.722 77.4616C132.69 77.467 132.657 77.467 132.625 77.4614C132.592 77.4566 132.561 77.4465 132.532 77.4311C132.503 77.4157 132.476 77.396 132.453 77.3717C132.43 77.3476 132.412 77.3208 132.399 77.2913C132.385 77.2609 132.375 77.2295 132.372 77.1971C132.368 77.1638 132.37 77.1311 132.377 77.0989C132.384 77.0668 132.396 77.0363 132.413 77.0074C132.429 76.9793 132.45 76.9544 132.475 76.9326C132.501 76.9108 132.529 76.894 132.559 76.8821C132.59 76.8695 132.622 76.8621 132.655 76.8599C132.688 76.8584 132.72 76.862 132.752 76.8707C132.784 76.8793 132.814 76.8928 132.841 76.9111C132.869 76.9295 132.893 76.9518 132.913 76.978C132.933 77.0043 132.948 77.0331 132.959 77.0647C132.97 77.0963 132.975 77.1285 132.975 77.1613C132.976 77.1943 132.97 77.2266 132.959 77.2584C132.949 77.2895 132.934 77.3182 132.915 77.3444C132.895 77.3714 132.885 77.3849 132.885 77.3849C132.885 77.3849 132.361 77.9261 131.314 79.0086C130.268 80.0911 129.082 81.1677 127.757 82.2384C126.432 83.31 124.763 84.035 122.749 84.4136C120.735 84.7929 118.638 84.6781 116.458 84.0691C114.277 83.461 112.802 82.257 112.03 80.4573C111.259 78.6591 111.176 76.7334 111.781 74.6802C112.386 72.627 113.505 70.9108 115.138 69.5316C116.771 68.1523 118.215 67.7185 119.472 68.2303C120.727 68.7419 121.462 69.7794 121.677 71.3429C121.894 72.9065 121.865 74.1197 121.593 74.9826C121.321 75.8448 120.984 76.803 120.581 77.8573C120.178 78.9116 119.816 79.6158 119.495 79.97C119.175 80.3227 119.007 80.5097 118.993 80.5309C118.977 80.5529 118.96 80.5727 118.941 80.5904C118.921 80.608 118.9 80.6231 118.876 80.6356C118.853 80.6474 118.828 80.6567 118.802 80.6636C118.778 80.6698 118.752 80.6731 118.725 80.6736C118.699 80.6734 118.674 80.6701 118.649 80.6637C118.623 80.658 118.598 80.649 118.575 80.6365C118.552 80.6241 118.53 80.6094 118.51 80.5926C118.491 80.575 118.473 80.5553 118.458 80.5335C118.443 80.5124 118.431 80.4893 118.422 80.4642C118.412 80.4397 118.405 80.4144 118.402 80.3883C118.399 80.3621 118.398 80.3363 118.402 80.3108C118.405 80.2853 118.411 80.26 118.42 80.2351C118.429 80.2102 118.434 80.1977 118.434 80.1977Z" fill="#2563eb"/>
<path d="M176.068 84.1986C176.068 84.1986 175.707 83.8674 174.986 83.2048C174.265 82.5415 173.654 81.1578 173.152 79.0537C172.651 76.9503 172.526 74.8284 172.776 72.6878C173.027 70.5473 173.635 68.7894 174.601 67.4141C175.565 66.0395 176.843 65.3601 178.435 65.3759C180.027 65.3917 181.28 66.2611 182.194 67.9841C183.107 69.707 183.384 71.7477 183.025 74.1059C182.665 76.465 181.797 78.6382 180.42 80.6257C179.043 82.6131 177.508 84.1542 175.815 85.249C174.12 86.3451 172.387 86.5838 170.614 85.9649C168.843 85.3461 167.84 84.1148 167.606 82.2709C167.373 80.4255 167.814 78.6731 168.931 77.0138C170.048 75.3552 171.193 74.1056 172.366 73.2649C173.539 72.4241 174.736 71.6607 175.956 70.9748C177.175 70.2896 177.8 69.9407 177.83 69.928C177.861 69.9154 177.893 69.9084 177.926 69.9069C177.959 69.9047 177.991 69.9079 178.023 69.9165C178.056 69.9251 178.085 69.9386 178.112 69.9569C178.14 69.9753 178.164 69.9977 178.184 70.0239C178.204 70.0501 178.22 70.079 178.23 70.1105C178.241 70.1421 178.246 70.1744 178.246 70.2072C178.247 70.2401 178.242 70.2725 178.231 70.3043C178.221 70.3354 178.206 70.364 178.186 70.3902C178.166 70.4172 178.142 70.4399 178.115 70.4584C178.088 70.4768 178.058 70.4908 178.026 70.5001C177.995 70.5088 177.962 70.5122 177.929 70.5105C177.896 70.5096 177.864 70.503 177.833 70.4905C177.802 70.4781 177.774 70.4613 177.749 70.44C177.724 70.4187 177.702 70.3939 177.685 70.3656C177.668 70.3373 177.656 70.3072 177.65 70.2753C177.642 70.2433 177.64 70.2106 177.643 70.1772C177.647 70.1448 177.656 70.1135 177.669 70.0835C177.682 70.0527 177.7 70.0255 177.723 70.002C177.746 69.9776 177.771 69.9574 177.8 69.9415C177.829 69.9264 177.86 69.9157 177.893 69.9095C177.925 69.9041 177.958 69.9042 177.991 69.9098C178.024 69.9146 178.055 69.9247 178.085 69.9401C178.114 69.9555 178.139 69.9753 178.162 69.9994C178.185 70.0236 178.204 70.0505 178.218 70.08C178.232 70.1103 178.241 70.1417 178.245 70.1742C178.248 70.2074 178.247 70.2401 178.24 70.2723C178.233 70.3045 178.221 70.335 178.204 70.3638C178.187 70.3919 178.166 70.4169 178.141 70.4387C178.116 70.4596 178.103 70.4702 178.104 70.4702C178.104 70.4702 177.539 70.8434 176.409 71.5899C175.279 72.3362 174.25 73.1662 173.323 74.0797C172.396 74.9932 171.454 76.1435 170.497 77.5306C169.541 78.917 169.105 80.3781 169.191 81.914C169.278 83.4484 169.909 84.3857 171.084 84.7258C172.258 85.0652 173.513 84.7759 174.848 83.8579C176.181 82.9414 177.482 81.6105 178.751 79.8652C180.021 78.1207 180.852 76.2369 181.246 74.2138C181.639 72.1914 181.508 70.4311 180.852 68.933C180.195 67.4357 179.379 66.7016 178.403 66.7307C177.428 66.7592 176.603 67.279 175.928 68.29C175.252 69.3011 174.759 70.7756 174.447 72.7137C174.135 74.6517 174.121 76.5988 174.405 78.5548C174.689 80.51 175.118 81.8653 175.694 82.6207C176.268 83.376 176.563 83.7642 176.579 83.7853C176.594 83.8072 176.607 83.8307 176.617 83.8559C176.626 83.8803 176.632 83.9056 176.636 83.9318C176.64 83.958 176.64 83.9843 176.638 84.0106C176.635 84.037 176.629 84.0626 176.62 84.0875C176.611 84.1124 176.599 84.1359 176.585 84.158C176.57 84.18 176.553 84.2002 176.533 84.2186C176.513 84.2362 176.492 84.2513 176.468 84.2639C176.445 84.2764 176.42 84.2861 176.394 84.293C176.368 84.2998 176.342 84.3035 176.315 84.304C176.29 84.3046 176.264 84.3021 176.239 84.2965C176.213 84.29 176.188 84.2809 176.164 84.2692C176.14 84.2574 176.118 84.2427 176.098 84.2251C176.078 84.2075 176.068 84.1986 176.068 84.1986Z" fill="#2563eb"/>
<path d="M195.153 84.9665C195.153 84.9665 194.897 84.7407 194.385 84.2889C193.873 83.8363 193.339 82.4762 192.783 80.2086C192.227 77.9409 191.734 75.3458 191.304 72.4231C190.873 69.5004 190.555 65.5152 190.351 60.4675C190.147 55.4199 190.21 50.8086 190.542 46.6338C190.874 42.459 191.362 39.1216 192.006 36.6215C192.651 34.1214 193.757 32.7792 195.325 32.5947C196.894 32.4103 198.123 33.4619 199.011 35.7497C199.9 38.0375 200.433 40.4613 200.61 43.0211C200.788 45.581 200.876 48.4801 200.873 51.7186C200.87 54.9571 200.866 56.5929 200.861 56.626C200.856 56.6584 200.846 56.6895 200.832 56.7194C200.816 56.7484 200.797 56.7746 200.773 56.7981C200.75 56.8209 200.723 56.8398 200.693 56.8548C200.663 56.8691 200.632 56.8781 200.6 56.882C200.566 56.8858 200.534 56.8845 200.501 56.8782C200.469 56.8711 200.439 56.8595 200.41 56.8434C200.381 56.8264 200.356 56.8055 200.334 56.7807C200.312 56.7559 200.295 56.7283 200.282 56.6981C200.269 56.6672 200.262 56.6351 200.26 56.6021C200.258 56.569 200.261 56.5364 200.269 56.5044C200.277 56.4723 200.29 56.4427 200.309 56.4156C200.327 56.3876 200.349 56.3636 200.375 56.3434C200.401 56.3225 200.43 56.3066 200.461 56.2956C200.492 56.2845 200.524 56.2791 200.557 56.2792C200.591 56.2786 200.623 56.2833 200.654 56.2934C200.686 56.3036 200.715 56.3182 200.741 56.3372C200.768 56.3571 200.791 56.3805 200.81 56.4073C200.829 56.435 200.843 56.4646 200.852 56.4961C200.862 56.5275 200.866 56.56 200.864 56.5934C200.863 56.6262 200.857 56.6581 200.845 56.689C200.833 56.7199 200.816 56.7484 200.796 56.7745C200.774 56.7998 200.75 56.8212 200.721 56.8388C200.694 56.8564 200.664 56.8687 200.631 56.8757C200.599 56.8835 200.566 56.8858 200.534 56.8826C200.501 56.8793 200.469 56.8711 200.439 56.858C200.409 56.8448 200.382 56.8269 200.357 56.8042C200.333 56.7822 200.313 56.7567 200.297 56.7278C200.281 56.698 200.27 56.6672 200.264 56.6353C200.258 56.6027 200.256 56.5864 200.256 56.5864C200.256 56.5864 200.205 54.9827 200.103 51.7755C200.003 48.5683 199.761 45.7647 199.379 43.3648C198.997 40.964 198.381 38.6675 197.533 36.4751C196.684 34.2821 195.877 33.3423 195.11 33.6557C194.343 33.9691 193.787 35.1922 193.441 37.3249C193.095 39.4575 192.757 42.5738 192.427 46.6737C192.096 50.7735 192.025 55.3156 192.215 60.3C192.404 65.2851 192.697 69.2189 193.091 72.1014C193.487 74.9839 193.888 77.4753 194.296 79.5757C194.704 81.6762 195.044 83.0305 195.314 83.6385C195.583 84.2463 195.724 84.5627 195.738 84.5875C195.752 84.6116 195.763 84.6373 195.771 84.6647C195.778 84.692 195.782 84.7198 195.784 84.7481C195.785 84.7764 195.782 84.8039 195.777 84.8307C195.771 84.8583 195.762 84.8848 195.749 84.9102C195.736 84.9355 195.721 84.9591 195.703 84.9808C195.685 85.0025 195.665 85.022 195.642 85.0394C195.62 85.0559 195.595 85.0695 195.569 85.0803C195.543 85.091 195.516 85.0985 195.487 85.1027C195.459 85.107 195.431 85.1078 195.403 85.105C195.376 85.1032 195.349 85.0973 195.322 85.0876C195.295 85.0788 195.27 85.0665 195.247 85.0509C195.222 85.036 195.201 85.0182 195.182 84.9975C195.162 84.9769 195.153 84.9665 195.153 84.9665Z" fill="#2563eb"/>
<path d="M192.962 80.8065C192.962 80.8065 192.73 80.9621 192.267 81.2733C191.802 81.5852 191.553 81.7477 191.519 81.7608C191.487 81.774 191.453 81.7836 191.418 81.7896C191.383 81.7947 191.348 81.7956 191.312 81.792C191.276 81.7885 191.242 81.7808 191.209 81.769C191.174 81.7578 191.143 81.7425 191.113 81.7232C191.083 81.7038 191.056 81.6812 191.032 81.6553C191.008 81.6287 190.987 81.6001 190.97 81.5694C190.952 81.5379 190.938 81.5053 190.929 81.4715C190.92 81.437 190.915 81.402 190.914 81.3667C190.912 81.3314 190.915 81.2961 190.923 81.2608C190.931 81.2264 190.943 81.1931 190.959 81.161C190.974 81.1289 190.993 81.0995 191.015 81.0727C191.038 81.0452 191.064 81.0208 191.093 80.9993C191.122 80.9787 191.031 80.7077 190.822 80.1863C190.613 79.6641 191.191 78.9213 192.558 77.958C193.924 76.9938 195.37 76.2452 196.896 75.7123C198.423 75.1786 199.753 74.7515 200.886 74.4311C202.019 74.1115 202.908 73.9117 203.551 73.8318C204.194 73.7511 204.76 73.6237 205.247 73.4494C205.735 73.2744 205.994 73.1821 206.026 73.1727C206.057 73.1625 206.089 73.1578 206.122 73.1587C206.156 73.1597 206.188 73.166 206.219 73.1776C206.25 73.1893 206.278 73.2054 206.304 73.226C206.33 73.2465 206.352 73.2705 206.37 73.2982C206.388 73.3265 206.4 73.3567 206.408 73.3888C206.416 73.4208 206.418 73.4532 206.416 73.4858C206.414 73.5192 206.406 73.5509 206.393 73.5809C206.379 73.6117 206.362 73.6393 206.34 73.6637C206.318 73.6882 206.292 73.7088 206.263 73.7255C206.235 73.7415 206.205 73.7526 206.172 73.7587C206.139 73.7657 206.107 73.7668 206.074 73.762C206.041 73.7572 206.01 73.7475 205.98 73.7328C205.951 73.7182 205.924 73.6992 205.901 73.6757C205.877 73.653 205.858 73.6269 205.843 73.5972C205.829 73.5669 205.819 73.5354 205.815 73.5029C205.81 73.4704 205.811 73.4376 205.817 73.4046C205.824 73.3723 205.835 73.3417 205.851 73.3128C205.867 73.2839 205.888 73.2585 205.912 73.2367C205.936 73.2148 205.964 73.1972 205.995 73.1838C206.025 73.1711 206.057 73.1633 206.09 73.1603C206.122 73.1572 206.155 73.1596 206.187 73.1675C206.219 73.1761 206.249 73.1892 206.277 73.2068C206.305 73.2245 206.329 73.246 206.35 73.2716C206.371 73.2979 206.387 73.3264 206.398 73.3573C206.41 73.3882 206.416 73.4201 206.417 73.453C206.418 73.4867 206.413 73.5192 206.404 73.5503C206.394 73.5823 206.38 73.6117 206.36 73.6387C206.341 73.665 206.318 73.6882 206.291 73.7082C206.264 73.7275 206.25 73.7371 206.25 73.7371C206.25 73.7371 206.019 73.8861 205.555 74.184C205.091 74.4819 204.566 74.8206 203.98 75.2003C203.392 75.5792 202.549 75.9234 201.45 76.2331C200.35 76.5428 199.1 76.9346 197.699 77.4086C196.297 77.8826 194.955 78.4634 193.673 79.151C192.391 79.8387 191.721 80.4422 191.66 80.9613C191.6 81.4804 191.553 81.7469 191.52 81.7609C191.487 81.7741 191.453 81.7836 191.418 81.7896C191.383 81.7947 191.348 81.7956 191.312 81.792C191.276 81.7885 191.242 81.7808 191.209 81.769C191.174 81.7578 191.143 81.7425 191.113 81.7232C191.083 81.7038 191.056 81.6812 191.032 81.6553C191.008 81.6287 190.987 81.6001 190.97 81.5694C190.952 81.5387 190.938 81.506 190.929 81.4715C190.92 81.437 190.915 81.402 190.914 81.3667C190.912 81.3314 190.915 81.2961 190.923 81.2608C190.931 81.2264 190.943 81.1931 190.959 81.161C190.974 81.1289 190.993 81.0995 191.015 81.0727C191.038 81.0452 191.064 81.0208 191.093 80.9993C191.122 80.9787 191.39 80.8513 191.898 80.6173C192.406 80.384 192.672 80.2627 192.695 80.2532C192.717 80.2437 192.741 80.237 192.766 80.2332C192.79 80.2293 192.815 80.2287 192.84 80.2311C192.864 80.2335 192.888 80.2385 192.911 80.2463C192.935 80.2549 192.957 80.2657 192.978 80.2788C192.999 80.2925 193.018 80.3085 193.035 80.3266C193.052 80.3447 193.067 80.3649 193.079 80.3873C193.091 80.4088 193.101 80.4316 193.108 80.4558C193.114 80.4799 193.118 80.5041 193.118 80.5284C193.119 80.5535 193.116 80.578 193.111 80.6017C193.106 80.6262 193.098 80.6497 193.088 80.6721C193.076 80.6945 193.062 80.715 193.046 80.7338C193.03 80.7534 193.012 80.7704 192.992 80.7848C192.972 80.7992 192.962 80.8065 192.962 80.8065Z" fill="#2563eb"/>
<path d="M238.674 34.8398C238.674 34.8398 238.688 36.7 238.717 40.4204C238.745 44.1408 238.736 48.5266 238.689 53.5777C238.642 58.6288 238.763 63.4921 239.051 68.1677C239.338 72.8424 240.019 76.7045 241.094 79.754C242.169 82.8044 243.383 84.7748 244.735 85.6653C246.088 86.5567 247.366 86.6394 248.568 85.9133C249.77 85.1873 250.413 84.2216 250.497 83.0163C250.581 81.8108 250.397 80.7998 249.946 79.9831C249.496 79.1672 248.865 78.3019 248.053 77.3871C247.242 76.4731 246.826 76.003 246.806 75.9768C246.786 75.9498 246.771 75.9209 246.761 75.8902C246.75 75.8586 246.745 75.8264 246.744 75.7935C246.744 75.7599 246.75 75.7275 246.761 75.6965C246.772 75.6647 246.787 75.6357 246.807 75.6095C246.827 75.5833 246.85 75.561 246.878 75.5426C246.906 75.5242 246.935 75.5106 246.967 75.502C246.999 75.4926 247.031 75.4888 247.064 75.4904C247.097 75.4929 247.13 75.5 247.161 75.5117C247.191 75.524 247.218 75.5408 247.244 75.5621C247.269 75.5841 247.29 75.6093 247.308 75.6377C247.325 75.6659 247.336 75.696 247.343 75.728C247.35 75.7608 247.352 75.7935 247.349 75.826C247.345 75.8593 247.336 75.8908 247.322 75.9208C247.308 75.9507 247.29 75.9779 247.267 76.0022C247.245 76.0258 247.218 76.0455 247.189 76.0614C247.16 76.0765 247.129 76.0868 247.096 76.0922C247.064 76.0976 247.031 76.0976 246.999 76.092C246.966 76.0864 246.935 76.0759 246.906 76.0606C246.877 76.0452 246.851 76.0254 246.827 76.0012C246.804 75.977 246.786 75.9498 246.773 75.9196C246.759 75.89 246.75 75.8586 246.747 75.8254C246.743 75.793 246.745 75.7603 246.752 75.7273C246.759 75.6952 246.771 75.665 246.788 75.637C246.806 75.6082 246.827 75.5833 246.852 75.5622C246.877 75.5405 246.905 75.5237 246.936 75.5119C246.966 75.5 246.998 75.4929 247.031 75.4907C247.064 75.4893 247.097 75.4929 247.129 75.5015C247.161 75.5101 247.19 75.524 247.217 75.5431C247.245 75.5615 247.259 75.5707 247.259 75.5707C247.259 75.5707 247.779 75.992 248.819 76.8345C249.859 77.6763 250.689 78.6109 251.31 79.6384C251.929 80.6657 252.151 81.9572 251.975 83.5127C251.799 85.0689 250.893 86.3092 249.257 87.2336C247.622 88.158 245.853 88.045 243.95 86.8944C242.047 85.7447 240.512 83.5267 239.348 80.2407C238.183 76.9553 237.464 72.9491 237.192 68.2219C236.92 63.4955 236.823 58.6082 236.901 53.5602C236.98 48.5115 237.064 44.1272 237.152 40.4073C237.24 36.6873 237.287 34.7999 237.295 34.7451C237.302 34.6903 237.315 34.6364 237.335 34.5836C237.355 34.5316 237.382 34.4829 237.414 34.4376C237.446 34.3915 237.483 34.3501 237.525 34.3136C237.568 34.2771 237.614 34.246 237.663 34.2203C237.713 34.1947 237.765 34.1756 237.819 34.1629C237.874 34.1495 237.929 34.1432 237.984 34.1439C238.04 34.1439 238.095 34.1509 238.149 34.1648C238.203 34.1788 238.255 34.1991 238.304 34.2258C238.353 34.2518 238.398 34.2837 238.44 34.3214C238.482 34.3584 238.518 34.3999 238.55 34.4461C238.581 34.4922 238.606 34.5416 238.625 34.5944C238.645 34.6472 238.658 34.7013 238.665 34.7567C238.671 34.8121 238.674 34.8398 238.674 34.8398Z" fill="#2563eb"/>
<path d="M225.969 79.1066C225.969 79.1066 225.824 79.1937 225.535 79.3679C225.245 79.542 225.081 79.6338 225.043 79.6434C225.004 79.6529 224.966 79.6577 224.926 79.6578C224.887 79.6578 224.849 79.6532 224.81 79.644C224.773 79.6341 224.737 79.6203 224.702 79.6028C224.667 79.5845 224.635 79.5622 224.605 79.5358C224.575 79.5102 224.55 79.481 224.528 79.4484C224.505 79.4164 224.487 79.3821 224.474 79.3456C224.459 79.309 224.45 79.2712 224.445 79.2324C224.44 79.1936 224.44 79.1545 224.445 79.115C224.449 79.0764 224.459 79.0386 224.473 79.0017C224.487 78.9655 224.505 78.9312 224.527 78.899C224.549 78.8667 224.574 78.8375 224.604 78.8114C224.633 78.7854 224.666 78.7632 224.7 78.7447C224.735 78.7262 225.281 78.3593 226.338 77.6441C227.397 76.929 229.035 76.0056 231.253 74.8741C233.472 73.7426 235.489 72.8053 237.306 72.0623C239.122 71.32 240.658 70.7696 241.913 70.4111C243.167 70.0533 244.336 69.6668 245.42 69.2515C246.504 68.8363 247.062 68.6247 247.094 68.6169C247.126 68.6091 247.159 68.6065 247.193 68.609C247.225 68.6114 247.257 68.6192 247.288 68.6324C247.318 68.6456 247.345 68.6632 247.371 68.6852C247.395 68.7072 247.415 68.7326 247.431 68.7616C247.448 68.7906 247.459 68.8211 247.466 68.853C247.472 68.8857 247.473 68.9187 247.469 68.9519C247.464 68.9843 247.454 69.0154 247.44 69.0453C247.425 69.0744 247.406 69.1007 247.383 69.1242C247.359 69.1477 247.333 69.167 247.303 69.1821C247.273 69.1964 247.242 69.2058 247.21 69.2105C247.176 69.215 247.144 69.2141 247.111 69.2078C247.079 69.2015 247.049 69.1903 247.02 69.1742C246.991 69.158 246.965 69.1375 246.944 69.1127C246.921 69.0885 246.903 69.0614 246.89 69.0312C246.877 69.0001 246.869 68.9684 246.866 68.936C246.864 68.9029 246.866 68.8703 246.874 68.8382C246.882 68.8062 246.895 68.7761 246.912 68.7481C246.931 68.7202 246.953 68.6957 246.978 68.6748C247.004 68.6538 247.032 68.6378 247.063 68.6268C247.095 68.615 247.127 68.6088 247.16 68.6081C247.193 68.6075 247.225 68.6118 247.257 68.6212C247.288 68.6305 247.317 68.6451 247.344 68.665C247.371 68.6841 247.395 68.7071 247.414 68.7341C247.433 68.761 247.448 68.7902 247.458 68.8218C247.467 68.8532 247.472 68.8857 247.471 68.9192C247.47 68.952 247.464 68.9839 247.452 69.0148C247.441 69.0458 247.425 69.0744 247.405 69.1006C247.384 69.1259 247.359 69.1477 247.331 69.1661C247.304 69.1837 247.29 69.1926 247.29 69.1926C247.29 69.1926 246.764 69.4459 245.711 69.9526C244.658 70.4595 243.559 71.0164 242.413 71.6236C241.268 72.23 239.813 72.9135 238.046 73.6739C236.28 74.4337 234.287 75.3546 232.067 76.4367C229.847 77.5187 228.131 78.3217 226.918 78.8455C225.706 79.3679 225.081 79.6338 225.043 79.6434C225.004 79.6529 224.966 79.6577 224.926 79.6578C224.887 79.6578 224.849 79.6532 224.81 79.644C224.773 79.6341 224.737 79.6203 224.702 79.6028C224.667 79.5845 224.635 79.5622 224.605 79.5358C224.576 79.5102 224.551 79.4815 224.528 79.4495C224.505 79.4168 224.487 79.3821 224.474 79.3456C224.459 79.309 224.45 79.2712 224.445 79.2324C224.44 79.1936 224.44 79.1545 224.445 79.115C224.449 79.0764 224.459 79.0386 224.473 79.0017C224.487 78.9655 224.505 78.9312 224.527 78.899C224.549 78.8667 224.574 78.8375 224.604 78.8114C224.633 78.7854 224.666 78.7632 224.7 78.7447C224.735 78.7262 224.918 78.6855 225.25 78.6227C225.583 78.5599 225.761 78.5255 225.785 78.5192C225.809 78.513 225.834 78.5099 225.859 78.51C225.883 78.5101 225.907 78.5129 225.932 78.5184C225.955 78.5246 225.978 78.5336 226.001 78.5451C226.023 78.5567 226.044 78.5709 226.062 78.5876C226.081 78.6035 226.098 78.622 226.112 78.6429C226.126 78.6631 226.137 78.6849 226.147 78.7086C226.155 78.7321 226.161 78.7562 226.164 78.7807C226.167 78.8053 226.167 78.8295 226.164 78.8535C226.161 78.8782 226.155 78.9023 226.146 78.9257C226.138 78.9491 226.126 78.971 226.112 78.9915C226.098 79.0121 226.082 79.0304 226.063 79.0466C226.044 79.0635 226.024 79.0779 226.002 79.0899C225.98 79.101 225.969 79.1066 225.969 79.1066Z" fill="#2563eb"/>
<path d="M253.889 52.0678C253.889 52.0678 253.846 51.8741 253.759 51.4868C253.672 51.0987 253.578 50.7479 253.476 50.4343C253.375 50.12 253.323 49.9275 253.321 49.8568C253.318 49.7861 253.325 49.7159 253.34 49.6463C253.355 49.5773 253.378 49.5107 253.409 49.4465C253.44 49.383 253.478 49.3241 253.523 49.2699C253.568 49.2148 253.619 49.1667 253.677 49.1254C253.734 49.0833 253.795 49.0486 253.861 49.0214C253.926 48.9942 253.994 48.975 254.065 48.964C254.135 48.9537 254.205 48.9516 254.275 48.9577C254.346 48.9639 254.415 48.9789 254.481 49.0026C254.548 49.0257 254.612 49.0562 254.672 49.0942C254.731 49.1329 254.785 49.1781 254.833 49.2298C254.881 49.2815 254.923 49.338 254.957 49.3993C254.993 49.4614 255.019 49.5267 255.038 49.595C255.057 49.6626 255.123 50.2165 255.236 51.2565C255.349 52.2959 255.59 54.0704 255.96 56.5803C256.328 59.09 256.781 62.3757 257.317 66.4371C257.853 70.4986 258.384 74.2462 258.909 77.6798C259.435 81.1135 259.829 83.6617 260.09 85.3244C260.351 86.9879 260.483 87.8577 260.486 87.9338C260.488 88.0092 260.481 88.084 260.465 88.1583C260.449 88.2326 260.425 88.3038 260.391 88.3717C260.359 88.4405 260.318 88.5038 260.269 88.5616C260.221 88.6202 260.166 88.6719 260.105 88.7168C260.043 88.7624 259.978 88.7997 259.909 88.8289C259.838 88.858 259.766 88.8782 259.69 88.8896C259.615 88.901 259.54 88.9034 259.464 88.8967C259.389 88.8893 259.315 88.8734 259.243 88.8491C259.172 88.8241 259.104 88.7912 259.041 88.7506C258.977 88.709 258.919 88.6607 258.867 88.6055C258.815 88.5503 258.77 88.4895 258.732 88.4233C258.695 88.3578 258.666 88.2884 258.646 88.2152C258.625 88.142 258.736 87.8031 258.979 87.1986C259.221 86.5942 259.459 85.3104 259.693 83.3475C259.927 81.3853 260.273 79.6368 260.732 78.1021C261.189 76.5681 261.813 75.3664 262.602 74.4973C263.391 73.6281 264.3 73.4256 265.328 73.8899C266.357 74.3542 267.357 75.2316 268.328 76.522C269.299 77.8125 270.086 79.0613 270.687 80.2683C271.287 81.4761 271.746 82.4318 272.065 83.1353C272.384 83.8396 272.625 84.4263 272.787 84.8953C272.948 85.3642 273.04 85.635 273.063 85.7078C273.086 85.7804 273.099 85.8545 273.104 85.9301C273.109 86.0057 273.105 86.0808 273.091 86.1553C273.077 86.2299 273.055 86.302 273.024 86.3717C272.993 86.4407 272.954 86.5049 272.908 86.5645C272.861 86.6249 272.808 86.6783 272.749 86.7249C272.689 86.7723 272.625 86.8113 272.555 86.8421C272.486 86.8736 272.414 86.8963 272.34 86.91C272.265 86.9239 272.19 86.9286 272.114 86.9242C272.038 86.9199 271.964 86.9068 271.891 86.8847C271.819 86.862 271.751 86.831 271.686 86.7917C271.621 86.7524 271.561 86.7063 271.507 86.6532C271.453 86.5994 271.407 86.5401 271.368 86.4752C271.328 86.4103 271.565 86.0928 272.077 85.5227C272.588 84.9533 272.857 84.6573 272.881 84.6347C272.906 84.6129 272.934 84.5956 272.964 84.5829C272.995 84.5696 273.027 84.5618 273.06 84.5595C273.093 84.5572 273.125 84.56 273.157 84.5679C273.189 84.5757 273.219 84.5888 273.247 84.6072C273.275 84.6249 273.299 84.6468 273.32 84.6731C273.34 84.6986 273.356 84.7272 273.368 84.7588C273.379 84.7897 273.385 84.8215 273.386 84.8545C273.386 84.8874 273.382 84.9198 273.373 84.9518C273.362 84.9836 273.347 85.0127 273.328 85.0389C273.309 85.066 273.286 85.0891 273.259 85.1084C273.232 85.1277 273.202 85.142 273.171 85.1514C273.139 85.1608 273.106 85.165 273.074 85.1641C273.04 85.1632 273.008 85.1569 272.977 85.1452C272.946 85.1336 272.918 85.1175 272.892 85.097C272.866 85.0757 272.844 85.0512 272.827 85.0237C272.809 84.9953 272.797 84.9651 272.789 84.9331C272.781 84.901 272.779 84.8687 272.782 84.8361C272.784 84.8027 272.792 84.771 272.805 84.741C272.818 84.7102 272.836 84.6826 272.858 84.6582C272.881 84.6338 272.907 84.6137 272.936 84.5977C272.965 84.581 272.995 84.5696 273.027 84.5633C273.06 84.5579 273.093 84.5572 273.126 84.5613C273.158 84.566 273.189 84.5758 273.219 84.5904C273.248 84.6058 273.274 84.6252 273.298 84.6487C273.321 84.6721 273.34 84.6986 273.355 84.7282C273.37 84.7578 273.379 84.7893 273.383 84.8225C273.388 84.8551 273.387 84.8874 273.38 84.9197C273.374 84.9527 273.362 84.9833 273.346 85.0113C273.329 85.0403 273.321 85.0547 273.321 85.0547C273.321 85.0547 273.273 85.1454 273.175 85.3267C273.077 85.508 273.04 85.635 273.063 85.7078C273.086 85.7804 273.099 85.8545 273.104 85.9301C273.109 86.0057 273.105 86.0808 273.091 86.1553C273.077 86.2299 273.055 86.302 273.024 86.3717C272.994 86.4407 272.955 86.505 272.908 86.5645C272.861 86.6249 272.808 86.6783 272.749 86.7249C272.689 86.7723 272.625 86.8113 272.555 86.8421C272.486 86.8736 272.414 86.8963 272.34 86.91C272.265 86.9239 272.19 86.9286 272.114 86.9242C272.038 86.9199 271.965 86.9068 271.892 86.8848C271.82 86.862 271.751 86.831 271.686 86.7917C271.621 86.7524 271.561 86.7063 271.508 86.6533C271.454 86.5995 271.407 86.5401 271.368 86.4752C271.328 86.4103 271.228 86.1433 271.066 85.6743C270.904 85.2054 270.668 84.6282 270.358 83.9427C270.048 83.258 269.619 82.3559 269.071 81.2362C268.524 80.1174 267.871 79.0015 267.113 77.8885C266.356 76.7763 265.507 75.9913 264.568 75.5335C263.629 75.0757 263.171 75.0979 263.192 75.5999C263.213 76.1028 263.005 77.0699 262.57 78.5013C262.135 79.9327 261.77 81.7255 261.477 83.8798C261.184 86.0349 260.945 87.2301 260.76 87.4655C260.575 87.7015 260.483 87.8577 260.486 87.9338C260.488 88.0092 260.481 88.084 260.465 88.1583C260.449 88.2326 260.425 88.3038 260.391 88.3717C260.359 88.4405 260.318 88.5038 260.269 88.5616C260.221 88.6202 260.166 88.6719 260.105 88.7168C260.044 88.7617 259.979 88.7987 259.909 88.8278C259.839 88.8568 259.766 88.8775 259.69 88.8896C259.615 88.901 259.54 88.9034 259.464 88.8967C259.389 88.8893 259.315 88.8734 259.243 88.8491C259.172 88.8241 259.104 88.7912 259.041 88.7506C258.977 88.709 258.919 88.6607 258.867 88.6055C258.815 88.5503 258.77 88.4895 258.732 88.4233C258.695 88.3578 258.666 88.2884 258.646 88.2152C258.625 88.142 258.484 87.2736 258.223 85.6101C257.962 83.9474 257.567 81.3929 257.04 77.9466C256.512 74.5002 255.981 70.7502 255.447 66.6967C254.912 62.6432 254.462 59.3446 254.097 56.8008C253.732 54.2577 253.512 52.4825 253.437 51.4751C253.362 50.4669 253.323 49.9275 253.321 49.8568C253.318 49.7861 253.325 49.7159 253.34 49.6463C253.355 49.5773 253.378 49.5111 253.409 49.4476C253.44 49.3833 253.478 49.3241 253.523 49.2699C253.568 49.2156 253.619 49.1675 253.677 49.1254C253.734 49.0833 253.795 49.0486 253.861 49.0214C253.926 48.9942 253.994 48.975 254.063 48.9639C254.134 48.9536 254.205 48.9516 254.275 48.9577C254.346 48.9639 254.415 48.9789 254.481 49.0026C254.548 49.0257 254.612 49.0562 254.672 49.0942C254.731 49.1329 254.785 49.1781 254.833 49.2298C254.881 49.2815 254.923 49.338 254.957 49.3993C254.993 49.4614 255.019 49.5263 255.038 49.5938C255.057 49.6622 255.096 49.8566 255.155 50.177C255.215 50.4974 255.261 50.8556 255.294 51.2517C255.327 51.6485 255.344 51.8764 255.346 51.9353C255.348 51.9949 255.343 52.0531 255.33 52.1098C255.318 52.168 255.299 52.2237 255.273 52.2766C255.247 52.3297 255.215 52.379 255.177 52.4245C255.14 52.4701 255.097 52.5105 255.049 52.5457C255.002 52.5802 254.951 52.6088 254.896 52.6316C254.842 52.6544 254.785 52.6703 254.726 52.6794C254.667 52.6885 254.608 52.6902 254.55 52.6844C254.491 52.6794 254.435 52.6672 254.379 52.6477C254.323 52.6288 254.27 52.6033 254.22 52.571C254.171 52.5387 254.126 52.501 254.085 52.4579C254.044 52.4148 254.009 52.3675 253.98 52.3161C253.951 52.2648 253.929 52.2105 253.913 52.1534C253.897 52.0963 253.889 52.0678 253.889 52.0678Z" fill="#2563eb"/>
<path d="M279.224 79.0739C279.224 79.0739 279.504 78.8581 280.063 78.4264C280.622 77.9947 281.037 77.3661 281.308 76.5406C281.579 75.7144 281.665 75.0358 281.566 74.5049C281.467 73.9741 281.262 73.599 280.951 73.3798C280.64 73.1599 280.178 73.672 279.565 74.916C278.951 76.1601 278.848 77.4645 279.255 78.8293C279.663 80.1942 280.629 81.4105 282.153 82.4784C283.678 83.5464 285.14 84.3048 286.538 84.7538C287.936 85.2028 289.227 85.4371 290.412 85.4567C291.598 85.4764 292.534 85.4714 293.22 85.4419C293.905 85.4123 294.568 85.2799 295.208 85.0447C295.847 84.8096 296.183 84.6873 296.216 84.6779C296.247 84.6693 296.279 84.6658 296.313 84.6676C296.346 84.6692 296.377 84.6759 296.408 84.6875C296.439 84.6999 296.467 84.7168 296.493 84.7381C296.518 84.7593 296.539 84.7841 296.556 84.8123C296.573 84.8407 296.585 84.8708 296.592 84.9028C296.599 84.9356 296.601 84.9683 296.598 85.0008C296.595 85.0341 296.586 85.0658 296.572 85.0957C296.558 85.1256 296.54 85.1528 296.517 85.1771C296.495 85.2007 296.469 85.2205 296.44 85.2364C296.411 85.2524 296.38 85.263 296.348 85.2684C296.315 85.2738 296.282 85.2737 296.249 85.2681C296.217 85.2634 296.186 85.2533 296.157 85.2379C296.127 85.2225 296.101 85.2027 296.078 85.1785C296.056 85.1544 296.037 85.1275 296.023 85.098C296.009 85.0676 296 85.0362 295.997 85.0038C295.993 84.9706 295.995 84.9379 296.002 84.9057C296.008 84.8735 296.02 84.8429 296.037 84.8141C296.054 84.7861 296.076 84.7612 296.1 84.7394C296.125 84.7176 296.153 84.7007 296.184 84.6889C296.215 84.6763 296.247 84.6693 296.28 84.6678C296.313 84.6656 296.346 84.6688 296.378 84.6775C296.41 84.6861 296.439 84.6996 296.466 84.7179C296.493 84.737 296.517 84.7596 296.537 84.7859C296.557 84.8121 296.573 84.8406 296.584 84.8715C296.595 84.9031 296.6 84.9353 296.6 84.9681C296.6 85.0018 296.595 85.0341 296.585 85.0652C296.574 85.0962 296.558 85.1252 296.539 85.1522C296.519 85.1785 296.495 85.2008 296.469 85.2193C296.441 85.2385 296.427 85.2481 296.427 85.2481C296.427 85.2473 296.101 85.4316 295.449 85.8009C294.797 86.1694 294.089 86.5036 293.327 86.8034C292.563 87.1031 291.496 87.248 290.124 87.2383C288.753 87.2293 287.279 86.9556 285.704 86.4171C284.128 85.8787 282.483 84.9385 280.766 83.5967C279.051 82.2549 277.983 80.6971 277.562 78.9232C277.141 77.1486 277.318 75.5533 278.094 74.1374C278.869 72.7215 279.809 72.114 280.912 72.3149C282.016 72.5158 282.705 73.144 282.98 74.1992C283.255 75.2553 283.131 76.3276 282.607 77.4161C282.083 78.5055 281.434 79.1509 280.659 79.3525C279.885 79.5525 279.486 79.6564 279.462 79.6642C279.437 79.6727 279.412 79.6781 279.386 79.6803C279.36 79.6824 279.335 79.6815 279.31 79.6775C279.285 79.6726 279.261 79.6656 279.237 79.6562C279.213 79.646 279.191 79.6329 279.171 79.6168C279.15 79.6015 279.132 79.584 279.115 79.5644C279.099 79.544 279.085 79.5223 279.074 79.4993C279.063 79.4756 279.055 79.4513 279.05 79.4265C279.045 79.4009 279.042 79.3753 279.043 79.3496C279.044 79.3246 279.049 79.3 279.056 79.2757C279.064 79.2506 279.073 79.2269 279.086 79.2047C279.099 79.1825 279.114 79.1621 279.132 79.1435C279.15 79.1249 279.17 79.1085 279.192 79.0942C279.213 79.0807 279.224 79.0739 279.224 79.0739Z" fill="#2563eb"/>
<path d="M343.402 70.8967C343.402 70.8967 343.359 70.6409 343.274 70.1294C343.189 69.6179 343.065 69.1753 342.901 68.8016C342.738 68.4287 342.343 68.0952 341.718 67.8013C341.092 67.5073 340.032 67.6965 338.539 68.3688C337.045 69.041 335.751 70.2803 334.657 72.0866C333.562 73.893 332.938 75.8863 332.783 78.0668C332.628 80.2472 333.015 82.1534 333.943 83.7856C334.871 85.4168 335.836 86.4499 336.837 86.8849C337.838 87.3199 338.846 86.9758 339.862 85.8528C340.879 84.7298 341.601 82.6047 342.028 79.4777C342.455 76.3507 342.492 72.8479 342.137 68.9694C341.783 65.0908 341.09 61.0104 340.059 56.7281C339.028 52.4466 338.135 49.0973 337.381 46.6803C336.627 44.2641 336.042 42.4502 335.625 41.2386C335.209 40.0263 334.994 39.383 334.98 39.3089C334.967 39.234 334.962 39.1588 334.966 39.0833C334.971 39.0071 334.984 38.9329 335.007 38.8608C335.03 38.7887 335.061 38.7201 335.1 38.6551C335.139 38.5901 335.186 38.5306 335.24 38.4764C335.293 38.4229 335.352 38.3767 335.418 38.3378C335.483 38.298 335.551 38.2668 335.623 38.2441C335.695 38.2216 335.77 38.2081 335.845 38.2038C335.921 38.1996 335.997 38.2043 336.071 38.2179C336.146 38.2315 336.218 38.2538 336.287 38.2848C336.356 38.3159 336.42 38.3547 336.481 38.4013C336.54 38.4486 336.593 38.502 336.64 38.5614C336.687 38.6208 336.726 38.6853 336.757 38.7548C336.788 38.8236 336.873 39.1684 337.01 39.7891C337.146 40.4098 337.35 41.1356 337.619 41.9665C337.889 42.7974 338.028 43.229 338.038 43.2612C338.047 43.2927 338.051 43.3251 338.049 43.3586C338.048 43.3914 338.042 43.4232 338.029 43.4541C338.018 43.485 338.001 43.5131 337.98 43.5384C337.959 43.5646 337.935 43.586 337.907 43.6028C337.878 43.6204 337.848 43.6331 337.816 43.6409C337.784 43.6487 337.751 43.6509 337.718 43.6476C337.685 43.6444 337.654 43.6358 337.623 43.6219C337.593 43.6087 337.566 43.5908 337.541 43.5681C337.517 43.5461 337.497 43.5202 337.481 43.4905C337.465 43.4616 337.454 43.4308 337.449 43.3982C337.443 43.3655 337.442 43.3329 337.447 43.3005C337.452 43.2682 337.463 43.2371 337.477 43.2073C337.493 43.1783 337.512 43.152 337.535 43.1285C337.56 43.1058 337.586 43.0873 337.616 43.073C337.646 43.0587 337.677 43.0493 337.71 43.0448C337.743 43.0409 337.775 43.0426 337.808 43.0497C337.841 43.056 337.871 43.0676 337.9 43.0846C337.928 43.1014 337.953 43.1222 337.975 43.1471C337.997 43.1719 338.014 43.1994 338.027 43.2296C338.039 43.2606 338.047 43.2927 338.049 43.3257C338.051 43.3588 338.048 43.3914 338.039 43.4234C338.031 43.4554 338.018 43.485 338 43.5122C337.982 43.5402 337.959 43.5642 337.933 43.5843C337.907 43.6044 337.878 43.62 337.847 43.631C337.816 43.642 337.784 43.6478 337.751 43.6485C337.718 43.6492 337.685 43.6444 337.653 43.6343C337.622 43.6242 337.593 43.6092 337.566 43.5893C337.54 43.5695 337.517 43.5461 337.498 43.5192C337.48 43.4916 337.471 43.4777 337.471 43.4777C337.471 43.4777 337.224 43.0971 336.731 42.3357C336.238 41.5736 335.827 40.8973 335.496 40.3069C335.166 39.7165 334.994 39.3838 334.98 39.3089C334.967 39.234 334.962 39.1588 334.966 39.0833C334.971 39.0071 334.984 38.9329 335.007 38.8608C335.03 38.7887 335.061 38.7201 335.1 38.6551C335.139 38.5901 335.186 38.5306 335.24 38.4764C335.293 38.4229 335.352 38.3767 335.416 38.3377C335.482 38.298 335.551 38.2668 335.623 38.2441C335.695 38.2216 335.77 38.2081 335.845 38.2038C335.921 38.1995 335.996 38.2042 336.071 38.2179C336.146 38.2315 336.218 38.2538 336.287 38.2848C336.356 38.3159 336.42 38.3547 336.481 38.4013C336.54 38.4479 336.593 38.5012 336.64 38.5614C336.686 38.6207 336.725 38.6852 336.757 38.7548C336.788 38.8236 337.012 39.4638 337.428 40.6754C337.845 41.8878 338.436 43.7222 339.201 46.1786C339.967 48.6359 340.872 52.0506 341.918 56.4227C342.963 60.7949 343.661 64.994 344.01 69.0199C344.361 73.0451 344.251 76.7641 343.682 80.1769C343.114 83.5898 342.17 85.9206 340.849 87.1694C339.528 88.4174 338.042 88.7587 336.392 88.1933C334.742 87.628 333.391 86.3463 332.34 84.3484C331.287 82.3513 330.885 80.1163 331.132 77.6437C331.38 75.172 332.178 72.9418 333.527 70.9532C334.877 68.9647 336.465 67.6585 338.291 67.0345C340.117 66.4098 341.459 66.3657 342.316 66.9024C343.172 67.4389 343.684 67.9701 343.849 68.4958C344.015 69.0223 344.091 69.547 344.076 70.0698C344.061 70.5918 344.054 70.8661 344.052 70.8926C344.051 70.9183 344.046 70.9436 344.039 70.9688C344.031 70.9938 344.021 71.0178 344.007 71.0408C343.993 71.0629 343.977 71.0836 343.959 71.1029C343.941 71.1215 343.92 71.1375 343.898 71.1509C343.875 71.1651 343.852 71.1761 343.827 71.1838C343.802 71.1923 343.776 71.1972 343.75 71.1985C343.723 71.2006 343.697 71.1992 343.672 71.1944C343.646 71.1903 343.622 71.1828 343.598 71.1718C343.574 71.1616 343.551 71.1485 343.53 71.1323C343.509 71.1161 343.49 71.0975 343.475 71.0764C343.458 71.0559 343.444 71.0338 343.433 71.0101C343.422 70.9863 343.414 70.9612 343.409 70.9349C343.404 70.9094 343.402 70.8967 343.402 70.8967Z" fill="#2563eb"/>
<path d="M352.996 65.2638C352.996 65.2638 353.035 65.4891 353.112 65.9395C353.188 66.3899 353.123 67.0932 352.916 68.0494C352.708 69.0056 352.535 70.1982 352.396 71.6275C352.256 73.0574 352.32 74.5043 352.589 75.9681C352.856 77.4319 353.201 78.6098 353.622 79.5019C354.044 80.394 354.483 81.051 354.94 81.4732C355.397 81.8953 355.867 82.0804 356.35 82.0286C356.834 81.976 357.339 81.647 357.867 81.0416C358.394 80.4355 358.852 79.8991 359.24 79.4326C359.628 78.966 360.012 78.4897 360.392 78.0037C360.772 77.5168 361.105 77.1254 361.39 76.8296C361.676 76.5329 361.782 76.2061 361.709 75.8491C361.636 75.4914 361.551 75.1814 361.455 74.9192C361.36 74.6563 361.245 74.3993 361.112 74.1483C360.978 73.8965 360.888 73.5829 360.843 73.2075C360.798 72.8322 360.762 72.6088 360.736 72.5374C360.71 72.4667 360.692 72.3933 360.683 72.3173C360.675 72.2422 360.675 72.1671 360.685 72.0922C360.694 72.0164 360.713 71.9435 360.741 71.8735C360.768 71.8026 360.803 71.736 360.846 71.6737C360.89 71.6115 360.94 71.5555 360.998 71.5055C361.055 71.4556 361.117 71.4132 361.184 71.3783C361.251 71.3435 361.322 71.3172 361.396 71.2994C361.47 71.2816 361.544 71.2729 361.62 71.2734C361.696 71.2738 361.771 71.2835 361.845 71.3025C361.918 71.3207 361.988 71.3479 362.055 71.3843C362.122 71.4198 362.184 71.4627 362.241 71.5129C362.297 71.5638 362.347 71.6207 362.39 71.6836C362.432 71.7465 362.563 71.9777 362.784 72.3773C363.004 72.7769 363.304 73.5479 363.684 74.6902C364.065 75.8333 364.458 77.1247 364.863 78.5645C365.269 80.0051 365.677 81.4017 366.088 82.7544C366.499 84.1078 366.841 85.1814 367.114 85.9752C367.387 86.7689 367.53 87.2032 367.543 87.278C367.556 87.3528 367.56 87.428 367.555 87.5034C367.55 87.5788 367.536 87.6529 367.512 87.7257C367.489 87.7978 367.458 87.8663 367.418 87.9312C367.379 87.9954 367.332 88.0542 367.277 88.1075C367.223 88.1609 367.164 88.2071 367.098 88.246C367.033 88.2842 366.965 88.3146 366.892 88.3372C366.819 88.359 366.745 88.3721 366.67 88.3764C366.594 88.3798 366.518 88.3747 366.444 88.3612C366.369 88.3468 366.297 88.3237 366.229 88.2919C366.16 88.2601 366.096 88.2205 366.036 88.1732C365.977 88.1258 365.923 88.0721 365.877 88.012C365.831 87.9519 365.793 87.8875 365.762 87.8187C365.731 87.7492 365.705 87.4579 365.684 86.9448C365.662 86.4325 365.628 85.9181 365.58 85.4017C365.532 84.886 365.5 84.2967 365.484 83.6339C365.467 82.9703 365.458 82.622 365.456 82.589C365.454 82.5559 365.457 82.5233 365.466 82.4913C365.475 82.4602 365.489 82.4306 365.508 82.4027C365.526 82.3755 365.548 82.3519 365.574 82.3318C365.601 82.3117 365.63 82.2961 365.661 82.2852C365.693 82.275 365.725 82.2699 365.758 82.27C365.791 82.2693 365.823 82.2745 365.855 82.2854C365.886 82.2955 365.915 82.3105 365.941 82.3303C365.967 82.3509 365.99 82.3746 366.009 82.4015C366.027 82.4292 366.041 82.4591 366.049 82.4912C366.059 82.5227 366.063 82.5551 366.061 82.5886C366.059 82.6213 366.052 82.6531 366.04 82.6839C366.027 82.7148 366.01 82.7429 365.989 82.7682C365.968 82.7935 365.943 82.8145 365.915 82.8313C365.887 82.8488 365.856 82.8611 365.823 82.868C365.791 82.8751 365.759 82.877 365.726 82.8738C365.693 82.8697 365.662 82.8607 365.632 82.8468C365.602 82.8329 365.575 82.8146 365.55 82.7919C365.527 82.7692 365.507 82.7434 365.491 82.7144C365.475 82.6855 365.464 82.6547 365.459 82.6221C365.454 82.5895 365.454 82.5566 365.459 82.5235C365.465 82.4912 365.475 82.4605 365.491 82.4315C365.506 82.4018 365.526 82.3755 365.55 82.3529C365.573 82.3301 365.6 82.3116 365.631 82.2974C365.661 82.284 365.692 82.2753 365.725 82.2715C365.758 82.2677 365.791 82.2693 365.823 82.2764C365.855 82.2835 365.885 82.2955 365.914 82.3124C365.942 82.3293 365.967 82.3505 365.989 82.3761C366.01 82.4009 366.027 82.4287 366.04 82.4597C366.051 82.4906 366.057 82.5061 366.057 82.5061C366.057 82.5061 366.191 82.8115 366.458 83.4223C366.725 84.0331 366.951 84.625 367.136 85.198C367.322 85.771 367.433 86.2424 367.469 86.6122C367.505 86.9812 367.53 87.2032 367.543 87.278C367.556 87.3528 367.56 87.428 367.555 87.5034C367.55 87.5788 367.536 87.6529 367.512 87.7257C367.489 87.7978 367.458 87.8663 367.418 87.9312C367.379 87.9954 367.332 88.0542 367.277 88.1075C367.223 88.1609 367.164 88.2071 367.098 88.246C367.033 88.2842 366.965 88.3146 366.892 88.3372C366.819 88.359 366.745 88.3721 366.67 88.3764C366.594 88.3798 366.518 88.3747 366.444 88.3612C366.369 88.3468 366.297 88.3237 366.229 88.2919C366.16 88.2601 366.096 88.2205 366.036 88.1732C365.977 88.1258 365.923 88.0721 365.877 88.012C365.831 87.9527 365.793 87.8883 365.762 87.8187C365.731 87.7492 365.579 87.3176 365.306 86.5238C365.033 85.7301 364.689 84.6505 364.275 83.285C363.861 81.9194 363.455 80.5293 363.058 79.1146C362.659 77.7005 362.293 76.4747 361.958 75.437C361.624 74.4002 361.343 73.6753 361.116 73.2625C360.889 72.8505 360.762 72.6088 360.736 72.5374C360.71 72.4667 360.692 72.3937 360.683 72.3185C360.675 72.2426 360.675 72.1671 360.685 72.0922C360.694 72.0164 360.712 71.9434 360.74 71.8734C360.768 71.8026 360.803 71.736 360.846 71.6737C360.89 71.6115 360.94 71.5555 360.998 71.5055C361.055 71.4556 361.117 71.4132 361.184 71.3783C361.251 71.3435 361.322 71.3172 361.396 71.2994C361.47 71.2816 361.544 71.2729 361.62 71.2734C361.696 71.2738 361.771 71.2835 361.845 71.3025C361.918 71.3207 361.988 71.3479 362.055 71.3843C362.122 71.4198 362.184 71.4627 362.241 71.5129C362.297 71.5638 362.347 71.6207 362.39 71.6836C362.432 71.7465 362.478 71.972 362.527 72.3603C362.577 72.7486 362.686 73.1099 362.855 73.4442C363.025 73.7794 363.172 74.1605 363.296 74.5875C363.421 75.0152 363.464 75.57 363.426 76.2517C363.389 76.9335 363.216 77.4682 362.909 77.8558C362.603 78.2435 362.253 78.6883 361.86 79.1904C361.467 79.6924 361.056 80.1993 360.627 80.7111C360.197 81.2228 359.563 81.8475 358.725 82.5851C357.887 83.3226 357.009 83.6823 356.093 83.6641C355.177 83.646 354.362 83.3106 353.646 82.6581C352.931 82.0048 352.333 81.1466 351.853 80.0836C351.372 79.0214 351.009 77.6735 350.764 76.0397C350.517 74.4058 350.49 72.8323 350.682 71.3192C350.875 69.8052 351.099 68.6625 351.354 67.891C351.609 67.1196 351.729 66.5112 351.713 66.066C351.698 65.6208 351.69 65.3716 351.691 65.3184C351.692 65.2661 351.699 65.2144 351.713 65.1634C351.727 65.1123 351.746 65.0637 351.771 65.0176C351.796 64.9716 351.827 64.9289 351.863 64.8894C351.898 64.8506 351.938 64.8165 351.982 64.7873C352.027 64.758 352.074 64.7344 352.123 64.7166C352.173 64.6988 352.224 64.6874 352.277 64.6824C352.33 64.6767 352.382 64.6775 352.433 64.6849C352.485 64.6924 352.536 64.7056 352.585 64.7245C352.634 64.7442 352.68 64.7695 352.723 64.8003C352.766 64.8311 352.805 64.8666 352.839 64.9068C352.873 64.9477 352.902 64.9917 352.926 65.0386C352.95 65.0856 352.968 65.1351 352.979 65.187C352.991 65.2382 352.996 65.2638 352.996 65.2638Z" fill="#2563eb"/>
<path d="M351.609 68.9313C351.609 68.9313 351.673 68.3758 351.802 67.2648C351.931 66.1539 352.206 65.1766 352.626 64.3329C353.048 63.4902 353.648 62.8591 354.426 62.4396C355.204 62.0192 356.002 61.9495 356.821 62.2304C357.64 62.5105 358.375 63.0046 359.024 63.7125C359.673 64.4204 360.24 65.2164 360.725 66.1005C361.209 66.9839 361.58 67.6659 361.837 68.1466C362.094 68.6282 362.234 68.9608 362.255 69.1444C362.276 69.328 362.393 69.5254 362.606 69.7365C362.82 69.9477 362.937 70.0664 362.956 70.0925C362.975 70.1195 362.99 70.1486 362.999 70.1801C363.009 70.2115 363.013 70.244 363.012 70.2776C363.011 70.3104 363.005 70.3422 362.993 70.3732C362.981 70.4041 362.965 70.4326 362.945 70.4588C362.924 70.4841 362.899 70.5059 362.871 70.5243C362.843 70.5419 362.813 70.5546 362.781 70.5624C362.749 70.5702 362.716 70.5725 362.684 70.5693C362.651 70.5668 362.619 70.5589 362.589 70.5458C362.558 70.5326 362.53 70.5146 362.506 70.4919C362.482 70.4699 362.461 70.4445 362.446 70.4155C362.429 70.3865 362.417 70.356 362.411 70.3241C362.406 70.2915 362.405 70.2586 362.409 70.2253C362.414 70.1929 362.424 70.1618 362.438 70.1319C362.454 70.1029 362.473 70.0767 362.496 70.0531C362.52 70.0304 362.546 70.0119 362.576 69.9976C362.605 69.9825 362.637 69.973 362.669 69.9692C362.702 69.9646 362.735 69.9655 362.767 69.9718C362.8 69.9781 362.83 69.9897 362.859 70.0067C362.888 70.0228 362.913 70.0433 362.935 70.0681C362.957 70.0922 362.975 70.1194 362.988 70.1497C363.001 70.1799 363.009 70.2115 363.012 70.2447C363.014 70.2778 363.011 70.3104 363.003 70.3425C362.995 70.3745 362.981 70.4045 362.964 70.4325C362.945 70.4604 362.923 70.4845 362.898 70.5046C362.872 70.5255 362.843 70.5415 362.812 70.5526C362.781 70.5636 362.75 70.5695 362.717 70.5701C362.683 70.5715 362.65 70.5671 362.619 70.557C362.588 70.5469 362.558 70.5322 362.531 70.5131C362.505 70.4933 362.492 70.4834 362.492 70.4834C362.492 70.4834 362.404 70.393 362.228 70.2122C362.053 70.0322 361.778 69.9143 361.403 69.8587C361.029 69.8031 360.688 69.52 360.381 69.0093C360.073 68.4993 359.714 67.8509 359.306 67.0642C358.896 66.2774 358.464 65.5928 358.008 65.0104C357.551 64.4279 357.073 63.9892 356.573 63.6943C356.072 63.3993 355.594 63.3562 355.139 63.5649C354.685 63.7737 354.267 64.217 353.886 64.8947C353.506 65.5717 353.134 66.437 352.771 67.4904C352.408 68.5432 352.222 69.0817 352.214 69.1059C352.205 69.1301 352.194 69.1528 352.18 69.1741C352.165 69.1954 352.149 69.2145 352.13 69.2314C352.112 69.2492 352.091 69.264 352.069 69.2759C352.047 69.2886 352.023 69.298 351.998 69.3041C351.973 69.3111 351.948 69.3145 351.923 69.3144C351.898 69.315 351.873 69.3126 351.849 69.3071C351.824 69.3014 351.8 69.2928 351.777 69.2813C351.754 69.2696 351.733 69.2558 351.713 69.2397C351.694 69.223 351.677 69.2041 351.663 69.1831C351.647 69.1628 351.635 69.1409 351.626 69.1173C351.616 69.0936 351.61 69.0691 351.606 69.0437C351.603 69.0184 351.603 68.9933 351.605 68.9685C351.608 68.9437 351.609 68.9313 351.609 68.9313Z" fill="#2563eb"/>
<path d="M375.829 68.1855C375.829 68.1855 375.889 68.7208 376.01 69.7914C376.131 70.862 376.292 72.0523 376.493 73.3625C376.694 74.6718 377.007 75.8791 377.434 76.9845C377.86 78.0891 378.457 78.9314 379.223 79.5115C379.989 80.0916 381.068 80.2083 382.459 79.8617C383.852 79.5159 385.164 78.7299 386.395 77.5036C387.626 76.2772 388.555 75.0311 389.184 73.765C389.812 72.4981 390.253 71.4727 390.509 70.6887C390.764 69.9056 390.91 69.4875 390.945 69.4346C390.98 69.3818 391.021 69.3338 391.068 69.2906C391.114 69.2475 391.165 69.2106 391.221 69.1801C391.276 69.1496 391.335 69.126 391.397 69.1094C391.458 69.0935 391.52 69.0847 391.584 69.0832C391.647 69.0816 391.71 69.0878 391.772 69.1017C391.834 69.1156 391.893 69.1367 391.95 69.165C392.007 69.194 392.059 69.2289 392.108 69.2697C392.156 69.3112 392.199 69.3577 392.236 69.4091C392.273 69.4605 392.304 69.5155 392.328 69.5742C392.351 69.6328 392.367 69.6939 392.376 69.7574C392.385 69.8193 392.387 69.8817 392.38 69.9445C392.373 70.0079 392.359 70.0696 392.339 70.1293C392.317 70.189 392.603 71.5161 393.197 74.1106C393.79 76.7042 394.477 80.5223 395.258 85.5649C396.038 90.6066 396.561 95.6781 396.826 100.78C397.093 105.882 397.016 110.424 396.596 114.407C396.176 118.391 395.236 121.484 393.774 123.686C392.312 125.889 390.351 126.466 387.889 125.416C385.427 124.366 383.471 123.253 382.021 122.077C380.571 120.901 378.883 119.338 376.957 117.388C375.03 115.438 374.058 114.449 374.039 114.421C374.02 114.395 374.006 114.365 373.996 114.334C373.986 114.302 373.982 114.27 373.984 114.236C373.985 114.204 373.991 114.172 374.003 114.141C374.014 114.11 374.031 114.081 374.051 114.055C374.072 114.03 374.097 114.009 374.124 113.991C374.153 113.973 374.183 113.961 374.215 113.953C374.247 113.945 374.28 113.942 374.313 113.945C374.346 113.948 374.377 113.956 374.408 113.97C374.438 113.983 374.465 114.001 374.49 114.023C374.514 114.045 374.534 114.071 374.55 114.1C374.566 114.129 374.577 114.159 374.583 114.192C374.59 114.225 374.59 114.257 374.586 114.29C374.581 114.323 374.571 114.354 374.556 114.383C374.542 114.413 374.522 114.439 374.498 114.462C374.475 114.485 374.448 114.504 374.419 114.519C374.389 114.534 374.358 114.543 374.324 114.547C374.292 114.552 374.259 114.551 374.227 114.544C374.194 114.537 374.164 114.526 374.136 114.51C374.107 114.493 374.081 114.472 374.059 114.448C374.038 114.423 374.02 114.395 374.007 114.364C373.994 114.334 373.986 114.302 373.984 114.269C373.982 114.236 373.985 114.204 373.993 114.172C374.001 114.139 374.014 114.109 374.032 114.082C374.05 114.054 374.072 114.03 374.098 114.009C374.124 113.989 374.153 113.973 374.184 113.961C374.214 113.95 374.247 113.945 374.28 113.944C374.313 113.943 374.345 113.948 374.376 113.958C374.408 113.968 374.438 113.983 374.465 114.002C374.491 114.022 374.504 114.032 374.504 114.032C374.504 114.032 375.454 114.995 377.354 116.923C379.252 118.85 380.955 120.272 382.462 121.189C383.968 122.107 385.936 123.028 388.365 123.952C390.795 124.877 392.36 124.471 393.058 122.733C393.756 120.997 394.311 118.195 394.723 114.328C395.134 110.46 395.21 106.008 394.95 100.969C394.69 95.9303 394.185 90.8996 393.434 85.8772C392.683 80.8548 392.072 76.872 391.6 73.9288C391.128 70.9856 390.91 69.4875 390.945 69.4346C390.98 69.3817 391.021 69.3337 391.068 69.2906C391.114 69.2475 391.165 69.2106 391.221 69.1801C391.276 69.1496 391.335 69.126 391.397 69.1094C391.458 69.0935 391.52 69.0847 391.584 69.0832C391.647 69.0816 391.71 69.0878 391.772 69.1017C391.834 69.1156 391.893 69.1367 391.95 69.165C392.007 69.194 392.059 69.2289 392.108 69.2697C392.156 69.3112 392.199 69.3577 392.236 69.4091C392.273 69.4605 392.304 69.5155 392.328 69.5742C392.351 69.6328 392.367 69.6939 392.376 69.7574C392.385 69.8193 392.387 69.8817 392.38 69.9445C392.373 70.0079 392.359 70.0696 392.339 70.1293C392.317 70.189 392.181 70.6119 391.931 71.3979C391.682 72.1833 391.2 73.2858 390.487 74.7055C389.774 76.1252 388.687 77.5249 387.224 78.9045C385.761 80.2832 384.159 81.1193 382.417 81.4128C380.675 81.7062 379.271 81.4322 378.203 80.5908C377.136 79.7487 376.376 78.6966 375.925 77.4346C375.473 76.1733 375.167 74.8506 375.009 73.4664C374.85 72.0822 374.838 70.8553 374.973 69.7856C375.107 68.715 375.176 68.167 375.179 68.1415C375.183 68.116 375.189 68.0908 375.199 68.0659C375.208 68.041 375.22 68.018 375.236 67.9968C375.251 67.9748 375.268 67.9554 375.289 67.9386C375.308 67.921 375.33 67.9063 375.353 67.8945C375.376 67.8819 375.4 67.8725 375.426 67.8665C375.452 67.8604 375.478 67.8575 375.504 67.8577C375.53 67.8579 375.556 67.8612 375.581 67.8676C375.607 67.8741 375.631 67.8835 375.654 67.896C375.677 67.9084 375.698 67.9234 375.718 67.941C375.738 67.9586 375.755 67.9783 375.77 68C375.785 68.0219 375.797 68.045 375.806 68.0694C375.815 68.0945 375.822 68.1202 375.824 68.1463C375.827 68.1724 375.829 68.1855 375.829 68.1855Z" fill="#2563eb"/>
</svg>
