<svg width="297" height="136" viewBox="0 0 297 136" fill="none" xmlns="http://www.w3.org/2000/svg">
<path d="M18.2742 69.326C18.2742 69.326 18.138 69.3672 17.8656 69.4496C17.5927 69.5314 17.3851 69.953 17.243 70.7142C17.1009 71.4754 16.9679 72.4022 16.8441 73.4945C16.7203 74.5868 16.6462 75.6447 16.622 76.6681C16.5973 77.6915 16.6061 78.6207 16.6487 79.4557C16.6912 80.2907 16.7281 80.9152 16.7593 81.3292C16.7911 81.7432 16.8172 81.9738 16.8376 82.0212C16.8581 82.0686 16.8662 82.1448 16.8619 82.2498C16.8576 82.3547 16.8406 82.4576 16.811 82.5582C16.7819 82.6589 16.741 82.7547 16.6882 82.8457C16.636 82.9367 16.5736 83.0199 16.5009 83.0952C16.4282 83.1711 16.3475 83.2371 16.2586 83.2931C16.1698 83.3491 16.0756 83.3935 15.976 83.4263C15.8764 83.4597 15.7744 83.4804 15.6699 83.4885C15.5655 83.4971 15.4616 83.4931 15.3582 83.4764C15.2543 83.4592 15.1542 83.4301 15.0578 83.3892C14.9615 83.3477 14.8713 83.2955 14.7873 83.2325C14.7033 83.1695 14.6282 83.0974 14.562 83.0161C14.4958 82.9348 14.4401 82.8468 14.3949 82.752C14.3502 82.6573 14.3173 82.5585 14.2963 82.4557C14.2753 82.3528 14.2331 81.7456 14.1696 80.6339C14.106 79.5216 14.1031 78.2433 14.1607 76.7989C14.2183 75.3545 14.3251 74.1104 14.4813 73.0665C14.6374 72.0227 15.0519 71.024 15.7249 70.0706C16.3978 69.1172 17.162 68.6394 18.0174 68.6372C18.8734 68.6351 19.7717 69.0547 20.7122 69.8962C21.6532 70.7371 22.5663 71.7387 23.4513 72.901C24.3364 74.0627 25.0844 74.9957 25.6954 75.6999C26.307 76.4035 26.5258 76.8904 26.3519 77.1607C26.1786 77.431 26.2602 77.2886 26.5966 76.7335C26.9326 76.1785 27.2198 75.522 27.4583 74.764C27.6962 74.006 27.9492 73.2226 28.2173 72.414C28.4849 71.6049 29.019 70.9699 29.8195 70.5091C30.62 70.0477 31.3118 69.9592 31.8948 70.2434C32.4773 70.5277 33.1304 71.2447 33.8539 72.3947C34.578 73.5451 35.2081 74.6856 35.7443 75.8162C36.2805 76.9467 36.796 78.0888 37.2907 79.2425C37.786 80.3967 38.1879 81.352 38.4964 82.1084C38.8054 82.8648 38.961 83.4139 38.9631 83.7558C38.9653 84.0976 39.0469 84.3448 39.2078 84.4971C39.3688 84.6489 39.4665 84.7399 39.501 84.7701C39.5354 84.7997 39.5642 84.8344 39.5874 84.8742C39.6105 84.9135 39.6269 84.9555 39.6366 85.0002C39.6458 85.0449 39.6477 85.0901 39.6423 85.1359C39.6369 85.1811 39.6245 85.2244 39.6051 85.2659C39.5852 85.3073 39.5594 85.3445 39.5276 85.3773C39.4958 85.4102 39.4598 85.4371 39.4194 85.4581C39.3785 85.4791 39.3354 85.4931 39.2902 85.5001C39.245 85.5071 39.2 85.5065 39.1553 85.4984C39.1101 85.4909 39.0673 85.4761 39.0269 85.454C38.9871 85.4325 38.9516 85.4048 38.9203 85.3709C38.8891 85.3375 38.8641 85.3001 38.8452 85.2586C38.8264 85.2166 38.8148 85.1727 38.8105 85.127C38.8057 85.0818 38.8084 85.0368 38.8186 84.9921C38.8288 84.9474 38.846 84.9057 38.8703 84.867C38.8945 84.8277 38.9241 84.7935 38.9591 84.7644C38.9941 84.7353 39.0329 84.7124 39.0754 84.6958C39.1185 84.6791 39.1629 84.6699 39.2086 84.6683C39.2544 84.6661 39.2991 84.6713 39.3427 84.6836C39.3868 84.6966 39.4277 84.7159 39.4654 84.7418C39.5031 84.7682 39.5354 84.7997 39.5623 84.8363C39.5898 84.8729 39.6105 84.913 39.6245 84.9566C39.639 85.0002 39.646 85.0449 39.6455 85.0906C39.645 85.1364 39.6372 85.1808 39.6221 85.2239C39.607 85.267 39.5855 85.3065 39.5575 85.3426C39.5295 85.3787 39.4964 85.4093 39.4582 85.4346C39.4199 85.46 39.3788 85.4785 39.3346 85.4904C39.2905 85.5022 39.2455 85.5068 39.1997 85.5041C39.154 85.5009 39.1101 85.4906 39.0681 85.4734C39.0256 85.4562 39.0043 85.4476 39.0043 85.4476C39.0043 85.4476 38.8361 85.3913 38.4996 85.2788C38.1631 85.1663 37.7588 84.9668 37.2867 84.6804C36.8146 84.3946 36.421 83.8767 36.1061 83.1267C35.7912 82.3773 35.3928 81.4401 34.911 80.3149C34.4291 79.1903 33.9382 78.0972 33.438 77.0355C32.9384 75.9744 32.4057 74.898 31.8399 73.8062C31.2747 72.7139 30.8749 72.55 30.6407 73.3144C30.4066 74.0794 30.1172 74.9462 29.7726 75.9147C29.4286 76.8832 29.0246 77.6638 28.5605 78.2565C28.097 78.8492 27.3355 79.0387 26.276 78.825C25.2166 78.6118 24.3555 78.1246 23.6928 77.3634C23.0295 76.6022 22.2922 75.6829 21.4809 74.6057C20.6696 73.529 20.0002 72.6679 19.4726 72.0224C18.9456 71.3769 18.4853 70.996 18.0917 70.8797C17.6993 70.7634 17.4659 70.9115 17.3916 71.3239C17.3168 71.7363 17.2088 72.4089 17.0678 73.3419C16.9262 74.2749 16.8263 75.4207 16.7682 76.7795C16.71 78.1383 16.7122 79.3636 16.7746 80.4554C16.8371 81.5467 16.8662 82.1448 16.8619 82.2498C16.8576 82.3547 16.8406 82.4576 16.811 82.5582C16.7819 82.6589 16.7413 82.7547 16.689 82.8457C16.6363 82.9362 16.5736 83.0193 16.5009 83.0952C16.4282 83.1706 16.3475 83.2363 16.2586 83.2923C16.1698 83.3488 16.0759 83.3935 15.9768 83.4263C15.8772 83.4597 15.7749 83.4804 15.6699 83.4885C15.5655 83.4971 15.4616 83.4931 15.3582 83.4764C15.2543 83.4592 15.1542 83.4301 15.0578 83.3892C14.9615 83.3477 14.8713 83.2955 14.7873 83.2325C14.7033 83.1695 14.6282 83.0974 14.562 83.0161C14.4958 82.9348 14.4403 82.8468 14.3957 82.752C14.3504 82.6573 14.3173 82.5585 14.2963 82.4557C14.2753 82.3528 14.2573 82.2872 14.2422 82.2586C14.2272 82.2306 14.2002 81.9865 14.1615 81.5262C14.1233 81.0659 14.0826 80.3811 14.0395 79.4718C13.997 78.5626 14.0024 77.5553 14.0557 76.4501C14.1095 75.3448 14.2328 74.1704 14.4255 72.9268C14.6183 71.6838 14.9564 70.543 15.4398 69.5045C15.9232 68.4671 16.4123 67.8625 16.9071 67.6908C17.4018 67.5191 17.6885 67.4254 17.7671 67.4098C17.8457 67.3936 17.9248 67.3874 18.0045 67.3912C18.0842 67.3944 18.1625 67.4074 18.2395 67.43C18.3165 67.4526 18.3897 67.4841 18.4592 67.5244C18.5281 67.5643 18.5913 67.6122 18.6489 67.6682C18.7065 67.7236 18.7569 67.7853 18.7999 67.8531C18.8425 67.9215 18.8764 67.9936 18.9017 68.0695C18.9264 68.1454 18.9421 68.2235 18.9485 68.3037C18.9544 68.3829 18.9509 68.462 18.938 68.5411C18.9251 68.6203 18.9028 68.6964 18.871 68.7697C18.8392 68.8434 18.7991 68.9123 18.7507 68.9764C18.7022 69.0405 18.647 69.0978 18.5851 69.1484C18.5227 69.1985 18.4554 69.2407 18.3832 69.2752C18.3106 69.3091 18.2742 69.326 18.2742 69.326Z" fill="black"/>
<path d="M46.8727 73.8454C46.8727 73.8454 46.771 73.6376 46.5675 73.222C46.3634 72.8064 46.1702 72.4732 45.9877 72.2223C45.8052 71.9714 45.5233 71.8191 45.1422 71.7652C44.7605 71.7114 44.4488 71.7819 44.2071 71.9768C43.9648 72.1717 43.7643 72.6069 43.6054 73.2826C43.4461 73.9577 43.4431 74.6971 43.5966 75.5009C43.7495 76.3046 44.0108 76.9245 44.3807 77.3606C44.7505 77.7967 45.077 78.0392 45.3602 78.0882C45.6439 78.1366 45.9516 77.9633 46.2832 77.5681C46.6143 77.173 46.8716 76.7157 47.0552 76.1961C47.2377 75.6772 47.3882 75.1612 47.5066 74.6481C47.6251 74.1356 47.7096 73.836 47.7602 73.7493C47.8103 73.6616 47.8703 73.5814 47.9403 73.5087C48.0103 73.436 48.0878 73.3728 48.1728 73.3189C48.2579 73.2651 48.3483 73.2223 48.4442 73.1905C48.54 73.1582 48.638 73.138 48.7381 73.13C48.8388 73.1219 48.9389 73.1259 49.0385 73.1421C49.1381 73.1582 49.2342 73.1862 49.3268 73.2261C49.4194 73.2654 49.5061 73.3152 49.5868 73.3754C49.6676 73.4363 49.7397 73.5057 49.8032 73.5838C49.8673 73.6619 49.9209 73.7461 49.9639 73.8365C50.007 73.9281 50.0388 74.0231 50.0592 74.1216C50.0791 74.2207 50.0872 74.3205 50.0834 74.4212C50.0791 74.5219 50.063 74.6207 50.035 74.7176C50.007 74.8145 50.0135 74.6543 50.0544 74.2371C50.0948 73.8209 50.3354 73.8847 50.7763 74.4285C51.2172 74.9722 51.5763 75.4096 51.8536 75.7407C52.1308 76.0713 52.3889 76.2912 52.628 76.4005C52.8675 76.5097 53.0062 76.5517 53.0439 76.5264C53.0821 76.5006 53.1233 76.4817 53.1674 76.4699C53.2115 76.4581 53.2565 76.4538 53.3023 76.457C53.348 76.4597 53.3919 76.4696 53.4339 76.4869C53.4764 76.5041 53.5149 76.5278 53.5494 76.5579C53.5844 76.5875 53.6134 76.622 53.6366 76.6613C53.6597 76.7011 53.6761 76.7434 53.6858 76.7881C53.695 76.8328 53.6971 76.8777 53.6923 76.9229C53.6869 76.9687 53.6743 77.0123 53.6543 77.0537C53.635 77.0947 53.6094 77.1318 53.5776 77.1652C53.5459 77.198 53.5098 77.2249 53.4694 77.2459C53.4285 77.2669 53.3854 77.2809 53.3402 77.2879C53.295 77.2949 53.25 77.2947 53.2054 77.2871C53.1601 77.279 53.1173 77.2642 53.077 77.2427C53.0366 77.2212 53.0008 77.1934 52.9696 77.1595C52.9383 77.1262 52.9133 77.0887 52.8945 77.0473C52.8756 77.0053 52.864 76.9617 52.8597 76.9165C52.8549 76.8707 52.8576 76.8255 52.8678 76.7808C52.878 76.7367 52.8953 76.6949 52.9195 76.6556C52.9432 76.6169 52.9725 76.5827 53.0075 76.5531C53.043 76.524 53.0821 76.5011 53.1246 76.4844C53.1671 76.4677 53.2113 76.4583 53.257 76.4562C53.3028 76.454 53.3478 76.4594 53.3919 76.4723C53.4355 76.4847 53.4762 76.5038 53.5138 76.5297C53.5515 76.556 53.5841 76.5875 53.6115 76.6241C53.639 76.6607 53.6597 76.7009 53.6737 76.7445C53.6883 76.7875 53.6953 76.8319 53.6947 76.8777C53.6942 76.9235 53.6866 76.9681 53.6721 77.0118C53.657 77.0548 53.6355 77.0944 53.6075 77.1305C53.5795 77.1665 53.5655 77.1846 53.5655 77.1846C53.5655 77.1846 53.4522 77.3216 53.2255 77.5956C52.9989 77.8696 52.7071 78.1256 52.3502 78.3636C51.9933 78.601 51.5666 78.5846 51.0703 78.3143C50.5744 78.044 50.1577 77.7159 49.8202 77.3299C49.4821 76.9439 49.2283 76.5921 49.0587 76.2745C48.8886 75.9569 48.617 75.4783 48.2439 74.8387C47.8708 74.1991 47.7096 73.836 47.7602 73.7493C47.8103 73.6621 47.8703 73.5819 47.9403 73.5087C48.0103 73.436 48.0878 73.3728 48.1728 73.3189C48.2579 73.2651 48.3483 73.2223 48.4442 73.1905C48.5395 73.1582 48.6374 73.138 48.7381 73.13C48.8388 73.1219 48.9389 73.1259 49.0385 73.1421C49.1381 73.1582 49.2342 73.1862 49.3268 73.2261C49.4194 73.2654 49.5061 73.3152 49.5868 73.3754C49.6676 73.4363 49.7397 73.5057 49.8032 73.5838C49.8673 73.6619 49.9209 73.7461 49.9639 73.8365C50.007 73.9275 50.0388 74.0225 50.0592 74.1216C50.0791 74.2201 50.0872 74.32 50.0834 74.4212C50.0791 74.5219 50.063 74.6207 50.035 74.7176C50.007 74.8145 49.9373 75.1194 49.8258 75.6325C49.7144 76.145 49.4662 76.8083 49.0813 77.6222C48.6969 78.4368 48.1023 79.1202 47.2975 79.6726C46.4921 80.2249 45.6111 80.3894 44.6544 80.166C43.6978 79.9425 42.9018 79.3945 42.2666 78.5218C41.6308 77.6497 41.2561 76.6018 41.1425 75.3781C41.0289 74.155 41.2165 73.0247 41.7053 71.9873C42.1942 70.9499 42.834 70.2759 43.6248 69.9653C44.4157 69.6546 45.2175 69.688 46.0305 70.0654C46.8434 70.4428 47.3683 70.9141 47.6051 71.4794C47.842 72.0446 47.9206 72.5604 47.8409 73.0266C47.7618 73.4928 47.7225 73.7431 47.723 73.7776C47.7236 73.8115 47.7201 73.8454 47.7125 73.8793C47.705 73.9127 47.6934 73.945 47.6778 73.9763C47.6622 74.0069 47.6434 74.0355 47.6213 74.0618C47.5987 74.0877 47.5734 74.1108 47.5454 74.1313C47.5174 74.1512 47.4875 74.1676 47.4557 74.1806C47.4234 74.1935 47.3903 74.2024 47.3564 74.2072C47.3225 74.212 47.2886 74.2126 47.2547 74.2088C47.2202 74.2056 47.1868 74.1981 47.1545 74.1862C47.1222 74.1749 47.0916 74.1596 47.0625 74.1402C47.0339 74.1213 47.0078 74.0993 46.9841 74.074C46.961 74.0487 46.9411 74.0207 46.9244 73.99C46.9077 73.9598 46.8951 73.9281 46.8864 73.8947C46.8773 73.8619 46.8727 73.8454 46.8727 73.8454Z" fill="black"/>
<path d="M53.4108 58.0832C53.4108 58.0832 53.5376 58.1729 53.7912 58.3521C54.0447 58.5319 54.5163 59.3325 55.206 60.7537C55.8956 62.1755 56.5459 63.8191 57.157 65.6845C57.7675 67.5504 58.3211 69.5491 58.818 71.6804C59.3144 73.8117 59.7036 75.5267 59.9857 76.8252C60.2678 78.1237 60.4606 79.0669 60.5639 79.6548C60.6678 80.2421 60.7949 80.6076 60.9451 80.7514C61.0953 80.8951 61.1755 81.0192 61.1857 81.1237C61.196 81.2281 61.1935 81.3323 61.1785 81.4362C61.1634 81.5401 61.1362 81.6405 61.0969 81.7374C61.0576 81.8348 61.007 81.9261 60.9451 82.0111C60.8837 82.0962 60.8129 82.1724 60.7327 82.2397C60.6525 82.3075 60.5653 82.3648 60.4711 82.4117C60.3774 82.458 60.2794 82.4924 60.1771 82.515C60.0743 82.5382 59.9704 82.5484 59.8654 82.5457C59.761 82.5436 59.6581 82.5285 59.5569 82.5005C59.4552 82.473 59.3586 82.434 59.267 82.3834C59.1755 82.3323 59.0913 82.2712 59.0143 82.2001C58.9373 82.1285 58.87 82.0488 58.8124 81.9611C58.7548 81.8733 58.7085 81.7799 58.6735 81.6808C58.6385 81.5823 58.6966 81.1411 58.8479 80.3573C58.9997 79.574 59.2011 78.7802 59.452 77.9759C59.7034 77.1716 60.0616 76.3743 60.5268 75.584C60.9919 74.7937 61.4016 74.1883 61.7558 73.7679C62.1106 73.3479 62.3774 73.0798 62.5561 72.9636C62.7348 72.8473 62.863 72.7536 62.9405 72.6825C63.018 72.612 63.1028 72.5517 63.1949 72.5017C63.2875 72.4516 63.3844 72.4134 63.4856 72.387C63.5873 72.3601 63.6907 72.3461 63.7957 72.345C63.9006 72.3434 64.004 72.3544 64.1058 72.3781C64.208 72.4018 64.306 72.4373 64.3997 72.4847C64.4934 72.5321 64.58 72.5899 64.6597 72.6583C64.7389 72.7267 64.8088 72.8037 64.8697 72.8893C64.9305 72.9749 64.9803 73.0664 65.0191 73.1638C65.0578 73.2613 65.0842 73.3619 65.0982 73.4658C65.1122 73.5698 65.1138 73.6739 65.103 73.7784C65.0917 73.8828 65.0681 73.9843 65.032 74.0828C64.9965 74.1813 64.9494 74.2742 64.8907 74.3614C64.8325 74.4486 64.7332 74.9388 64.5927 75.8319C64.4522 76.7256 64.3192 77.4201 64.1938 77.9153C64.0689 78.4106 64.152 78.8941 64.4433 79.3657C64.7345 79.8378 65.1224 80.2176 65.6069 80.5051C66.0909 80.7931 66.7006 80.9565 67.436 80.9953C68.1709 81.034 68.9835 80.914 69.8739 80.6351C70.7644 80.3562 71.6209 80.0023 72.4435 79.5732C73.2661 79.1436 73.9038 78.7907 74.3565 78.5145C74.8093 78.2378 75.2402 77.9183 75.6494 77.556C76.0585 77.1937 76.2803 76.9974 76.3148 76.9673C76.3492 76.9377 76.3877 76.9143 76.4303 76.897C76.4728 76.8798 76.5167 76.8696 76.5619 76.8664C76.6077 76.8637 76.6526 76.8682 76.6968 76.8801C76.7409 76.8919 76.7821 76.9105 76.8203 76.9358C76.8585 76.9611 76.8916 76.9918 76.9196 77.0279C76.9476 77.0639 76.9692 77.1035 76.9842 77.1466C76.9993 77.1902 77.0071 77.2349 77.0077 77.2806C77.0077 77.3264 77.0007 77.3711 76.9867 77.4147C76.9727 77.4577 76.9519 77.4976 76.9245 77.5342C76.897 77.5713 76.8644 77.6028 76.8268 77.6287C76.7891 77.6545 76.7482 77.6739 76.704 77.6868C76.6604 77.6992 76.6157 77.7043 76.57 77.7021C76.5242 77.7005 76.4801 77.6914 76.4375 77.6747C76.3945 77.658 76.3554 77.6351 76.3204 77.6061C76.2854 77.5764 76.2558 77.5423 76.2316 77.5035C76.2079 77.4642 76.191 77.4225 76.1807 77.3783C76.1705 77.3336 76.1676 77.2884 76.1719 77.2427C76.1767 77.1974 76.1885 77.1538 76.2074 77.1118C76.2262 77.0704 76.2513 77.0327 76.2825 76.9988C76.3132 76.9654 76.3487 76.938 76.3891 76.9164C76.4295 76.8943 76.4723 76.8795 76.5175 76.872C76.5622 76.8639 76.6071 76.8634 76.6523 76.8704C76.6976 76.8774 76.7406 76.8914 76.7815 76.9124C76.8219 76.9334 76.858 76.9606 76.8898 76.9939C76.9215 77.0268 76.9474 77.0639 76.9673 77.1054C76.9867 77.1463 76.999 77.1896 77.0044 77.2354C77.0098 77.2806 77.0077 77.3256 76.998 77.3703C76.9888 77.4155 76.9727 77.4577 76.9495 77.497C76.9264 77.5363 76.9148 77.556 76.9148 77.556C76.9148 77.556 76.7506 77.8171 76.4222 78.3393C76.0938 78.861 75.7304 79.3544 75.332 79.8195C74.9336 80.2852 74.2701 80.8841 73.3415 81.6162C72.4128 82.3489 71.3434 82.8698 70.1332 83.1788C68.9224 83.4873 67.7606 83.5562 66.6479 83.3855C65.5351 83.2143 64.587 82.827 63.8037 82.2235C63.021 81.6195 62.4401 80.8386 62.0611 79.8809C61.6826 78.9231 61.5588 78.1048 61.6896 77.426C61.8204 76.7466 61.9714 76.1436 62.1426 75.6171C62.3138 75.0906 62.4702 74.4876 62.6118 73.8082C62.7534 73.1288 62.863 72.7536 62.9405 72.6825C63.018 72.612 63.1028 72.5517 63.1949 72.5017C63.2875 72.4516 63.3844 72.4134 63.4856 72.387C63.5873 72.3601 63.6904 72.3461 63.7949 72.345C63.8998 72.3434 64.0035 72.3544 64.1058 72.3781C64.208 72.4018 64.306 72.4373 64.3997 72.4847C64.4934 72.5321 64.58 72.5899 64.6597 72.6583C64.7389 72.7267 64.8088 72.8037 64.8697 72.8893C64.9305 72.9749 64.9803 73.0664 65.0191 73.1638C65.0578 73.2613 65.0842 73.3619 65.0982 73.4658C65.1122 73.5698 65.1138 73.6739 65.103 73.7784C65.0917 73.8828 65.0681 73.9843 65.032 74.0828C64.9965 74.1813 64.9494 74.2742 64.8907 74.3614C64.8325 74.4486 64.7106 74.5536 64.5249 74.6763C64.3391 74.7991 64.1141 75.0098 63.8498 75.3086C63.5854 75.6074 63.2632 76.0583 62.8832 76.6612C62.5036 77.2642 62.1957 77.9425 61.9593 78.6962C61.7235 79.4499 61.5332 80.0168 61.3884 80.3969C61.2431 80.777 61.1755 81.0192 61.1857 81.1237C61.196 81.2281 61.1935 81.3323 61.1785 81.4362C61.1634 81.5401 61.1362 81.6405 61.0969 81.7374C61.0576 81.8348 61.007 81.9261 60.9451 82.0111C60.8837 82.0956 60.8129 82.1718 60.7327 82.2397C60.6525 82.3075 60.5655 82.3648 60.4719 82.4117C60.3777 82.458 60.2794 82.4924 60.1771 82.515C60.0743 82.5382 59.9707 82.5484 59.8662 82.5457C59.7612 82.5436 59.6581 82.5288 59.5569 82.5013C59.4557 82.4738 59.3591 82.4345 59.267 82.3834C59.1755 82.3323 59.0913 82.2712 59.0143 82.2001C58.9373 82.1285 58.87 82.0488 58.8124 81.9611C58.7548 81.8733 58.7085 81.7802 58.6735 81.6817C58.6385 81.5826 58.5868 81.5239 58.5185 81.5056C58.4495 81.4878 58.3222 81.1202 58.1365 80.4025C57.9502 79.6854 57.7171 78.6828 57.4372 77.3945C57.1572 76.1057 56.7839 74.429 56.3171 72.3644C55.8504 70.2993 55.34 68.376 54.7861 66.5946C54.2321 64.8132 53.7005 63.3141 53.1912 62.0974C52.6819 60.8808 52.3452 60.1505 52.181 59.9066C52.0168 59.6633 51.9091 59.5085 51.8579 59.4423C51.8068 59.3766 51.7645 59.3055 51.7312 59.2291C51.6973 59.1527 51.673 59.0735 51.6585 58.9917C51.644 58.9093 51.6394 58.827 51.6448 58.7446C51.6501 58.6611 51.6658 58.5796 51.6916 58.4999C51.7169 58.4208 51.7514 58.3457 51.795 58.2746C51.8386 58.203 51.89 58.1381 51.9492 58.08C52.0084 58.0213 52.0738 57.9704 52.1454 57.9274C52.217 57.8848 52.2927 57.8515 52.3723 57.8272C52.4526 57.803 52.5341 57.7885 52.617 57.7836C52.6999 57.7793 52.7823 57.785 52.8641 57.8006C52.9465 57.8162 53.0256 57.8412 53.1015 57.8757C53.1769 57.9107 53.2474 57.954 53.3131 58.0057C53.3783 58.0574 53.4108 58.0832 53.4108 58.0832Z" fill="black"/>
<path d="M77.3575 73.7145C77.3575 73.7145 77.6342 73.4927 78.1876 73.0491C78.7416 72.605 79.2156 72.093 79.6097 71.5132C80.0043 70.9334 80.2961 70.5414 80.485 70.3374C80.674 70.1334 80.3696 70.216 79.5717 70.5853C78.7739 70.9552 78.2207 71.5132 77.9123 72.2593C77.6043 73.0055 77.6695 73.8276 78.1077 74.7255C78.5464 75.6246 79.499 76.3931 80.9655 77.031C82.4325 77.669 84.0629 77.9667 85.8567 77.9241C87.6511 77.8816 89.2031 77.7244 90.5129 77.4526C91.8228 77.1807 93.2793 76.7777 94.8825 76.2437C96.4862 75.7102 97.3097 75.4362 97.3527 75.4216C97.3963 75.4071 97.441 75.3998 97.4868 75.3998C97.5325 75.3998 97.5769 75.4071 97.62 75.4216C97.6636 75.4367 97.7035 75.458 97.7395 75.4854C97.7761 75.5134 97.8071 75.5462 97.8324 75.5839C97.8582 75.6222 97.8773 75.6633 97.8897 75.7075C97.9016 75.7516 97.9064 75.7963 97.9043 75.8415C97.9016 75.8873 97.8916 75.9314 97.8744 75.974C97.8577 76.0165 97.8343 76.0553 97.8041 76.0902C97.7745 76.1247 97.7401 76.1538 97.7008 76.1775C97.662 76.2011 97.6203 76.2178 97.5756 76.2275C97.5304 76.2372 97.4852 76.2396 97.4399 76.2348C97.3947 76.2294 97.3511 76.2173 97.3091 76.1985C97.2677 76.1791 97.2305 76.1535 97.1977 76.1217C97.1643 76.0905 97.1368 76.0544 97.1153 76.0135C97.0943 75.9732 97.08 75.9304 97.0725 75.8851C97.0655 75.8399 97.0658 75.795 97.0733 75.7503C97.0803 75.7051 97.0946 75.6623 97.1161 75.6219C97.1376 75.5815 97.1651 75.5454 97.1985 75.5137C97.2319 75.4824 97.2693 75.4574 97.3107 75.4386C97.3522 75.4192 97.3958 75.4071 97.4415 75.4022C97.4868 75.3974 97.5317 75.3998 97.5764 75.4095C97.6211 75.4197 97.6631 75.4367 97.7024 75.4604C97.7417 75.4841 97.7761 75.5134 97.8057 75.5484C97.8354 75.5829 97.8585 75.6213 97.8752 75.6639C97.8919 75.7064 97.9016 75.7505 97.9043 75.7963C97.9064 75.8421 97.9013 75.887 97.8889 75.9312C97.8765 75.9753 97.8574 76.0162 97.8316 76.0539C97.8063 76.0916 97.7753 76.1244 97.7387 76.1524C97.7021 76.1799 97.6838 76.1936 97.6838 76.1936C97.6838 76.1936 96.907 76.7602 95.3533 77.8935C93.7996 79.0272 92.2793 79.7403 90.7923 80.0326C89.3049 80.3244 87.4893 80.4514 85.3456 80.4138C83.2018 80.3761 81.2194 79.8649 79.3981 78.8803C77.5769 77.8951 76.3979 76.6601 75.8611 75.1753C75.3244 73.6911 75.3545 72.3094 75.9516 71.0303C76.5481 69.7511 77.4129 68.8241 78.5462 68.2491C79.6799 67.6747 80.6554 67.6534 81.4726 68.1853C82.2904 68.7178 82.6234 69.5256 82.4716 70.6087C82.3197 71.6919 81.8613 72.6265 81.0963 73.4125C80.3308 74.1974 79.5645 74.5885 78.7973 74.5858C78.0302 74.5831 77.6285 74.5856 77.5925 74.5931C77.5564 74.6006 77.5203 74.6036 77.4843 74.602C77.4477 74.6004 77.4116 74.5944 77.3761 74.5842C77.3405 74.574 77.3069 74.5597 77.2751 74.5414C77.2433 74.5231 77.2143 74.501 77.1879 74.4752C77.161 74.4499 77.1378 74.4216 77.1184 74.3904C77.0985 74.3597 77.0829 74.3269 77.0716 74.2919C77.0598 74.2569 77.0522 74.2211 77.049 74.1845C77.0463 74.1484 77.0479 74.1121 77.0538 74.0755C77.0598 74.0394 77.07 74.0044 77.0845 73.9705C77.0985 73.9366 77.1168 73.9048 77.1394 73.8752C77.1615 73.8461 77.1868 73.8197 77.2154 73.7961C77.2439 73.7729 77.2746 73.7535 77.3074 73.7379C77.3408 73.7223 77.3575 73.7145 77.3575 73.7145Z" fill="black"/>
<path d="M118.604 73.3145C118.604 73.3145 118.412 73.2682 118.029 73.1756C117.646 73.0835 117.582 72.9481 117.836 72.7694C118.091 72.5896 118.187 72.6886 118.125 73.0665C118.063 73.445 118.05 73.9115 118.086 74.466C118.123 75.0205 118.182 75.5755 118.263 76.1311C118.343 76.6872 118.418 77.1182 118.485 77.424C118.554 77.7298 118.587 77.9349 118.586 78.0393C118.585 78.1437 118.571 78.2463 118.545 78.347C118.519 78.4482 118.481 78.5448 118.431 78.6369C118.381 78.7284 118.321 78.8129 118.251 78.8904C118.181 78.9674 118.102 79.035 118.016 79.0931C117.93 79.1518 117.837 79.1989 117.738 79.2345C117.64 79.2705 117.54 79.2942 117.436 79.3055C117.332 79.3163 117.229 79.3149 117.125 79.3015C117.021 79.2875 116.921 79.2614 116.824 79.2231C116.727 79.1849 116.636 79.1357 116.551 79.0754C116.465 79.0145 116.389 78.9448 116.32 78.8662C116.252 78.7871 116.194 78.7009 116.147 78.6078C116.099 78.5147 116.064 78.4172 116.04 78.3155C116.017 78.2143 116.038 78.0148 116.106 77.7171C116.172 77.4194 116.17 76.8396 116.099 75.9777C116.029 75.1152 115.959 74.045 115.892 72.7669C115.823 71.4889 115.862 70.2386 116.008 69.016C116.154 67.7928 116.583 66.7207 117.293 65.7996C118.003 64.8785 118.94 64.4012 120.103 64.3678C121.267 64.335 122.468 64.7229 123.708 65.5315C124.948 66.3406 125.968 67.1404 126.77 67.9307C127.571 68.7204 128.227 69.3923 128.735 69.9462C129.244 70.5002 129.615 70.901 129.848 71.1487C130.081 71.3958 130.228 71.5621 130.289 71.6477C130.35 71.7328 130.401 71.824 130.439 71.9215C130.478 72.0189 130.505 72.1196 130.519 72.2235C130.534 72.3274 130.536 72.4316 130.525 72.536C130.514 72.6404 130.491 72.7419 130.455 72.8404C130.42 72.939 130.373 73.0318 130.315 73.119C130.257 73.2062 130.189 73.2854 130.112 73.3564C130.035 73.4275 129.95 73.4881 129.858 73.5381C129.766 73.5887 129.669 73.6275 129.568 73.6544C129.466 73.6813 129.363 73.6956 129.259 73.6972C129.154 73.6988 129.05 73.6881 128.948 73.6649C128.845 73.6418 128.747 73.6065 128.654 73.5591C128.56 73.5123 128.473 73.4547 128.393 73.3863C128.313 73.318 128.337 72.8305 128.464 71.9239C128.591 71.0168 128.68 70.122 128.73 69.2397C128.78 68.3568 128.849 67.5697 128.938 66.8784C129.027 66.1872 129.156 65.6688 129.325 65.3231C129.494 64.9775 129.592 64.7538 129.618 64.6521C129.643 64.5503 129.681 64.4532 129.73 64.3606C129.779 64.268 129.839 64.1826 129.91 64.1046C129.98 64.0265 130.058 63.9579 130.145 63.8987C130.231 63.8394 130.324 63.7915 130.421 63.7549C130.52 63.7183 130.621 63.6941 130.725 63.6822C130.83 63.6699 130.934 63.6704 131.038 63.6839C131.142 63.6973 131.243 63.7229 131.341 63.7606C131.439 63.7983 131.531 63.8472 131.617 63.9075C131.703 63.9673 131.78 64.0367 131.849 64.1159C131.919 64.1945 131.977 64.2806 132.025 64.3743C132.074 64.4674 132.11 64.5649 132.134 64.6666C132.159 64.7689 132.171 64.8723 132.171 64.9767C132.17 65.0817 132.315 65.0631 132.607 64.921C132.898 64.7783 133.344 65.1253 133.942 65.9619C134.542 66.798 135.039 67.6986 135.436 68.6639C135.833 69.6292 136.15 70.5215 136.388 71.3409C136.624 72.1602 136.792 72.7936 136.891 73.241C136.989 73.6883 136.828 73.9624 136.41 74.063C135.992 74.1637 135.836 74.1632 135.941 74.0614C136.046 73.9602 136.118 73.8975 136.156 73.8733C136.195 73.8485 136.236 73.8307 136.281 73.82C136.325 73.8092 136.37 73.8057 136.416 73.8095C136.462 73.8138 136.505 73.8251 136.547 73.8434C136.589 73.8617 136.627 73.8862 136.661 73.9169C136.695 73.9476 136.723 73.9828 136.745 74.0227C136.767 74.063 136.783 74.1056 136.791 74.1502C136.799 74.1955 136.8 74.2407 136.794 74.2859C136.787 74.3311 136.774 74.3742 136.753 74.4151C136.733 74.456 136.706 74.4926 136.674 74.5249C136.641 74.5567 136.604 74.5828 136.564 74.6033C136.522 74.6232 136.479 74.6361 136.434 74.642C136.388 74.648 136.343 74.6463 136.299 74.6372C136.253 74.6286 136.211 74.613 136.171 74.5903C136.132 74.5672 136.097 74.5387 136.066 74.5048C136.036 74.4703 136.012 74.4321 135.994 74.3901C135.976 74.3481 135.966 74.3042 135.962 74.2585C135.959 74.2127 135.963 74.1677 135.974 74.1236C135.985 74.0795 136.003 74.038 136.028 73.9992C136.053 73.961 136.083 73.9276 136.119 73.8991C136.155 73.8706 136.194 73.8485 136.237 73.8329C136.28 73.8173 136.325 73.8092 136.371 73.8087C136.416 73.8076 136.461 73.8138 136.505 73.8272C136.548 73.8412 136.589 73.8617 136.626 73.8886C136.663 73.9155 136.695 73.9476 136.721 73.9847C136.747 74.0218 136.767 74.0625 136.781 74.1066C136.794 74.1502 136.799 74.1949 136.798 74.2407C136.796 74.2864 136.788 74.3309 136.772 74.3739C136.756 74.4165 136.733 74.4555 136.704 74.491C136.676 74.5266 136.661 74.5443 136.661 74.5443C136.661 74.5443 136.6 74.5947 136.476 74.6953C136.354 74.796 136.009 74.8202 135.442 74.768C134.875 74.7152 134.532 74.4555 134.412 73.9887C134.293 73.522 134.129 72.9215 133.921 72.1871C133.712 71.4518 133.449 70.676 133.13 69.8598C132.811 69.0442 132.487 68.3452 132.158 67.7627C131.83 67.1802 131.318 66.5417 130.623 65.8472C129.927 65.1522 129.592 64.7538 129.618 64.6521C129.643 64.5503 129.681 64.4532 129.73 64.3606C129.779 64.268 129.839 64.1826 129.909 64.1046C129.979 64.0265 130.057 63.9579 130.144 63.8987C130.23 63.8394 130.323 63.7915 130.421 63.7549C130.52 63.7183 130.621 63.6941 130.725 63.6822C130.83 63.6699 130.934 63.6704 131.038 63.6839C131.142 63.6973 131.243 63.7229 131.34 63.7606C131.438 63.7983 131.531 63.847 131.617 63.9067C131.703 63.967 131.78 64.0367 131.849 64.1159C131.919 64.1945 131.977 64.2803 132.025 64.3735C132.074 64.4666 132.11 64.5643 132.134 64.6666C132.159 64.7684 132.171 64.8717 132.171 64.9767C132.17 65.0817 132.083 65.314 131.909 65.6736C131.736 66.0338 131.609 66.5342 131.528 67.1748C131.447 67.816 131.345 68.7153 131.222 69.8728C131.099 71.0308 130.898 71.5947 130.618 71.5645C130.338 71.5344 130.228 71.5621 130.289 71.6477C130.35 71.7328 130.401 71.824 130.439 71.9215C130.478 72.0189 130.505 72.1196 130.519 72.2235C130.534 72.3274 130.536 72.4316 130.525 72.536C130.514 72.6404 130.491 72.7419 130.455 72.8404C130.42 72.939 130.373 73.0318 130.315 73.119C130.257 73.2062 130.189 73.2854 130.112 73.3564C130.035 73.4275 129.95 73.4881 129.858 73.5381C129.766 73.5887 129.669 73.6275 129.568 73.6544C129.467 73.6813 129.364 73.6956 129.259 73.6972C129.154 73.6994 129.05 73.6886 128.948 73.6649C128.845 73.6418 128.747 73.6065 128.654 73.5591C128.56 73.5123 128.473 73.4547 128.393 73.3863C128.313 73.318 128.157 73.1605 127.924 72.9139C127.691 72.6663 127.334 72.2797 126.852 71.7543C126.37 71.2283 125.784 70.6165 125.092 69.9188C124.4 69.2211 123.627 68.5358 122.774 67.8628C121.921 67.1893 121.148 66.784 120.456 66.6467C119.763 66.5094 119.308 66.6397 119.091 67.0375C118.874 67.4354 118.704 68.1481 118.581 69.1759C118.458 70.2036 118.431 71.361 118.499 72.6482C118.568 73.9354 118.6 75.1295 118.595 76.2304C118.59 77.3319 118.587 77.9349 118.586 78.0393C118.585 78.1437 118.571 78.2463 118.545 78.347C118.519 78.4482 118.481 78.5448 118.431 78.6369C118.381 78.7284 118.321 78.8129 118.251 78.8904C118.181 78.9674 118.103 79.035 118.016 79.0931C117.93 79.1518 117.837 79.1989 117.739 79.2345C117.641 79.2705 117.54 79.2942 117.436 79.3055C117.333 79.3168 117.229 79.3155 117.126 79.3015C117.022 79.2875 116.921 79.2614 116.824 79.2231C116.727 79.1849 116.636 79.1357 116.551 79.0754C116.465 79.0151 116.389 78.9454 116.32 78.8662C116.252 78.7871 116.194 78.7009 116.147 78.6078C116.099 78.5147 116.064 78.4175 116.04 78.3163C116.017 78.2145 115.98 78.0097 115.931 77.7018C115.882 77.3944 115.832 76.9176 115.782 76.2716C115.732 75.6256 115.724 74.9196 115.758 74.1535C115.793 73.3869 115.897 72.7979 116.069 72.3866C116.242 71.9742 116.691 71.7295 117.418 71.6526C118.145 71.575 118.613 71.7166 118.822 72.0773C119.031 72.438 119.148 72.6307 119.173 72.6555C119.199 72.6797 119.221 72.7069 119.24 72.7371C119.258 72.7672 119.272 72.799 119.283 72.8324C119.295 72.8657 119.301 72.9002 119.303 72.9357C119.306 72.9702 119.305 73.0046 119.299 73.0391C119.293 73.0741 119.283 73.1077 119.269 73.14C119.255 73.1723 119.237 73.2025 119.215 73.2305C119.194 73.2585 119.169 73.2835 119.142 73.3056C119.114 73.3276 119.085 73.3462 119.053 73.3613C119.021 73.3758 118.987 73.3866 118.953 73.3936C118.919 73.4001 118.884 73.4025 118.849 73.4009C118.814 73.3992 118.779 73.3933 118.745 73.3831C118.712 73.3729 118.679 73.3589 118.649 73.3411C118.619 73.3233 118.604 73.3145 118.604 73.3145Z" fill="black"/>
<path d="M143.115 69.2173C143.115 69.2173 143.367 69.1088 143.87 68.8918C144.374 68.6749 144.723 68.4135 144.918 68.1077C145.112 67.8019 145.18 67.4921 145.123 67.1783C145.066 66.8644 144.752 66.6919 144.179 66.6606C143.608 66.6289 143.178 66.8041 142.891 67.1863C142.604 67.5686 142.673 68.2593 143.099 69.2585C143.524 70.2566 144.211 71.115 145.161 71.8337C146.11 72.5518 147.226 72.9841 148.509 73.1306C149.791 73.277 151.105 72.9852 152.45 72.2552C153.795 71.5257 154.91 70.7968 155.797 70.0684C156.683 69.3411 157.435 68.5021 158.054 67.5513C158.673 66.6006 158.997 66.1072 159.025 66.0711C159.053 66.0351 159.086 66.0046 159.125 65.9799C159.163 65.9551 159.205 65.9371 159.249 65.9258C159.293 65.9139 159.338 65.9099 159.384 65.9137C159.429 65.9169 159.473 65.9274 159.515 65.9452C159.558 65.9629 159.596 65.9869 159.63 66.017C159.664 66.0472 159.693 66.0822 159.716 66.122C159.739 66.1618 159.755 66.2041 159.764 66.2488C159.773 66.2935 159.774 66.3387 159.768 66.3845C159.763 66.4297 159.75 66.4727 159.73 66.5137C159.71 66.5551 159.683 66.592 159.652 66.6243C159.619 66.6571 159.583 66.6838 159.542 66.7042C159.501 66.7252 159.458 66.739 159.413 66.7454C159.367 66.7519 159.322 66.7511 159.278 66.743C159.233 66.7344 159.19 66.719 159.15 66.697C159.11 66.6749 159.074 66.6469 159.044 66.613C159.013 66.5791 158.988 66.5411 158.97 66.4991C158.951 66.4571 158.94 66.4135 158.936 66.3683C158.932 66.3225 158.935 66.2773 158.946 66.2326C158.957 66.1885 158.974 66.147 158.998 66.1083C159.023 66.0695 159.053 66.0356 159.088 66.0065C159.124 65.9775 159.163 65.9548 159.206 65.9387C159.248 65.9231 159.293 65.9145 159.338 65.9129C159.384 65.9112 159.429 65.9169 159.473 65.9298C159.517 65.9427 159.557 65.9624 159.595 65.9888C159.632 66.0151 159.664 66.0469 159.691 66.0841C159.718 66.1212 159.739 66.1616 159.753 66.2052C159.766 66.2488 159.773 66.2935 159.772 66.3392C159.771 66.385 159.763 66.4294 159.747 66.4725C159.732 66.5155 159.724 66.5371 159.724 66.5371C159.724 66.5371 159.461 67.0929 158.935 68.2046C158.409 69.3163 157.735 70.47 156.913 71.6657C156.09 72.8608 154.787 73.8641 153.003 74.6754C151.217 75.4861 149.456 75.7445 147.718 75.4506C145.98 75.1561 144.489 74.4662 143.247 73.3809C142.005 72.295 141.189 70.9968 140.8 69.4862C140.411 67.975 140.602 66.7387 141.373 65.7772C142.144 64.8162 143.083 64.3296 144.192 64.3172C145.301 64.3053 146.13 64.662 146.68 65.3872C147.229 66.1123 147.434 66.8975 147.292 67.7427C147.151 68.5874 146.741 69.2603 146.06 69.7615C145.38 70.2638 144.727 70.4399 144.102 70.2897C143.476 70.1389 143.147 70.0628 143.113 70.0611C143.08 70.059 143.046 70.0528 143.013 70.0426C142.981 70.0323 142.95 70.0183 142.921 70.0006C142.892 69.9828 142.866 69.9618 142.841 69.9376C142.817 69.9134 142.796 69.8867 142.778 69.8576C142.761 69.8286 142.747 69.7976 142.737 69.7648C142.727 69.7319 142.721 69.6986 142.719 69.6646C142.717 69.6313 142.719 69.5979 142.725 69.5645C142.732 69.5306 142.742 69.498 142.756 69.4668C142.77 69.4361 142.787 69.4073 142.808 69.3804C142.829 69.3535 142.853 69.3295 142.88 69.3085C142.907 69.2875 142.936 69.27 142.967 69.256C142.999 69.242 143.031 69.2321 143.064 69.2262C143.098 69.2202 143.115 69.2173 143.115 69.2173Z" fill="black"/>
<path d="M197.383 34.1984C197.383 34.1984 197.266 34.0582 197.033 33.7777C196.8 33.4967 196.678 33.3198 196.669 33.2471C196.659 33.1745 196.657 33.1015 196.665 33.0283C196.672 32.9556 196.688 32.8846 196.713 32.8151C196.739 32.7462 196.771 32.6813 196.812 32.6205C196.853 32.5591 196.9 32.5037 196.954 32.4541C197.008 32.4046 197.067 32.3621 197.132 32.3266C197.196 32.2916 197.264 32.2646 197.335 32.2458C197.406 32.227 197.478 32.217 197.551 32.2159C197.625 32.2148 197.697 32.2224 197.769 32.2385C197.84 32.2552 197.908 32.28 197.974 32.3128C198.039 32.3457 198.1 32.386 198.155 32.434C198.211 32.4819 198.261 32.5357 198.303 32.5955C198.346 32.6547 198.381 32.7185 198.408 32.7868C198.436 32.8552 198.352 33.6035 198.156 35.0318C197.961 36.4611 197.933 38.4218 198.074 40.9138C198.215 43.4053 198.667 46.2395 199.431 49.4163C200.196 52.5931 201.059 55.2485 202.021 57.3826C202.983 59.5172 203.794 61.0068 204.455 61.8514C205.116 62.6961 205.913 62.9074 206.847 62.4854C207.781 62.0633 208.525 61.4404 209.079 60.6167C209.633 59.7925 209.98 59.0159 210.121 58.287C210.261 57.5586 210.274 56.9479 210.16 56.4547C210.046 55.9611 209.957 55.5734 209.893 55.2919C209.829 55.0098 209.73 54.7589 209.595 54.5393C209.46 54.3202 209.378 54.1928 209.349 54.1573C209.32 54.1218 209.298 54.0825 209.282 54.0394C209.266 53.9963 209.258 53.9519 209.257 53.9062C209.255 53.8604 209.261 53.8157 209.274 53.7721C209.288 53.7285 209.308 53.6879 209.335 53.6502C209.361 53.613 209.393 53.5813 209.43 53.5549C209.467 53.528 209.508 53.5078 209.552 53.4943C209.596 53.4809 209.64 53.4747 209.686 53.4758C209.732 53.4774 209.776 53.486 209.819 53.5016C209.862 53.5172 209.901 53.5393 209.937 53.5678C209.973 53.5963 210.003 53.63 210.028 53.6688C210.053 53.7075 210.07 53.749 210.081 53.7931C210.092 53.8373 210.096 53.8822 210.092 53.928C210.089 53.9737 210.078 54.0176 210.06 54.0596C210.042 54.1016 210.017 54.1395 209.987 54.1735C209.956 54.2079 209.921 54.2364 209.882 54.2591C209.842 54.2817 209.799 54.2973 209.754 54.3059C209.709 54.3145 209.664 54.3156 209.619 54.3091C209.573 54.3032 209.53 54.29 209.489 54.2696C209.448 54.2491 209.412 54.2227 209.379 54.1904C209.347 54.1581 209.321 54.1215 209.3 54.0806C209.28 54.0397 209.267 53.9966 209.261 53.9514C209.254 53.9062 209.255 53.8609 209.264 53.8157C209.272 53.771 209.288 53.7288 209.311 53.6889C209.333 53.6491 209.362 53.6138 209.395 53.5832C209.429 53.5525 209.467 53.528 209.509 53.5097C209.551 53.4919 209.595 53.4811 209.641 53.4774C209.686 53.4736 209.731 53.4771 209.776 53.4879C209.82 53.4992 209.861 53.5172 209.9 53.542C209.939 53.5662 209.958 53.5783 209.958 53.5783C209.958 53.5783 210.124 53.6774 210.454 53.8755C210.785 54.0731 211.087 54.3204 211.363 54.6176C211.637 54.9142 211.956 55.4755 212.319 56.3013C212.682 57.1277 212.724 58.0959 212.447 59.206C212.169 60.3161 211.576 61.421 210.668 62.5209C209.76 63.6207 208.612 64.361 207.222 64.7416C205.832 65.1222 204.466 64.7101 203.124 63.5053C201.783 62.3004 200.6 60.5459 199.575 58.2418C198.551 55.9371 197.657 53.1132 196.895 49.77C196.133 46.4263 195.726 43.4118 195.675 40.7265C195.623 38.0406 195.778 36.1408 196.141 35.0269C196.502 33.9131 196.678 33.3198 196.669 33.2471C196.659 33.1745 196.657 33.1015 196.665 33.0283C196.672 32.9556 196.688 32.8846 196.713 32.8151C196.738 32.7462 196.771 32.6813 196.812 32.6205C196.853 32.5591 196.9 32.5037 196.954 32.4541C197.008 32.4046 197.067 32.3621 197.132 32.3266C197.196 32.2916 197.264 32.2646 197.335 32.2458C197.406 32.227 197.478 32.217 197.551 32.2159C197.625 32.2148 197.697 32.2224 197.769 32.2385C197.84 32.2547 197.908 32.2794 197.974 32.3128C198.039 32.3457 198.1 32.386 198.155 32.434C198.211 32.4819 198.261 32.5354 198.303 32.5947C198.346 32.6544 198.381 32.7185 198.408 32.7868C198.436 32.8552 198.417 33.0689 198.353 33.428C198.29 33.7876 198.26 33.9855 198.265 34.0216C198.27 34.0576 198.271 34.0934 198.267 34.129C198.263 34.1656 198.255 34.2008 198.243 34.2347C198.231 34.2692 198.215 34.3015 198.194 34.3316C198.174 34.3618 198.151 34.3893 198.124 34.414C198.097 34.4388 198.068 34.4598 198.036 34.477C198.004 34.4948 197.97 34.5082 197.935 34.5174C197.899 34.5265 197.864 34.5314 197.828 34.5319C197.792 34.533 197.756 34.5292 197.72 34.5206C197.685 34.5125 197.651 34.5004 197.618 34.4843C197.586 34.4681 197.556 34.4482 197.528 34.4245C197.501 34.4008 197.476 34.3742 197.455 34.3446C197.434 34.315 197.416 34.2832 197.403 34.2493C197.389 34.2154 197.383 34.1984 197.383 34.1984Z" fill="black"/>
<path d="M220.802 51.2811C220.802 51.2811 220.783 51.0916 220.745 50.7126C220.706 50.3331 220.487 50.1753 220.087 50.2394C219.687 50.3029 219.238 50.5667 218.74 51.0308C218.241 51.4943 217.85 52.1007 217.566 52.8501C217.283 53.599 217.202 54.2216 217.323 54.7179C217.446 55.2138 217.691 55.5559 218.058 55.7443C218.426 55.9333 218.886 55.9521 219.437 55.8008C219.987 55.6496 220.418 55.4361 220.727 55.1605C221.037 54.8848 221.23 54.6154 221.305 54.3521C221.381 54.0889 221.45 53.8364 221.514 53.5947C221.579 53.353 221.639 53.1879 221.695 53.0997C221.752 53.0108 221.818 52.9303 221.894 52.8582C221.97 52.7861 222.054 52.7239 222.145 52.6717C222.236 52.6194 222.332 52.5791 222.433 52.5505C222.534 52.5215 222.637 52.505 222.741 52.5013C222.846 52.4975 222.95 52.5064 223.053 52.5279C223.156 52.5495 223.254 52.5828 223.348 52.6281C223.443 52.6738 223.531 52.7298 223.612 52.796C223.693 52.8628 223.765 52.9384 223.827 53.0229C223.89 53.1069 223.942 53.1974 223.982 53.2943C224.023 53.3906 224.052 53.4908 224.068 53.5947C224.085 53.698 224.088 53.8019 224.079 53.9064C224.071 54.0114 224.049 54.1134 224.015 54.2124C223.982 54.312 223.569 54.1739 222.777 53.7982C221.986 53.4219 221.619 53.1896 221.675 53.1013C221.732 53.013 221.798 52.9325 221.874 52.8598C221.95 52.7877 222.033 52.7255 222.124 52.6733C222.215 52.6211 222.311 52.5807 222.412 52.5522C222.513 52.5236 222.616 52.5075 222.721 52.5037C222.826 52.4999 222.93 52.5085 223.032 52.5295C223.135 52.5511 223.233 52.5845 223.328 52.6297C223.423 52.6754 223.511 52.7317 223.591 52.7984C223.673 52.8652 223.745 52.9406 223.807 53.0246C223.87 53.1085 223.921 53.199 223.962 53.2959C224.003 53.3923 224.032 53.4924 224.048 53.5963C224.064 53.6997 224.068 53.8038 224.059 53.9088C224.05 54.0132 224.029 54.115 223.995 54.214C223.961 54.3136 224.035 54.522 224.216 54.8391C224.397 55.1556 224.538 55.4162 224.64 55.6208C224.743 55.8259 224.679 55.9247 224.449 55.9171C224.219 55.9101 224.118 55.9804 224.149 56.1279C224.178 56.2759 224.212 56.3368 224.249 56.3104C224.286 56.284 224.327 56.2644 224.371 56.2514C224.415 56.2385 224.46 56.2329 224.506 56.2345C224.551 56.2361 224.595 56.245 224.638 56.2611C224.681 56.2773 224.72 56.2999 224.755 56.329C224.791 56.358 224.821 56.392 224.845 56.4307C224.869 56.4695 224.886 56.5109 224.897 56.5551C224.908 56.5998 224.911 56.645 224.907 56.6907C224.903 56.736 224.892 56.7796 224.873 56.8216C224.855 56.8636 224.83 56.9015 224.8 56.9354C224.768 56.9688 224.733 56.9968 224.693 57.0194C224.653 57.0415 224.611 57.0566 224.565 57.0646C224.52 57.0727 224.475 57.0735 224.43 57.067C224.384 57.0606 224.341 57.0469 224.3 57.0259C224.26 57.0054 224.224 56.9788 224.191 56.9459C224.159 56.9136 224.133 56.8767 224.113 56.8353C224.093 56.7944 224.081 56.751 224.075 56.7053C224.069 56.6601 224.071 56.6151 224.08 56.5704C224.089 56.5252 224.104 56.4829 224.128 56.4436C224.15 56.4038 224.179 56.3688 224.213 56.3387C224.248 56.3085 224.286 56.2846 224.328 56.2668C224.37 56.249 224.415 56.2385 224.46 56.2353C224.506 56.2321 224.551 56.2361 224.595 56.2474C224.639 56.2587 224.681 56.277 224.719 56.3023C224.757 56.3271 224.79 56.3575 224.819 56.3936C224.847 56.4296 224.869 56.4692 224.884 56.5123C224.9 56.5553 224.908 56.5998 224.909 56.6455C224.91 56.6913 224.903 56.736 224.889 56.7796C224.875 56.8232 224.855 56.8633 224.828 56.8999C224.801 56.937 224.787 56.9556 224.787 56.9556C224.787 56.9556 224.724 57.0517 224.597 57.2439C224.47 57.4361 224.296 57.6216 224.077 57.8003C223.857 57.9785 223.531 57.9018 223.097 57.5701C222.664 57.2391 222.378 56.9295 222.24 56.6415C222.103 56.354 221.955 55.9723 221.795 55.4964C221.635 55.02 221.561 54.5239 221.573 54.0081C221.584 53.4918 221.619 53.1896 221.675 53.1013C221.732 53.013 221.798 52.9325 221.874 52.8598C221.95 52.7877 222.033 52.7255 222.124 52.6733C222.215 52.6216 222.311 52.5812 222.412 52.5522C222.513 52.5236 222.616 52.5075 222.721 52.5037C222.825 52.4999 222.929 52.5085 223.032 52.5295C223.135 52.5511 223.233 52.5845 223.328 52.6297C223.423 52.6754 223.511 52.7317 223.591 52.7984C223.672 52.8647 223.744 52.94 223.807 53.0246C223.87 53.1085 223.921 53.199 223.962 53.2959C224.003 53.3923 224.032 53.4924 224.048 53.5963C224.064 53.6997 224.068 53.8036 224.059 53.908C224.05 54.013 224.029 54.115 223.995 54.214C223.961 54.3136 223.555 54.175 222.777 53.7982C222 53.4208 221.639 53.1879 221.695 53.0997C221.752 53.0114 221.818 52.9309 221.894 52.8582C221.97 52.7861 222.053 52.7239 222.144 52.6717C222.236 52.6194 222.332 52.5791 222.433 52.5505C222.533 52.5215 222.636 52.505 222.741 52.5013C222.846 52.4975 222.95 52.5064 223.053 52.5279C223.155 52.5495 223.254 52.5828 223.348 52.6281C223.443 52.6733 223.531 52.7293 223.612 52.796C223.693 52.8628 223.765 52.9381 223.827 53.0221C223.89 53.1067 223.942 53.1971 223.982 53.2935C224.023 53.3904 224.052 53.4905 224.068 53.5939C224.085 53.6978 224.088 53.8019 224.079 53.9064C224.071 54.0108 224.049 54.1128 224.015 54.2124C223.982 54.312 223.934 54.4811 223.871 54.7196C223.807 54.9586 223.617 55.3554 223.301 55.9099C222.984 56.4638 222.48 56.968 221.787 57.4224C221.095 57.8773 220.223 58.1343 219.172 58.1936C218.12 58.2528 217.202 57.9704 216.417 57.3465C215.633 56.723 215.154 55.8743 214.981 54.8003C214.807 53.7258 214.996 52.6186 215.546 51.4789C216.096 50.3398 216.857 49.4787 217.828 48.8957C218.8 48.3121 219.664 48.0989 220.42 48.2561C221.176 48.4128 221.672 48.8049 221.907 49.4327C222.142 50.0604 222.161 50.5562 221.964 50.9201C221.768 51.2835 221.664 51.4819 221.652 51.5153C221.64 51.5492 221.625 51.5812 221.606 51.6114C221.586 51.641 221.564 51.6682 221.538 51.6929C221.512 51.7172 221.484 51.7382 221.452 51.7559C221.422 51.7732 221.389 51.7866 221.355 51.7963C221.32 51.806 221.285 51.8114 221.25 51.8125C221.215 51.8141 221.18 51.8111 221.145 51.8036C221.11 51.796 221.076 51.7845 221.044 51.7688C221.012 51.7532 220.982 51.7341 220.955 51.7115C220.927 51.6889 220.903 51.6631 220.882 51.634C220.861 51.6055 220.844 51.5748 220.83 51.5419C220.816 51.5091 220.807 51.4749 220.801 51.4394C220.796 51.4044 220.795 51.3694 220.797 51.3344C220.801 51.2989 220.802 51.2811 220.802 51.2811Z" fill="black"/>
<path d="M230.433 50.2864C230.433 50.2864 230.525 50.3971 230.708 50.6183C230.891 50.8391 231.02 51.0762 231.095 51.3298C231.171 51.5833 231.333 52.073 231.581 52.7987C231.829 53.5244 232.139 54.1219 232.511 54.5914C232.882 55.0614 233.235 55.2315 233.57 55.1017C233.904 54.972 234.151 54.7077 234.309 54.3087C234.468 53.9098 234.588 53.5289 234.669 53.1661C234.751 52.8032 234.814 52.5026 234.858 52.2641C234.903 52.0261 234.943 51.8592 234.978 51.7634C235.014 51.6681 235.06 51.5782 235.118 51.4937C235.175 51.4092 235.241 51.3327 235.317 51.2644C235.393 51.1965 235.476 51.1386 235.566 51.0907C235.656 51.0423 235.75 51.0057 235.848 50.9809C235.948 50.9556 236.048 50.9424 236.15 50.9413C236.252 50.9408 236.353 50.9524 236.452 50.9761C236.551 50.9998 236.646 51.0347 236.736 51.081C236.827 51.1279 236.911 51.1849 236.987 51.2522C237.064 51.319 237.132 51.3941 237.191 51.4775C237.249 51.561 237.297 51.6504 237.334 51.7456C237.371 51.8404 237.396 51.9384 237.409 52.0396C237.422 52.1408 237.422 52.242 237.411 52.3432C237.399 52.4444 237.75 52.976 238.464 53.9381C239.178 54.9001 239.765 55.769 240.225 56.5448C240.686 57.3211 241.051 57.9222 241.32 58.348C241.589 58.7744 241.828 59.0427 242.036 59.1531C242.244 59.2635 242.371 59.3655 242.418 59.4592C242.464 59.5534 242.498 59.6516 242.521 59.7539C242.544 59.8567 242.554 59.9604 242.552 60.0648C242.549 60.1698 242.534 60.2729 242.507 60.3741C242.479 60.4753 242.44 60.5719 242.389 60.664C242.338 60.7555 242.276 60.8398 242.205 60.9168C242.134 60.9937 242.054 61.0608 241.966 61.1178C241.879 61.1754 241.785 61.2217 241.686 61.2567C241.587 61.2917 241.485 61.3143 241.381 61.3246C241.276 61.3342 241.172 61.3316 241.068 61.3165C240.965 61.3014 240.865 61.2742 240.767 61.2349C240.67 61.1951 240.579 61.1445 240.494 61.0831C240.409 61.0212 240.333 60.9501 240.265 60.8699C240.198 60.7897 240.195 60.3649 240.258 59.5956C240.321 58.8263 240.394 58.264 240.479 57.9087C240.563 57.5534 240.64 57.1394 240.708 56.6667C240.777 56.1941 240.814 55.9348 240.82 55.8891C240.826 55.8439 240.838 55.8008 240.858 55.7599C240.878 55.7184 240.904 55.6815 240.937 55.6492C240.969 55.6169 241.006 55.5903 241.047 55.5693C241.087 55.5488 241.131 55.5354 241.176 55.5289C241.221 55.5225 241.266 55.5235 241.311 55.5321C241.356 55.5408 241.399 55.5561 241.439 55.5782C241.479 55.6002 241.514 55.6282 241.545 55.6622C241.575 55.6961 241.6 55.734 241.618 55.776C241.637 55.818 241.648 55.8619 241.651 55.9076C241.656 55.9534 241.652 55.9984 241.641 56.0425C241.63 56.0872 241.613 56.1289 241.588 56.1677C241.564 56.2059 241.534 56.2395 241.499 56.2686C241.463 56.2977 241.424 56.32 241.381 56.3356C241.338 56.3518 241.293 56.3607 241.248 56.3623C241.202 56.3639 241.158 56.358 241.114 56.3445C241.07 56.3311 241.029 56.3111 240.992 56.2848C240.954 56.2584 240.922 56.2266 240.896 56.1895C240.869 56.1523 240.848 56.112 240.835 56.0683C240.822 56.0247 240.815 55.9801 240.816 55.9343C240.817 55.8885 240.825 55.8441 240.841 55.8011C240.856 55.758 240.878 55.7187 240.907 55.6832C240.935 55.6471 240.969 55.6167 241.007 55.5919C241.046 55.5671 241.087 55.5491 241.131 55.5378C241.175 55.5265 241.22 55.5227 241.266 55.5265C241.312 55.5297 241.356 55.5402 241.398 55.558C241.44 55.5763 241.478 55.6005 241.513 55.6307C241.547 55.6608 241.575 55.6958 241.598 55.7356C241.621 55.7755 241.636 55.8177 241.645 55.8624C241.654 55.9076 241.659 55.9303 241.659 55.9303C241.659 55.9303 241.708 56.1666 241.806 56.6393C241.905 57.1119 242.005 57.5402 242.104 57.9241C242.203 58.3074 242.269 58.6355 242.301 58.9084C242.332 59.1819 242.371 59.3655 242.418 59.4592C242.464 59.5534 242.498 59.6516 242.521 59.7539C242.544 59.8562 242.554 59.9598 242.552 60.0648C242.549 60.1698 242.534 60.2729 242.507 60.3741C242.479 60.4753 242.44 60.5719 242.389 60.664C242.338 60.7555 242.276 60.8398 242.205 60.9168C242.134 60.9932 242.054 61.0602 241.966 61.1178C241.879 61.1754 241.785 61.2217 241.686 61.2567C241.587 61.2917 241.485 61.3143 241.381 61.3246C241.276 61.3342 241.173 61.3316 241.069 61.3165C240.965 61.3014 240.865 61.2742 240.767 61.2349C240.67 61.1951 240.579 61.1445 240.494 61.0831C240.409 61.0212 240.333 60.9501 240.266 60.8699C240.198 60.7897 240.085 60.7162 239.927 60.6495C239.768 60.5827 239.519 60.2976 239.18 59.7943C238.84 59.2915 238.429 58.6336 237.948 57.8207C237.467 57.0078 236.984 56.1346 236.499 55.2011C236.015 54.267 235.631 53.4845 235.349 52.8536C235.067 52.2226 234.943 51.8592 234.978 51.7634C235.014 51.6681 235.06 51.5782 235.118 51.4937C235.175 51.4092 235.241 51.333 235.317 51.2652C235.393 51.1968 235.476 51.1386 235.566 51.0907C235.656 51.0423 235.75 51.0057 235.848 50.9809C235.948 50.9556 236.048 50.9424 236.15 50.9413C236.251 50.9408 236.352 50.9524 236.452 50.9761C236.551 50.9998 236.646 51.0347 236.736 51.081C236.827 51.1279 236.911 51.1849 236.987 51.2522C237.064 51.319 237.132 51.3941 237.191 51.4775C237.249 51.561 237.297 51.6504 237.334 51.7456C237.371 51.8404 237.396 51.9384 237.409 52.0396C237.422 52.1408 237.422 52.242 237.411 52.3432C237.399 52.4444 237.372 52.6143 237.329 52.8528C237.286 53.0918 237.195 53.4913 237.056 54.0511C236.917 54.6116 236.642 55.2379 236.23 55.9303C235.818 56.6226 235.258 57.1399 234.551 57.4823C233.843 57.8253 233.079 57.8148 232.261 57.4508C231.441 57.0875 230.775 56.5434 230.26 55.8188C229.747 55.0942 229.343 54.2581 229.048 53.3106C228.754 52.3631 228.617 51.5618 228.637 50.9066C228.657 50.2514 228.826 49.9104 229.144 49.8835C229.463 49.8571 229.633 49.8286 229.655 49.7979C229.676 49.7677 229.701 49.7405 229.73 49.7163C229.758 49.6921 229.789 49.6716 229.822 49.6549C229.855 49.6383 229.89 49.6259 229.926 49.6178C229.962 49.6097 229.998 49.606 230.035 49.6065C230.072 49.607 230.109 49.6121 230.145 49.6218C230.181 49.631 230.215 49.6447 230.247 49.663C230.28 49.6808 230.31 49.7021 230.338 49.7268C230.365 49.7521 230.389 49.7804 230.41 49.8116C230.43 49.8423 230.447 49.8751 230.46 49.9101C230.472 49.9451 230.48 49.9812 230.484 50.0183C230.488 50.0544 230.487 50.091 230.482 50.1282C230.477 50.1648 230.468 50.2003 230.454 50.2348C230.44 50.2692 230.433 50.2864 230.433 50.2864Z" fill="black"/>
<path d="M247.265 49.7974C247.265 49.7974 247.134 49.9277 246.871 50.1882C246.608 50.4482 246.396 50.7126 246.237 50.9812C246.079 51.2499 245.966 51.6439 245.9 52.1634C245.834 52.6829 245.892 53.2391 246.074 53.8318C246.256 54.4245 246.515 54.8845 246.85 55.2119C247.185 55.5397 247.53 55.4748 247.886 55.0172C248.242 54.5596 248.47 54.0361 248.572 53.4466C248.674 52.8571 248.738 52.3513 248.762 51.9293C248.786 51.5066 248.813 51.2517 248.842 51.1645C248.87 51.0768 248.909 50.9939 248.958 50.9158C249.007 50.8383 249.064 50.7675 249.13 50.7034C249.196 50.6388 249.269 50.5834 249.348 50.5371C249.428 50.4908 249.512 50.4547 249.6 50.4289C249.688 50.4025 249.779 50.3874 249.871 50.3836C249.963 50.3793 250.054 50.3861 250.144 50.4038C250.234 50.4221 250.321 50.4507 250.404 50.4894C250.488 50.5287 250.565 50.5772 250.637 50.6348C250.708 50.6929 250.772 50.7586 250.827 50.8318C250.883 50.905 250.929 50.9839 250.966 51.0684C251.002 51.1529 251.028 51.2404 251.043 51.3309C251.058 51.4219 251.062 51.5131 251.055 51.6046C251.048 51.6967 251.413 52.6897 252.15 54.5836C252.887 56.477 253.539 58.5981 254.104 60.9469C254.67 63.2963 255.091 65.9924 255.368 69.0352C255.646 72.0779 255.608 74.8071 255.255 77.2227C254.901 79.6388 254.126 81.5629 252.928 82.9949C251.73 84.4275 250.471 84.9895 249.151 84.681C247.832 84.3726 246.849 83.3026 246.203 81.4711C245.556 79.6391 245.348 77.6431 245.578 75.4833C245.807 73.3234 246.064 71.1046 246.35 68.8268C246.635 66.549 246.783 65.3881 246.794 65.3439C246.805 65.2998 246.823 65.2583 246.848 65.2196C246.873 65.1814 246.903 65.148 246.939 65.1194C246.975 65.0909 247.015 65.0691 247.058 65.054C247.101 65.0384 247.145 65.0301 247.19 65.029C247.235 65.0279 247.28 65.0344 247.324 65.0484C247.368 65.0618 247.408 65.082 247.445 65.1089C247.482 65.1359 247.514 65.1682 247.54 65.2058C247.566 65.243 247.586 65.2834 247.6 65.327C247.613 65.3711 247.618 65.4161 247.617 65.4618C247.615 65.5076 247.607 65.5517 247.591 65.5943C247.575 65.6373 247.552 65.6766 247.523 65.7122C247.494 65.7477 247.46 65.7776 247.422 65.8018C247.383 65.826 247.342 65.8435 247.297 65.8543C247.252 65.8651 247.207 65.8686 247.162 65.8648C247.117 65.8605 247.073 65.8492 247.031 65.8309C246.989 65.8126 246.951 65.7881 246.917 65.7574C246.884 65.7267 246.856 65.6912 246.833 65.6508C246.811 65.611 246.796 65.5687 246.787 65.524C246.779 65.4788 246.779 65.4336 246.785 65.3883C246.791 65.3431 246.805 65.3001 246.825 65.2591C246.846 65.2182 246.873 65.1816 246.905 65.1493C246.938 65.1176 246.975 65.0914 247.016 65.071C247.057 65.0511 247.1 65.0381 247.146 65.0322C247.191 65.0263 247.235 65.0279 247.28 65.0371C247.325 65.0457 247.367 65.0616 247.407 65.0847C247.447 65.1073 247.482 65.1359 247.512 65.1703C247.542 65.2042 247.567 65.2425 247.584 65.285C247.602 65.327 247.613 65.3709 247.616 65.4166C247.619 65.4618 247.621 65.4844 247.621 65.4844C247.621 65.4844 247.565 66.6153 247.45 68.8769C247.336 71.138 247.357 73.2284 247.512 75.1482C247.666 77.0679 247.91 78.7912 248.243 80.318C248.577 81.8442 249.057 82.6724 249.683 82.8027C250.31 82.9325 250.886 82.5519 251.411 81.6609C251.937 80.7699 252.364 79.2396 252.692 77.0701C253.02 74.9005 253.056 72.3592 252.799 69.4462C252.541 66.5332 252.139 63.9356 251.592 61.6535C251.046 59.3709 250.502 57.3647 249.961 55.635C249.42 53.9047 249.091 52.7489 248.974 52.1675C248.857 51.5861 248.813 51.2517 248.842 51.1645C248.87 51.0773 248.909 50.9947 248.958 50.9166C249.007 50.8385 249.064 50.7675 249.13 50.7034C249.196 50.6394 249.269 50.5839 249.348 50.5371C249.428 50.4908 249.512 50.4547 249.6 50.4289C249.688 50.4025 249.779 50.3874 249.871 50.3836C249.962 50.3793 250.053 50.3861 250.144 50.4038C250.234 50.4221 250.321 50.4507 250.404 50.4894C250.487 50.5287 250.565 50.5772 250.636 50.6348C250.708 50.6924 250.772 50.7581 250.827 50.8318C250.883 50.905 250.929 50.9839 250.966 51.0684C251.002 51.1529 251.028 51.2404 251.043 51.3309C251.058 51.4219 251.062 51.5131 251.055 51.6046C251.048 51.6967 251.03 51.9529 251 52.3734C250.971 52.7938 250.863 53.4307 250.678 54.284C250.493 55.1373 250.112 55.9254 249.535 56.6485C248.958 57.3715 248.219 57.7235 247.319 57.7047C246.418 57.6864 245.627 57.3106 244.945 56.5774C244.263 55.8442 243.825 54.9736 243.632 53.9658C243.44 52.958 243.487 52.0181 243.773 51.1459C244.059 50.2738 244.472 49.6219 245.011 49.1901C245.55 48.7573 246.023 48.5925 246.432 48.6959C246.84 48.7993 247.064 48.8488 247.103 48.8445C247.141 48.8402 247.18 48.8407 247.219 48.8461C247.257 48.8509 247.295 48.8606 247.331 48.8752C247.367 48.8897 247.402 48.908 247.433 48.9301C247.465 48.9527 247.494 48.9788 247.52 49.0084C247.545 49.038 247.567 49.0703 247.584 49.1053C247.602 49.1403 247.616 49.1767 247.625 49.2143C247.633 49.2526 247.637 49.2911 247.637 49.3298C247.637 49.3686 247.632 49.4071 247.622 49.4453C247.612 49.483 247.598 49.519 247.58 49.5535C247.561 49.588 247.538 49.6194 247.512 49.648C247.485 49.6771 247.456 49.7026 247.424 49.7247C247.391 49.7462 247.357 49.7637 247.32 49.7772C247.284 49.7906 247.265 49.7974 247.265 49.7974Z" fill="black"/>
<path d="M253.774 25.501C253.774 25.501 253.881 25.772 254.093 26.3141C254.306 26.8568 254.672 28.3203 255.193 30.7047C255.713 33.089 256.266 35.7892 256.853 38.805C257.439 41.8209 258.029 44.9557 258.622 48.2095C259.215 51.4633 259.681 54.1244 260.022 56.1927C260.362 58.2606 260.508 59.9631 260.461 61.3004C260.413 62.6376 260.456 63.148 260.591 62.8314C260.727 62.5149 260.795 62.4091 260.797 62.5141C260.799 62.6191 260.789 62.7227 260.766 62.825C260.743 62.9273 260.708 63.0255 260.662 63.1197C260.615 63.2134 260.557 63.3003 260.49 63.3806C260.422 63.4602 260.345 63.531 260.26 63.5929C260.175 63.6543 260.084 63.7046 259.987 63.7439C259.889 63.7832 259.788 63.8102 259.685 63.8247C259.581 63.8398 259.477 63.8419 259.373 63.8312C259.268 63.8209 259.167 63.7983 259.068 63.7633C258.969 63.7283 258.875 63.6818 258.788 63.6236C258.7 63.566 258.621 63.4987 258.55 63.4217C258.478 63.3448 258.417 63.2602 258.367 63.1682C258.316 63.0767 258.277 62.98 258.25 62.8783C258.223 62.7771 258.228 62.1959 258.266 61.1348C258.303 60.0743 258.494 59.0603 258.839 58.0929C259.184 57.126 259.931 56.4046 261.082 55.9287C262.232 55.4528 263.463 55.5919 264.776 56.3462C266.088 57.1009 267.267 58.147 268.312 59.4842C269.357 60.8215 270.223 62.1109 270.908 63.3523C271.594 64.5937 272.063 65.6987 272.317 66.6672C272.57 67.6362 272.64 68.061 272.527 67.9415C272.415 67.822 272.372 67.8093 272.4 67.9035C272.427 67.9977 272.443 68.0938 272.448 68.1918C272.452 68.2903 272.444 68.3878 272.425 68.4841C272.406 68.58 272.376 68.6723 272.334 68.7611C272.292 68.8505 272.24 68.9331 272.179 69.009C272.117 69.0855 272.046 69.1533 271.968 69.2125C271.89 69.2718 271.806 69.3207 271.715 69.3595C271.625 69.3983 271.532 69.4257 271.435 69.4419C271.338 69.458 271.241 69.4623 271.143 69.4548C271.045 69.4473 270.949 69.4282 270.856 69.3975C270.763 69.3668 270.674 69.3253 270.591 69.2731C270.508 69.2209 270.432 69.1595 270.364 69.089C270.296 69.0185 270.237 68.9407 270.187 68.8556C270.138 68.7711 270.104 68.5942 270.086 68.3251C270.068 68.0564 269.95 67.6556 269.733 67.1227C269.517 66.5897 269.4 66.3019 269.384 66.2594C269.368 66.2169 269.359 66.1727 269.357 66.127C269.355 66.0812 269.36 66.0363 269.373 65.9921C269.386 65.9485 269.406 65.9079 269.432 65.8702C269.458 65.8325 269.49 65.8002 269.527 65.7733C269.563 65.7458 269.603 65.7251 269.647 65.7111C269.691 65.6971 269.735 65.6904 269.781 65.6909C269.827 65.692 269.871 65.7001 269.914 65.7151C269.957 65.7302 269.997 65.7517 270.033 65.7797C270.069 65.8083 270.1 65.8416 270.125 65.8799C270.15 65.9181 270.168 65.9593 270.18 66.0034C270.192 66.0476 270.196 66.0925 270.193 66.1383C270.19 66.184 270.179 66.2279 270.161 66.2699C270.144 66.3124 270.12 66.3509 270.09 66.3854C270.06 66.4198 270.025 66.4486 269.986 66.4718C269.946 66.4944 269.904 66.5105 269.859 66.5202C269.815 66.5294 269.769 66.531 269.724 66.5251C269.679 66.5197 269.635 66.507 269.594 66.4871C269.553 66.4672 269.516 66.4414 269.483 66.4096C269.45 66.3778 269.423 66.3415 269.402 66.3006C269.381 66.2602 269.368 66.2171 269.361 66.1714C269.354 66.1262 269.355 66.0812 269.363 66.0365C269.371 65.9913 269.386 65.9488 269.408 65.9089C269.43 65.8686 269.458 65.8328 269.491 65.8015C269.525 65.7708 269.563 65.7461 269.605 65.7272C269.646 65.7089 269.69 65.6976 269.736 65.6933C269.781 65.689 269.826 65.692 269.871 65.7022C269.915 65.713 269.957 65.7302 269.996 65.7539C270.035 65.7781 270.069 65.808 270.098 65.8435C270.127 65.8785 270.141 65.896 270.141 65.896C270.141 65.896 270.299 66.0863 270.615 66.4669C270.931 66.847 271.3 67.1579 271.723 67.3996C272.146 67.6414 272.372 67.8093 272.4 67.9035C272.427 67.9977 272.443 68.0938 272.448 68.1918C272.452 68.2903 272.445 68.3875 272.426 68.4833C272.406 68.5797 272.376 68.6723 272.334 68.7611C272.292 68.85 272.241 68.9326 272.179 69.009C272.117 69.0855 272.046 69.1533 271.968 69.2125C271.89 69.2718 271.806 69.3207 271.715 69.3595C271.625 69.3983 271.532 69.4257 271.435 69.4419C271.338 69.458 271.241 69.4623 271.143 69.4548C271.045 69.4473 270.949 69.4282 270.856 69.3975C270.763 69.3668 270.674 69.3253 270.591 69.2731C270.508 69.2209 270.432 69.1595 270.364 69.089C270.296 69.0185 270.237 68.9407 270.187 68.8556C270.138 68.7711 270.191 68.5232 270.346 68.1119C270.502 67.7011 270.424 67.3245 270.113 66.9821C269.802 66.6392 269.338 65.9011 268.722 64.7679C268.107 63.6347 267.375 62.4923 266.527 61.3407C265.679 60.1897 264.833 59.2673 263.989 58.5733C263.144 57.8789 262.48 57.6153 261.996 57.7828C261.512 57.9507 261.213 58.3079 261.099 58.8544C260.985 59.4008 260.906 60.1211 260.861 61.0153C260.816 61.9095 260.795 62.4091 260.797 62.5141C260.799 62.6191 260.789 62.7227 260.766 62.825C260.743 62.9273 260.708 63.0255 260.662 63.1197C260.615 63.2134 260.557 63.3003 260.49 63.3806C260.422 63.4602 260.345 63.5308 260.26 63.5921C260.175 63.654 260.084 63.7046 259.987 63.7439C259.89 63.7832 259.789 63.8102 259.685 63.8247C259.581 63.8398 259.477 63.8419 259.373 63.8312C259.268 63.8209 259.167 63.7983 259.068 63.7633C258.969 63.7283 258.876 63.6818 258.788 63.6236C258.7 63.566 258.621 63.4987 258.55 63.4217C258.478 63.3448 258.417 63.2602 258.367 63.1682C258.316 63.0767 258.277 62.9803 258.25 62.8791C258.223 62.7773 258.332 62.5445 258.578 62.1806C258.825 61.8161 258.783 61.3146 258.452 60.6761C258.121 60.0382 257.787 58.6923 257.449 56.6385C257.111 54.5852 256.646 51.9354 256.055 48.6892C255.463 45.4434 254.883 42.3162 254.316 39.3073C253.749 36.299 253.245 33.6403 252.804 31.3313C252.365 29.0223 252.07 27.5863 251.922 27.0232C251.773 26.4606 251.69 26.1362 251.673 26.0501C251.656 25.9639 251.649 25.8773 251.654 25.7901C251.658 25.7023 251.672 25.6164 251.697 25.5325C251.722 25.4479 251.757 25.368 251.801 25.2926C251.846 25.2167 251.898 25.1473 251.96 25.0843C252.021 25.0213 252.089 24.9666 252.163 24.9203C252.237 24.874 252.316 24.8372 252.4 24.8097C252.483 24.7823 252.569 24.7653 252.657 24.7588C252.744 24.7524 252.83 24.7564 252.917 24.771C253.003 24.786 253.087 24.8108 253.168 24.8452C253.248 24.8802 253.323 24.9244 253.393 24.9777C253.463 25.031 253.525 25.0918 253.58 25.1602C253.636 25.2286 253.682 25.3026 253.719 25.3823C253.756 25.4614 253.774 25.501 253.774 25.501Z" fill="black"/>
<path d="M8.89848 58.2794C8.89848 58.2794 8.76685 58.1779 8.5036 57.9749C8.24088 57.7714 8.05703 57.3895 7.95205 56.8291C7.84708 56.2681 8.03658 55.4027 8.52056 54.2329C9.00454 53.0625 9.82041 51.7607 10.9682 50.3276C12.1165 48.8945 13.6274 47.3018 15.5008 45.5495C17.3743 43.7971 20.258 41.6292 24.1519 39.0456C28.0453 36.4616 31.7718 34.194 35.3313 32.243C38.8904 30.292 42.7975 28.4231 47.0526 26.6363C51.3072 24.8495 56.2173 23.0676 61.7828 21.2905C67.3483 19.5134 72.892 17.9158 78.4139 16.4978C83.9352 15.0792 89.9152 13.7646 96.3539 12.5538C102.793 11.3436 109.071 10.2922 115.19 9.39962C121.309 8.50649 127.816 7.64809 134.709 6.82441C141.603 6.00019 148.239 5.24003 154.619 4.54394C160.998 3.84839 167.257 3.20748 173.396 2.62122C179.535 2.03495 185.559 1.53132 191.467 1.11033C197.375 0.689334 203.443 0.449769 209.671 0.391627C215.898 0.333485 221.65 0.491221 226.927 0.864838C232.204 1.23846 237.106 1.78811 241.631 2.51381C246.156 3.23951 250.844 4.22066 255.694 5.45726C260.544 6.69386 264.651 7.81498 268.015 8.82062C271.38 9.82627 274.507 10.9614 277.395 12.226C280.283 13.4906 283.01 15.0214 285.574 16.8184C288.138 18.616 290.267 20.5075 291.96 22.4929C293.653 24.4783 294.896 26.8013 295.687 29.4619C296.478 32.1224 296.855 34.748 296.819 37.3385C296.783 39.9296 296.412 42.5156 295.706 45.0965C295.001 47.6768 294.051 50.2738 292.858 52.8875C291.665 55.5007 290.024 58.3747 287.936 61.5095C285.849 64.6449 283.397 67.8685 280.583 71.1805C277.768 74.4924 275.046 77.416 272.416 79.9511C269.787 82.4862 266.548 85.1537 262.7 87.9537C258.853 90.7531 254.466 93.5272 249.539 96.2761C244.612 99.0244 239.973 101.449 235.623 103.549C231.274 105.649 226.077 107.881 220.034 110.242C213.992 112.604 207.913 114.777 201.798 116.76C195.683 118.743 189.475 120.628 183.174 122.416C176.872 124.203 169.991 125.933 162.531 127.607C155.071 129.28 147.816 130.661 140.768 131.748C133.72 132.835 126.745 133.665 119.842 134.24C112.939 134.815 105.793 135.139 98.4051 135.214C91.0173 135.288 84.1376 135.091 77.7662 134.622C71.3954 134.154 65.3733 133.378 59.7002 132.294C54.0275 131.209 48.3751 129.67 42.7429 127.678C37.1101 125.687 32.0377 123.511 27.5258 121.153C23.0138 118.794 19.0273 116.22 15.5663 113.432C12.1052 110.644 9.14101 107.299 6.67374 103.398C4.20646 99.4981 2.44093 95.4034 1.37715 91.1144C0.313362 86.8258 0.0834855 81.937 0.687518 76.448C1.29209 70.9595 2.65439 65.3577 4.77443 59.6425C6.89392 53.9279 8.97843 49.0679 11.0279 45.0626C13.078 41.0577 15.3453 37.2438 17.8298 33.6207C20.3143 29.9981 22.4359 27.2005 24.1947 25.228C25.9535 23.256 27.6267 21.403 29.2143 19.669C30.8019 17.9349 31.6132 17.0534 31.6482 17.0243C31.6832 16.9947 31.722 16.9713 31.7645 16.9541C31.807 16.9374 31.8512 16.9279 31.8969 16.9258C31.9427 16.9231 31.9876 16.9279 32.0318 16.9403C32.0759 16.9527 32.1168 16.9718 32.1545 16.9977C32.1922 17.0235 32.2248 17.0547 32.2522 17.0913C32.2802 17.1279 32.3015 17.1678 32.316 17.2109C32.3306 17.2545 32.3376 17.2991 32.337 17.3449C32.337 17.3907 32.3298 17.4351 32.3152 17.4781C32.3002 17.5217 32.2789 17.5616 32.2514 17.5977C32.2234 17.6343 32.1906 17.6652 32.1529 17.6905C32.1147 17.7164 32.0735 17.7352 32.0294 17.7471C31.9852 17.7594 31.9405 17.7643 31.8953 17.7616C31.8496 17.7589 31.8054 17.7492 31.7629 17.7325C31.7203 17.7153 31.6816 17.6919 31.6466 17.6623C31.6121 17.6321 31.5831 17.5977 31.5594 17.5589C31.5357 17.5196 31.519 17.4776 31.5093 17.4329C31.4996 17.3882 31.4975 17.343 31.5029 17.2973C31.5077 17.252 31.5198 17.2087 31.5392 17.1672C31.5586 17.1253 31.5841 17.0878 31.6159 17.055C31.6471 17.0216 31.6829 16.9944 31.7233 16.9734C31.7642 16.9519 31.8073 16.9376 31.8525 16.9306C31.8972 16.9231 31.9421 16.9231 31.9874 16.9306C32.0326 16.9382 32.0754 16.9527 32.1158 16.9742C32.1561 16.9958 32.1919 17.0232 32.2232 17.0566C32.2549 17.09 32.2802 17.1274 32.2991 17.1689C32.3185 17.2103 32.3306 17.2539 32.3354 17.2997C32.3397 17.3449 32.337 17.3899 32.3273 17.4345C32.3171 17.4792 32.3002 17.5212 32.2765 17.5605C32.2528 17.5998 32.2409 17.6195 32.2409 17.6195C32.2415 17.6195 31.5166 18.5317 30.0663 20.3562C28.6159 22.1807 27.168 24.1669 25.7226 26.3149C24.2771 28.4624 22.3662 31.3216 19.9899 34.8925C17.6136 38.4634 15.4212 42.205 13.4126 46.1172C11.4034 50.0294 9.36308 54.7429 7.2915 60.2578C5.21991 65.7733 3.87376 71.1291 3.25304 76.3252C2.63232 81.522 2.8019 86.1338 3.76178 90.1607C4.72221 94.1875 6.34346 98.0432 8.62553 101.728C10.9065 105.412 13.7022 108.596 17.0125 111.281C20.3229 113.965 24.1767 116.461 28.5739 118.769C32.9712 121.077 37.9227 123.21 43.4284 125.167C48.9342 127.125 54.4733 128.639 60.0458 129.709C65.6177 130.781 71.5528 131.549 77.851 132.015C84.1492 132.481 90.9605 132.678 98.2848 132.607C105.61 132.535 112.693 132.216 119.536 131.648C126.378 131.081 133.294 130.259 140.284 129.183C147.274 128.107 154.476 126.739 161.889 125.077C169.303 123.415 176.145 121.696 182.415 119.918C188.685 118.14 194.854 116.268 200.921 114.302C206.988 112.336 213.012 110.185 218.993 107.85C224.974 105.515 230.116 103.309 234.421 101.233C238.725 99.1557 243.297 96.7708 248.137 94.078C252.977 91.3857 257.275 88.678 261.03 85.955C264.785 83.2321 267.948 80.6348 270.518 78.1632C273.089 75.6911 275.751 72.8394 278.504 69.6082C281.258 66.3765 283.645 63.2527 285.666 60.2368C287.687 57.2215 289.27 54.4716 290.416 51.9871C291.562 49.5032 292.472 47.076 293.146 44.7056C293.82 42.3358 294.191 39.9808 294.257 37.6405C294.324 35.3009 294.042 32.9536 293.411 30.5989C292.78 28.2436 291.705 26.1583 290.187 24.343C288.668 22.5282 286.704 20.7653 284.294 19.0544C281.883 17.343 279.284 15.873 276.498 14.6445C273.713 13.4155 270.655 12.3019 267.325 11.3038C263.995 10.3051 259.944 9.19262 255.171 7.96625C250.398 6.73989 245.786 5.76547 241.336 5.043C236.886 4.32106 232.056 3.77221 226.847 3.39644C221.638 3.02121 215.945 2.8597 209.77 2.91192C203.594 2.96414 197.562 3.19725 191.674 3.61125C185.785 4.02524 179.777 4.52268 173.649 5.10356C167.52 5.68391 161.27 6.31809 154.898 7.0061C148.526 7.69358 141.902 8.44135 135.028 9.24942C128.154 10.0569 121.673 10.8995 115.584 11.777C109.496 12.655 103.257 13.6879 96.8659 14.8755C90.4757 16.0631 84.5398 17.3549 79.0583 18.7508C73.5773 20.1468 68.0834 21.7155 62.5766 23.4571C57.0698 25.1992 52.2208 26.94 48.0298 28.6794C43.8387 30.4183 39.9851 32.2411 36.4692 34.148C32.9532 36.0548 29.2776 38.2448 25.4423 40.718C21.6077 43.1907 18.7713 45.2577 16.9334 46.9191C15.0955 48.5804 13.6268 50.0523 12.5275 51.3346C11.4282 52.6175 10.6357 53.7082 10.1502 54.6067C9.66456 55.5053 9.40911 56.1109 9.38381 56.4237C9.3585 56.7365 9.39376 57.0334 9.48959 57.3144C9.58542 57.5949 9.64248 57.751 9.66079 57.7828C9.67909 57.8151 9.69309 57.849 9.70278 57.8845C9.71301 57.9195 9.71866 57.9556 9.71974 57.9927C9.72081 58.0288 9.71758 58.0649 9.71005 58.1009C9.70251 58.137 9.69067 58.1714 9.67452 58.2043C9.6589 58.2377 9.63925 58.2684 9.61557 58.2963C9.59242 58.3249 9.56604 58.3502 9.53643 58.3723C9.50682 58.3938 9.47506 58.4118 9.44114 58.4264C9.40722 58.4404 9.37196 58.4503 9.33535 58.4562C9.29928 58.4616 9.26295 58.4627 9.22634 58.4595C9.18973 58.4562 9.1542 58.4487 9.11974 58.4369C9.08475 58.425 9.05164 58.4091 9.02042 58.3892C8.98973 58.3693 8.96174 58.3461 8.93643 58.3198C8.91113 58.2928 8.89848 58.2794 8.89848 58.2794Z" fill="black"/>
</svg>
