<svg width="100" height="138" viewBox="0 0 100 138" fill="none" xmlns="http://www.w3.org/2000/svg">
<path d="M46.3513 45.5735C46.3513 45.5735 46.2508 45.4306 46.0497 45.1449C45.8483 44.8588 45.6812 44.581 45.5486 44.3115C45.4159 44.0419 45.2708 43.3758 45.1131 42.3129C44.9551 41.25 44.9605 40.1332 45.1295 38.9624C45.2988 37.7915 45.7285 36.5683 46.4185 35.2928C47.1081 34.0172 47.9941 33.0176 49.0764 32.2941C50.1586 31.5706 51.396 31.3051 52.7883 31.4978C54.1807 31.6904 55.5624 32.4107 56.9336 33.6588C58.3051 34.9068 59.567 36.7089 60.7191 39.065C61.8716 41.4208 62.721 44.082 63.2674 47.0487C63.8139 50.0158 64.1296 52.6737 64.2146 55.0224C64.3 57.371 64.1215 59.7342 63.6791 62.1118C63.2367 64.4894 62.6351 66.5959 61.8742 68.4313C61.1133 70.2668 60.1524 71.8425 58.9914 73.1587C57.8301 74.4748 56.4593 75.5379 54.8789 76.3478C53.2986 77.1578 52.0038 77.7709 50.9945 78.1871C49.9849 78.6034 49.3002 78.8299 48.9404 78.8666C48.5802 78.9029 48.4578 79.111 48.5732 79.4909C48.6882 79.8709 48.9046 80.3635 49.2224 80.9688C49.5403 81.5742 49.8808 82.3063 50.2442 83.1653C50.6075 84.0239 50.9169 85.0348 51.1723 86.1978C51.4281 87.3612 51.5801 88.4767 51.6284 89.5441C51.6768 90.6116 51.685 91.5235 51.6533 92.2798C51.6219 93.0361 51.4178 93.5564 51.0411 93.8407C50.664 94.1247 50.3326 94.2499 50.0468 94.2164C49.7611 94.1829 49.6036 94.163 49.5743 94.1566C49.545 94.1503 49.5175 94.1394 49.4917 94.1238C49.466 94.1083 49.4434 94.0891 49.424 94.0662C49.4046 94.0436 49.3893 94.0184 49.378 93.9905C49.367 93.9626 49.3607 93.9337 49.3589 93.9037C49.3575 93.8737 49.3609 93.8443 49.369 93.8153C49.3767 93.7864 49.3891 93.7596 49.406 93.7349C49.423 93.7102 49.4432 93.6887 49.4669 93.6704C49.4909 93.6524 49.5171 93.6386 49.5457 93.6291C49.5739 93.6192 49.603 93.6143 49.633 93.6143C49.663 93.6143 49.6923 93.6192 49.7209 93.6291C49.7491 93.6386 49.7752 93.6524 49.7992 93.6704C49.8228 93.6887 49.8431 93.7102 49.86 93.7349C49.877 93.7596 49.8895 93.7864 49.8976 93.8153C49.9054 93.8443 49.9085 93.8737 49.9071 93.9037C49.9054 93.9337 49.899 93.9626 49.8881 93.9905C49.8768 94.0184 49.8614 94.0438 49.842 94.0667C49.8226 94.0893 49.8001 94.1083 49.7743 94.1238C49.7486 94.1394 49.721 94.1503 49.6918 94.1566C49.6625 94.163 49.633 94.1646 49.6034 94.1614C49.5734 94.1582 49.5448 94.1503 49.5177 94.1376C49.4905 94.1252 49.466 94.1087 49.4441 94.0879C49.4226 94.0674 49.4048 94.0439 49.3907 94.0175C49.3766 93.9907 49.367 93.9626 49.3621 93.9333C49.3575 93.9037 49.3575 93.8741 49.3621 93.8444C49.367 93.8148 49.3766 93.7868 49.3907 93.7603C49.4048 93.7339 49.4228 93.7102 49.4447 93.6894C49.4662 93.6689 49.4905 93.6524 49.5177 93.6397C49.5452 93.6273 49.5738 93.6194 49.6034 93.6159C49.6334 93.6127 49.6484 93.6111 49.6484 93.6111C49.648 93.6111 49.7013 93.537 49.8082 93.3889C49.9151 93.2403 49.9722 92.841 49.9796 92.1909C49.9874 91.5407 49.9731 90.7296 49.9368 89.7574C49.9008 88.7851 49.7708 87.7681 49.5468 86.7063C49.3231 85.6445 49.0374 84.7014 48.6896 83.877C48.3417 83.0526 47.9832 82.2545 47.6138 81.4826C47.2445 80.7104 47.0505 80.0349 47.0318 79.456C47.0134 78.8768 47.3083 78.3609 47.9165 77.9083C48.5247 77.456 49.3147 77.0301 50.2865 76.6304C51.2584 76.2311 52.4555 75.6869 53.8778 74.998C55.2998 74.3087 56.5375 73.3864 57.5908 72.2311C58.6441 71.0758 59.5317 69.6406 60.2534 67.9255C60.9752 66.2107 61.5523 64.2271 61.9848 61.9747C62.4173 59.7224 62.5951 57.4636 62.5182 55.1986C62.4413 52.9338 62.1525 50.3887 61.652 47.563C61.1514 44.7374 60.3817 42.2265 59.3428 40.0302C58.3043 37.8339 57.2278 36.1699 56.1134 35.0382C54.9991 33.9066 53.9094 33.2155 52.8444 32.9651C51.7794 32.7146 50.8171 32.8518 49.9574 33.3767C49.0981 33.902 48.3324 34.7125 47.6604 35.8081C46.9884 36.9042 46.5457 37.9794 46.3322 39.0338C46.1185 40.0886 46.0354 41.1066 46.083 42.088C46.1303 43.0694 46.2051 43.6851 46.3074 43.9352C46.4093 44.1857 46.5317 44.4706 46.6746 44.7898C46.8175 45.1091 46.8937 45.2801 46.9032 45.3031C46.9127 45.326 46.9194 45.3496 46.9233 45.374C46.9272 45.3987 46.9281 45.4232 46.9259 45.4475C46.9238 45.4722 46.9187 45.4964 46.9106 45.52C46.9025 45.5437 46.8917 45.5659 46.8783 45.5867C46.8649 45.6075 46.8492 45.6266 46.8312 45.6438C46.8132 45.6608 46.7933 45.6754 46.7714 45.6878C46.7499 45.7001 46.7272 45.7096 46.7032 45.7163C46.6792 45.723 46.6548 45.7269 46.6301 45.728C46.6058 45.7287 46.5815 45.7264 46.5571 45.7211C46.5328 45.7162 46.5093 45.7082 46.4868 45.6973C46.4645 45.6867 46.4437 45.6735 46.4243 45.6576C46.4053 45.6417 46.3883 45.6237 46.3735 45.6036C46.3587 45.5835 46.3513 45.5735 46.3513 45.5735Z" fill="black"/>
<path d="M53.3788 131.474C53.3788 131.474 53.6753 130.95 54.2682 129.901C54.8616 128.852 55.7964 127.428 57.0727 125.63C58.349 123.832 59.8876 121.708 61.6884 119.259C63.4889 116.809 65.6275 114.127 68.1043 111.213C70.5806 108.299 72.8348 105.803 74.8667 103.726C76.8986 101.649 78.6215 100.014 80.0353 98.8192C81.4492 97.6244 82.4627 96.78 83.0758 96.2862C83.6885 95.7919 84.2219 95.3646 84.6759 95.0041C85.1299 94.6435 85.3696 94.4552 85.395 94.4389C85.4204 94.4231 85.4476 94.4114 85.4765 94.404C85.5058 94.397 85.5353 94.3947 85.5649 94.3971C85.5949 94.3996 85.6236 94.4068 85.6511 94.4188C85.6786 94.4305 85.7035 94.4463 85.7257 94.4665C85.748 94.4866 85.7665 94.5097 85.7813 94.5358C85.7961 94.5619 85.8063 94.5896 85.812 94.6188C85.8176 94.6485 85.8183 94.6781 85.8141 94.7077C85.8102 94.7374 85.8016 94.7656 85.7882 94.7924C85.7748 94.8196 85.7575 94.8437 85.7363 94.8649C85.7148 94.8861 85.6906 94.9032 85.6638 94.9162C85.637 94.9296 85.6088 94.9383 85.5792 94.9421C85.5495 94.9464 85.5199 94.9455 85.4903 94.9395C85.461 94.9339 85.4333 94.9236 85.4072 94.9088C85.3811 94.894 85.358 94.8755 85.3379 94.8533C85.3178 94.831 85.3019 94.8062 85.2903 94.7786C85.2786 94.7508 85.2716 94.722 85.2691 94.6924C85.2666 94.6624 85.2691 94.633 85.2765 94.604C85.2836 94.5747 85.2952 94.5476 85.3114 94.5225C85.3277 94.4971 85.3474 94.4751 85.3707 94.4564C85.3943 94.4377 85.4203 94.4232 85.4485 94.413C85.4763 94.4024 85.5053 94.3968 85.5353 94.3961C85.5652 94.3954 85.5947 94.3994 85.6236 94.4082C85.6522 94.4171 85.6786 94.4303 85.703 94.4479C85.7273 94.4656 85.7481 94.4866 85.7654 94.5109C85.7831 94.5352 85.7961 94.5617 85.8046 94.5903C85.8134 94.6188 85.8175 94.6481 85.8168 94.6781C85.8157 94.7081 85.8101 94.7372 85.7998 94.7654C85.7892 94.7936 85.7746 94.8194 85.7559 94.8427C85.7372 94.866 85.7279 94.8776 85.7279 94.8776C85.7279 94.8776 85.5234 95.0833 85.1146 95.4946C84.7061 95.9059 84.2247 96.3865 83.6706 96.9365C83.1164 97.4868 82.2011 98.4146 80.9248 99.7198C79.6485 101.025 78.0119 102.709 76.0149 104.773C74.0179 106.837 71.7827 109.305 69.3091 112.177C66.8355 115.049 64.6841 117.697 62.8546 120.119C61.0252 122.542 59.4521 124.63 58.1352 126.385C56.8187 128.14 55.7756 129.482 55.0059 130.409C54.2365 131.337 53.8441 131.809 53.8285 131.826C53.8134 131.843 53.7963 131.858 53.7772 131.872C53.7582 131.885 53.7379 131.895 53.7164 131.904C53.6948 131.912 53.6726 131.917 53.6497 131.92C53.6268 131.923 53.604 131.923 53.5814 131.92C53.5585 131.917 53.5361 131.912 53.5142 131.904C53.4927 131.896 53.4724 131.885 53.4534 131.872C53.4343 131.858 53.4172 131.843 53.402 131.826C53.3869 131.809 53.3738 131.79 53.3629 131.769C53.3523 131.749 53.3442 131.728 53.3385 131.705C53.3329 131.683 53.3301 131.66 53.3301 131.637C53.3301 131.614 53.3329 131.592 53.3385 131.569C53.3442 131.547 53.3523 131.525 53.3629 131.505C53.3735 131.484 53.3788 131.474 53.3788 131.474Z" fill="black"/>
<path d="M66.9085 136.661C66.9085 136.661 67.0948 136.475 67.4673 136.103C67.8398 135.731 68.2772 135.28 68.7796 134.751C69.2819 134.222 70.0536 133.271 71.0946 131.895C72.1356 130.52 73.5879 128.609 75.4515 126.163C77.3152 123.716 79.2606 121.352 81.288 119.071C83.3149 116.789 85.2564 114.753 87.1122 112.962C88.9678 111.171 90.6451 109.623 92.1444 108.316C93.6436 107.01 94.8257 105.993 95.6907 105.265C96.5557 104.538 97.2113 103.999 97.6575 103.651C98.1041 103.302 98.4692 102.945 98.7528 102.579C99.0364 102.213 99.1885 102.019 99.2089 101.997C99.2298 101.975 99.2534 101.957 99.2799 101.943C99.3063 101.929 99.3344 101.92 99.364 101.915C99.3936 101.91 99.4231 101.91 99.4524 101.915C99.482 101.92 99.51 101.929 99.5365 101.943C99.5629 101.957 99.5866 101.975 99.6074 101.997C99.6279 102.019 99.6444 102.043 99.6571 102.07C99.6698 102.098 99.6778 102.126 99.6809 102.156C99.6841 102.186 99.6825 102.215 99.6762 102.244C99.6698 102.274 99.6589 102.301 99.6434 102.327C99.6279 102.353 99.6088 102.375 99.5862 102.395C99.5633 102.414 99.5379 102.429 99.51 102.441C99.4822 102.452 99.4532 102.458 99.4233 102.46C99.3933 102.461 99.3638 102.458 99.3349 102.45C99.3063 102.442 99.2795 102.43 99.2545 102.413C99.2298 102.396 99.2082 102.376 99.1899 102.352C99.1719 102.328 99.1582 102.302 99.1486 102.274C99.1387 102.245 99.1338 102.216 99.1338 102.186C99.1338 102.156 99.1386 102.127 99.1481 102.098C99.158 102.07 99.1719 102.044 99.1899 102.02C99.2079 101.996 99.2294 101.976 99.2545 101.959C99.2791 101.942 99.306 101.93 99.3349 101.922C99.3638 101.914 99.3933 101.91 99.4233 101.912C99.4532 101.914 99.4822 101.92 99.51 101.931C99.5375 101.942 99.5628 101.957 99.5857 101.977C99.6086 101.996 99.6279 102.019 99.6434 102.044C99.6589 102.07 99.6698 102.098 99.6762 102.127C99.6825 102.156 99.6841 102.186 99.6809 102.215C99.6778 102.245 99.6698 102.274 99.6571 102.301C99.6448 102.328 99.6386 102.342 99.6386 102.342C99.6386 102.342 99.5116 102.556 99.2576 102.984C99.0033 103.412 98.7077 103.882 98.3708 104.394C98.0335 104.905 97.4517 105.547 96.6251 106.32C95.7986 107.092 94.6539 108.135 93.191 109.45C91.7285 110.764 90.08 112.3 88.2457 114.059C86.4113 115.817 84.4794 117.813 82.45 120.047C80.4205 122.281 78.4435 124.6 76.5188 127.004C74.5938 129.407 73.0658 131.286 71.9349 132.64C70.8039 133.994 69.9626 134.927 69.4108 135.44C68.8595 135.952 68.3681 136.36 67.9367 136.662C67.5052 136.964 67.2795 137.122 67.2594 137.135C67.2396 137.148 67.2184 137.158 67.1959 137.166C67.1733 137.174 67.1502 137.179 67.1265 137.182C67.1029 137.184 67.0793 137.183 67.0556 137.179C67.0324 137.176 67.0096 137.17 66.9874 137.161C66.9651 137.152 66.9445 137.14 66.9255 137.126C66.9061 137.112 66.8888 137.096 66.8736 137.077C66.8581 137.059 66.8452 137.04 66.835 137.018C66.8244 136.997 66.8165 136.974 66.8112 136.951C66.8062 136.928 66.8041 136.904 66.8048 136.88C66.8055 136.857 66.8091 136.834 66.8154 136.811C66.8214 136.787 66.8304 136.765 66.8424 136.745C66.854 136.724 66.868 136.705 66.8842 136.687C66.9004 136.67 66.9085 136.661 66.9085 136.661Z" fill="black"/>
<path d="M46.2579 45.6965C46.2579 45.6965 46.0806 45.8249 45.7261 46.0817C45.3712 46.3388 44.9927 46.5729 44.5906 46.7839C44.1881 46.9945 43.7801 47.2142 43.3667 47.4432C42.9536 47.6721 42.5562 47.8947 42.1745 48.1109C41.7928 48.3272 41.4261 48.5305 41.0744 48.721C40.7224 48.9115 40.4431 49.0609 40.2368 49.1692C40.0308 49.2775 39.8473 49.3733 39.6865 49.4565C39.526 49.5394 39.4212 49.5899 39.3722 49.6079C39.3235 49.6259 39.2732 49.6377 39.2214 49.6433C39.1695 49.6493 39.1176 49.649 39.0658 49.6423C39.0143 49.6352 38.9642 49.6223 38.9155 49.6036C38.8668 49.5846 38.8211 49.5601 38.7785 49.5301C38.7358 49.5001 38.6975 49.4654 38.6636 49.4259C38.6294 49.3867 38.6003 49.3438 38.5763 49.2973C38.5527 49.2511 38.5349 49.2026 38.5229 49.1518C38.5109 49.101 38.5051 49.0495 38.5054 48.9973C38.5058 48.945 38.5125 48.8937 38.5255 48.8433C38.5386 48.7928 38.5575 48.7447 38.5822 48.6988C38.6068 48.653 38.6367 48.6106 38.6716 48.5718C38.7065 48.533 38.7455 48.499 38.7885 48.4697C38.8319 48.4404 38.7972 48.2799 38.6843 47.9882C38.5714 47.6961 38.4897 47.3597 38.4393 46.9791C38.3892 46.5988 38.3319 46.2027 38.2673 45.7907C38.2031 45.3793 38.1387 44.9731 38.0742 44.572C38.0096 44.1713 37.9444 43.7942 37.8784 43.4407C37.8128 43.0873 37.7572 42.7952 37.7117 42.5645C37.6666 42.3334 37.623 42.1129 37.581 41.903C37.5394 41.6935 37.5009 41.4896 37.4657 41.2914C37.43 41.0935 37.3967 40.8977 37.3657 40.704C37.3346 40.5103 37.3078 40.3123 37.2852 40.1098C37.263 39.9076 37.2415 39.7212 37.2207 39.5505C37.1999 39.3801 37.1748 39.2124 37.1455 39.0473C37.1163 38.8825 37.0986 38.6827 37.0926 38.4477C37.0866 38.2128 37.0956 37.9969 37.1196 37.8001C37.1432 37.6032 37.1704 37.4113 37.2011 37.2244C37.2318 37.0371 37.2611 36.8586 37.2889 36.6889C37.3172 36.5192 37.3496 36.3511 37.3863 36.1846C37.423 36.0185 37.4657 35.8493 37.5143 35.6772C37.563 35.505 37.6371 35.2833 37.7366 35.012C37.8361 34.7408 37.943 34.4711 38.0572 34.203C38.1715 33.9349 38.2917 33.6643 38.4176 33.3913C38.5432 33.1179 38.6689 32.8484 38.7949 32.5827C38.9208 32.3168 39.0543 32.0502 39.1954 31.7832C39.3365 31.5158 39.4701 31.2594 39.596 31.0138C39.7223 30.7683 39.8403 30.545 39.95 30.3439C40.0597 30.1432 40.1883 29.9203 40.3357 29.6751C40.4828 29.4299 40.6061 29.2292 40.7056 29.0729C40.8051 28.9167 40.9227 28.7338 41.0585 28.5242C41.194 28.3143 41.312 28.1325 41.4125 27.9787C41.5134 27.8252 41.666 27.6169 41.8702 27.3538C42.0745 27.091 42.2805 26.8426 42.4883 26.6087C42.6957 26.3748 42.9044 26.1471 43.1143 25.9256C43.3245 25.7041 43.4998 25.5198 43.6402 25.3726C43.7806 25.2255 43.9478 25.0578 44.1418 24.8694C44.3359 24.6811 44.5295 24.4964 44.7228 24.3154C44.9162 24.1348 45.1192 23.9443 45.3319 23.744C45.5446 23.5439 45.7686 23.3386 46.0039 23.128C46.2385 22.9171 46.4861 22.7142 46.7468 22.5195C47.0072 22.3248 47.2772 22.1361 47.5569 21.9533C47.837 21.771 48.1293 21.5995 48.4337 21.439C48.7382 21.2785 49.0382 21.1351 49.3338 21.0088C49.6294 20.8822 49.9291 20.7592 50.2328 20.64C50.5362 20.5211 50.833 20.4102 51.1233 20.3072C51.4137 20.2042 51.7021 20.0978 51.9885 19.9881C52.2746 19.8784 52.5582 19.766 52.8394 19.651C53.1205 19.5364 53.4339 19.4348 53.7796 19.3463C54.1253 19.2581 54.434 19.1965 54.7056 19.1616C54.9773 19.127 55.2854 19.0983 55.6301 19.0753C55.9751 19.0528 56.2765 19.0422 56.5344 19.0436C56.7919 19.0446 57.0815 19.0549 57.4032 19.0743C57.7249 19.094 58.0115 19.1177 58.2631 19.1452C58.5142 19.1727 58.7906 19.2318 59.0922 19.3224C59.3938 19.4135 59.6482 19.5073 59.8553 19.6039C60.0627 19.701 60.2939 19.8399 60.549 20.0209C60.8044 20.2015 61.0363 20.3717 61.2448 20.5315C61.4533 20.6913 61.6339 20.8328 61.7866 20.9559C61.9397 21.079 62.0831 21.1968 62.2168 21.3094C62.3505 21.4223 62.4749 21.5297 62.5899 21.6316C62.7045 21.7339 62.8477 21.886 63.0195 22.0877C63.1913 22.2895 63.337 22.4807 63.4566 22.6613C63.5762 22.8419 63.6966 23.0411 63.818 23.2587C63.9397 23.4767 64.0455 23.6778 64.1355 23.8619C64.2258 24.0461 64.3466 24.2734 64.4979 24.544C64.6496 24.8146 64.7997 25.0931 64.9482 25.3795C65.0971 25.666 65.2222 25.9394 65.3234 26.1997C65.4246 26.4604 65.51 26.6835 65.5795 26.8691C65.649 27.0546 65.7171 27.2241 65.7838 27.3776C65.8508 27.531 65.9723 27.7753 66.1483 28.1104C66.3244 28.4456 66.4561 28.7024 66.5436 28.8809C66.6311 29.059 66.7138 29.2292 66.7918 29.3915C66.8701 29.5534 66.9657 29.7471 67.0786 29.9725C67.1915 30.1979 67.3077 30.442 67.4273 30.7048C67.5469 30.968 67.6712 31.2257 67.8003 31.4779C67.9294 31.7305 68.0413 31.9432 68.1358 32.116C68.23 32.2889 68.3363 32.496 68.4549 32.7372C68.5734 32.9785 68.6942 33.2607 68.8173 33.5839C68.9404 33.907 69.0579 34.2305 69.1697 34.5543C69.2812 34.8785 69.3742 35.1411 69.4486 35.3422C69.5227 35.5433 69.6072 35.7798 69.7021 36.0518C69.7966 36.3234 69.8765 36.5525 69.9418 36.7391C70.007 36.9261 70.0702 37.0997 70.1312 37.2598C70.1922 37.42 70.2538 37.5777 70.3159 37.7329C70.3779 37.8877 70.4367 38.0435 70.4921 38.2001C70.5478 38.3567 70.6127 38.5705 70.6868 38.8414C70.7609 39.1127 70.8244 39.3547 70.8773 39.5674C70.9305 39.7805 70.9792 39.9696 71.0233 40.1347C71.0678 40.3001 71.1251 40.4991 71.1953 40.7315C71.2651 40.964 71.3299 41.1686 71.3895 41.3453C71.4491 41.5217 71.5077 41.6997 71.5652 41.8792C71.6227 42.0584 71.6909 42.2727 71.7699 42.5221C71.849 42.7715 71.9202 43.0112 71.9837 43.2412C72.0472 43.4709 72.1156 43.7192 72.189 43.9863C72.2627 44.253 72.3398 44.5334 72.4203 44.8276C72.501 45.1218 72.567 45.3841 72.6182 45.6144C72.6693 45.8455 72.7164 46.0632 72.7594 46.2674C72.8025 46.4717 72.8496 46.7219 72.9007 47.0183C72.9519 47.3142 72.9977 47.5769 73.0383 47.8062C73.0792 48.0354 73.1221 48.3238 73.1669 48.6713C73.212 49.0191 73.2466 49.3084 73.2706 49.5391C73.2949 49.7698 73.3164 49.9894 73.3351 50.1979C73.3538 50.4064 73.3701 50.6237 73.3838 50.8498C73.3972 51.0762 73.4052 51.363 73.4076 51.7102C73.4105 52.0573 73.4131 52.3495 73.4156 52.587C73.418 52.824 73.4232 53.0445 73.4309 53.2484C73.4387 53.4519 73.4461 53.7146 73.4531 54.0363C73.4598 54.358 73.4639 54.6559 73.4653 54.93C73.4664 55.2044 73.4706 55.4528 73.478 55.675C73.4851 55.8976 73.5001 56.1567 73.523 56.4523C73.5459 56.7479 73.565 57.0116 73.5801 57.2434C73.5957 57.4752 73.6151 57.7452 73.6383 58.0535C73.6616 58.3615 73.6856 58.6405 73.7103 58.8906C73.735 59.1407 73.7615 59.4362 73.7897 59.7769C73.8179 60.1181 73.8414 60.4149 73.86 60.6675C73.8791 60.9204 73.896 61.1684 73.9108 61.4115C73.9257 61.6545 73.9382 61.9272 73.9484 62.2295C73.9583 62.5322 73.9638 62.8377 73.9648 63.146C73.9655 63.4543 73.9661 63.7309 73.9664 63.9757C73.9668 64.2201 73.9625 64.4674 73.9537 64.7175C73.9452 64.9676 73.9347 65.1767 73.922 65.3446C73.9093 65.5121 73.8897 65.7079 73.8632 65.9319C73.8364 66.1556 73.8038 66.3785 73.7653 66.6007C73.7269 66.8233 73.6845 67.0445 73.6383 67.2643C73.5921 67.4841 73.5403 67.7049 73.4828 67.9268C73.4256 68.1487 73.3708 68.3499 73.3182 68.5305C73.2656 68.7108 73.2076 68.897 73.1441 69.0893C73.0806 69.2812 73.0104 69.4701 72.9335 69.656C72.8563 69.8416 72.7822 70.0185 72.7113 70.1867C72.6404 70.3547 72.5712 70.5222 72.5039 70.6894C72.4361 70.8566 72.364 71.0238 72.2874 71.1911C72.2105 71.3586 72.126 71.5295 72.034 71.7038C71.9419 71.8777 71.8403 72.0599 71.7292 72.2504C71.6181 72.4409 71.5209 72.6162 71.4376 72.7764C71.3547 72.9369 71.2373 73.1543 71.0852 73.4288C70.9335 73.7032 70.8154 73.9124 70.7307 74.0564C70.6457 74.2003 70.5556 74.3483 70.4603 74.5003C70.3651 74.6523 70.2753 74.8079 70.191 74.967C70.107 75.1261 70.0204 75.2921 69.9312 75.4649C69.8423 75.6378 69.7518 75.8046 69.6597 75.9655C69.5676 76.126 69.4692 76.2893 69.3645 76.4555C69.2597 76.6216 69.1357 76.8 68.9925 76.9904C68.8496 77.1806 68.6649 77.4275 68.4385 77.7312C68.212 78.0346 68.0301 78.2664 67.8929 78.4265C67.7557 78.5863 67.6278 78.7386 67.5093 78.8832C67.3908 79.0278 67.2798 79.1628 67.1765 79.288C67.0735 79.4136 66.9045 79.5936 66.6695 79.8282C66.435 80.0632 66.2501 80.233 66.115 80.3378C65.9799 80.4429 65.851 80.5473 65.7282 80.6511C65.6054 80.7548 65.4585 80.8731 65.2874 81.0061C65.1163 81.1391 64.9341 81.2709 64.7408 81.4014C64.5475 81.5319 64.3754 81.6453 64.2244 81.7416C64.0737 81.8376 63.9226 81.9311 63.7709 82.0221C63.6189 82.1127 63.4661 82.1956 63.3127 82.2708C63.1589 82.3459 62.9885 82.4263 62.8015 82.512C62.6142 82.5978 62.4293 82.6681 62.247 82.7232C62.0646 82.7786 61.8893 82.8091 61.721 82.8147C61.5527 82.8204 61.3908 82.8114 61.2353 82.7877C61.0797 82.7641 60.9266 82.7396 60.776 82.7142C60.6253 82.6884 60.4549 82.6754 60.2648 82.675C60.075 82.6747 59.8893 82.6729 59.7076 82.6697C59.5263 82.6666 59.3325 82.6505 59.1261 82.6216C58.9201 82.5927 58.7403 82.5671 58.5869 82.5449C58.4334 82.5223 58.4248 82.4709 58.561 82.3909C58.6971 82.3111 58.825 82.372 58.9446 82.5734C59.0642 82.7752 59.1515 82.9765 59.2065 83.1772C59.2612 83.3779 59.3192 83.5823 59.3806 83.7905C59.442 83.9989 59.5013 84.1979 59.5584 84.3873C59.6155 84.5768 59.6782 84.7743 59.7462 84.98C59.8147 85.186 59.8865 85.4121 59.9616 85.6583C60.0371 85.9046 60.1039 86.1222 60.1622 86.3113C60.2207 86.5007 60.2759 86.6767 60.3278 86.8394C60.38 87.002 60.4385 87.1715 60.5034 87.3479C60.5687 87.5243 60.6296 87.7015 60.686 87.8797C60.7428 88.0578 60.7968 88.2375 60.8479 88.4189C60.8994 88.5998 60.9121 88.8065 60.886 89.039C60.8596 89.2715 60.8163 89.4704 60.7564 89.6359C60.6961 89.8013 60.589 89.9393 60.4352 90.0497C60.2814 90.1601 60.1373 90.2617 60.0029 90.3545C59.8685 90.4472 59.6868 90.5448 59.4579 90.6471C59.2289 90.7494 58.9866 90.8691 58.7308 91.0064C58.4754 91.1439 58.2271 91.2669 57.9858 91.3752C57.7449 91.4835 57.535 91.5759 57.3561 91.6524C57.1773 91.729 56.9847 91.8096 56.7783 91.8943C56.5716 91.9793 56.391 92.0636 56.2364 92.1472C56.0819 92.2308 55.9325 92.3135 55.7883 92.3954C55.644 92.4772 55.4962 92.5578 55.3448 92.6372C55.1935 92.7162 55.0378 92.7931 54.8776 92.8679C54.7175 92.9423 54.5464 93.015 54.3643 93.0859C54.1827 93.1568 53.9795 93.2344 53.7548 93.3187C53.5301 93.403 53.3366 93.476 53.1743 93.5378C53.012 93.5995 52.8556 93.6704 52.705 93.7505C52.554 93.8306 52.3931 93.9293 52.2224 94.0468C52.0513 94.1639 51.8529 94.1814 51.6271 94.0992C51.4013 94.0167 51.2745 93.981 51.2466 93.9923C51.2188 94.0036 51.1898 94.0101 51.1599 94.0119C51.1302 94.0137 51.1009 94.0105 51.072 94.0024C51.0431 93.9946 51.0161 93.9824 50.9911 93.9659C50.966 93.9489 50.9445 93.9286 50.9265 93.905C50.9082 93.8814 50.8941 93.8553 50.8842 93.8267C50.8747 93.7985 50.8697 93.7694 50.8694 93.7394C50.8694 93.7094 50.8741 93.6801 50.8836 93.6515C50.8928 93.6233 50.9064 93.5972 50.9244 93.5732C50.9424 93.5492 50.9639 93.5288 50.9889 93.5119C51.0136 93.4949 51.0403 93.4822 51.0688 93.4737C51.0978 93.4656 51.1272 93.4623 51.1572 93.4637C51.1872 93.4655 51.2161 93.4718 51.244 93.4827C51.2719 93.4937 51.2973 93.5087 51.3202 93.5277C51.3431 93.5471 51.3625 93.5697 51.3784 93.5955C51.3939 93.6209 51.4049 93.6482 51.4112 93.6775C51.4179 93.7068 51.4197 93.7364 51.4165 93.7664C51.4137 93.796 51.4059 93.8246 51.3932 93.8521C51.3809 93.8792 51.3645 93.9038 51.344 93.9256C51.3235 93.9475 51.3001 93.9655 51.2736 93.9796C51.2472 93.9937 51.2191 94.0032 51.1895 94.0082C51.1599 94.0135 51.1302 94.0136 51.1006 94.0087C51.071 94.0041 51.0429 93.9948 51.0165 93.9807C50.99 93.9669 50.9664 93.9493 50.9456 93.9278C50.9247 93.9059 50.908 93.8814 50.8953 93.8542C50.8826 93.827 50.8747 93.7986 50.8715 93.769C50.8679 93.739 50.8694 93.7094 50.8757 93.6801C50.8821 93.6508 50.8928 93.6233 50.908 93.5976C50.9235 93.5718 50.9426 93.5492 50.9651 93.5298C50.9881 93.5101 50.9995 93.5002 50.9995 93.5002C50.9995 93.5002 51.0318 93.3639 51.0964 93.0912C51.1613 92.8185 51.2745 92.6298 51.4361 92.525C51.5976 92.4202 51.7821 92.3151 51.9896 92.2096C52.1966 92.1042 52.3816 92.0204 52.5446 91.9583C52.7076 91.8962 52.9039 91.8216 53.1336 91.7345C53.3636 91.6473 53.6198 91.5445 53.9024 91.426C54.1853 91.3074 54.3938 91.2129 54.5278 91.1424C54.6615 91.0718 54.8078 90.9914 54.9665 90.9011C55.1249 90.8104 55.3066 90.7115 55.5115 90.6042C55.7165 90.497 55.9181 90.4026 56.1163 90.3211C56.3146 90.2396 56.5 90.1617 56.6725 90.0872C56.845 90.0125 57.0275 89.9331 57.2201 89.8491C57.4127 89.7652 57.5995 89.6726 57.7805 89.5713C57.9611 89.4701 58.1849 89.3616 58.452 89.2459C58.7194 89.1299 58.9264 89.0203 59.0732 88.9173C59.2199 88.8139 59.2647 88.6658 59.2076 88.4728C59.1504 88.2802 59.0839 88.0802 59.0081 87.8728C58.9319 87.6657 58.8677 87.4789 58.8155 87.3124C58.7633 87.1456 58.7077 86.9669 58.6488 86.7764C58.5902 86.5856 58.5248 86.3721 58.4525 86.1361C58.3805 85.9001 58.3093 85.6738 58.2387 85.4572C58.1685 85.2407 58.1033 85.0348 58.0429 84.8397C57.983 84.6443 57.9216 84.4383 57.8588 84.2217C57.7964 84.0051 57.7389 83.8021 57.6863 83.6127C57.6337 83.4229 57.5833 83.2458 57.535 83.0814C57.4866 82.917 57.4342 82.6872 57.3778 82.3919C57.3214 82.0967 57.3145 81.8714 57.3572 81.7162C57.3995 81.561 57.4842 81.4227 57.6112 81.3014C57.7385 81.1804 57.9017 81.0934 58.1006 81.0405C58.2999 80.9879 58.4888 80.9684 58.6673 80.9818C58.8458 80.9955 59.0211 81.02 59.1933 81.0553C59.3654 81.0902 59.5603 81.1084 59.778 81.1098C59.9956 81.1112 60.1955 81.1102 60.3775 81.1066C60.5595 81.1035 60.7276 81.1171 60.8818 81.1474C61.0359 81.1777 61.2 81.2081 61.3739 81.2384C61.5478 81.2684 61.7148 81.2583 61.875 81.2082C62.0348 81.1578 62.2203 81.0816 62.4316 80.9796C62.6429 80.8777 62.8181 80.7853 62.9571 80.7024C63.0957 80.6195 63.2354 80.5334 63.3762 80.4442C63.5166 80.3546 63.6686 80.2553 63.8323 80.1463C63.9956 80.0372 64.1551 79.9221 64.3106 79.8007C64.4658 79.679 64.6671 79.5185 64.9144 79.3192C65.1617 79.1195 65.3744 78.931 65.5525 78.7536C65.7303 78.5758 65.8707 78.4244 65.9737 78.2995C66.0767 78.1743 66.1912 78.0352 66.3171 77.8821C66.4431 77.7286 66.5686 77.579 66.6939 77.4333C66.8195 77.2876 66.944 77.1377 67.0675 76.9836C67.1913 76.8291 67.3034 76.6777 67.404 76.5296C67.5045 76.3814 67.6151 76.2274 67.7358 76.0676C67.8561 75.9082 67.9585 75.7616 68.0432 75.6279C68.1275 75.4942 68.2099 75.3579 68.2903 75.2189C68.3704 75.0799 68.4568 74.9204 68.5496 74.7405C68.642 74.5606 68.7395 74.3753 68.8422 74.1844C68.9449 73.9939 69.0399 73.8292 69.1274 73.6902C69.2149 73.5508 69.299 73.4126 69.3798 73.2753C69.4609 73.1378 69.5728 72.9402 69.7153 72.6827C69.8578 72.4255 69.9769 72.2054 70.0725 72.0223C70.1681 71.8393 70.2663 71.6618 70.3672 71.49C70.4681 71.3182 70.5575 71.1593 70.6355 71.0133C70.7138 70.8672 70.7866 70.7201 70.854 70.572C70.921 70.4238 70.99 70.2635 71.0609 70.091C71.1318 69.9188 71.2025 69.7491 71.2731 69.5819C71.3436 69.4147 71.4105 69.2569 71.4736 69.1083C71.5364 68.9602 71.5967 68.7992 71.6546 68.6252C71.7124 68.4513 71.7657 68.2813 71.8144 68.1152C71.8627 67.9494 71.9128 67.7675 71.9647 67.5696C72.0165 67.3714 72.0638 67.1713 72.1065 66.9696C72.1492 66.7674 72.1878 66.5688 72.2224 66.3737C72.2566 66.1783 72.2917 65.9069 72.3277 65.5594C72.3636 65.2119 72.3859 64.9225 72.3943 64.6911C72.4024 64.46 72.4063 64.2224 72.406 63.9783C72.4056 63.7342 72.4053 63.4659 72.4049 63.1735C72.4042 62.8807 72.3993 62.5906 72.3901 62.3031C72.3806 62.0152 72.3686 61.7531 72.3541 61.5168C72.3396 61.2808 72.3232 61.0384 72.3049 60.7897C72.2862 60.541 72.2633 60.2505 72.2361 59.9182C72.2086 59.5856 72.182 59.2882 72.1562 59.0261C72.1305 58.7643 72.1056 58.4768 72.0816 58.1636C72.058 57.8503 72.0387 57.5806 72.0239 57.3545C72.0091 57.128 71.9895 56.8555 71.9652 56.537C71.9412 56.2181 71.9255 55.9403 71.9181 55.7036C71.9107 55.4669 71.9063 55.2157 71.9049 54.9501C71.9038 54.6848 71.8999 54.3956 71.8932 54.0823C71.8869 53.7691 71.8796 53.5036 71.8715 53.2859C71.8634 53.0683 71.858 52.8397 71.8551 52.6002C71.8527 52.3607 71.8505 52.0811 71.8488 51.7615C71.8474 51.4415 71.8405 51.1764 71.8281 50.9662C71.8154 50.7559 71.8001 50.5501 71.7821 50.3487C71.7641 50.1476 71.7437 49.9379 71.7207 49.7195C71.6982 49.5012 71.6664 49.2306 71.6255 48.9078C71.5842 48.585 71.5428 48.3071 71.5011 48.0739C71.4599 47.8407 71.4159 47.5859 71.3694 47.3093C71.3232 47.0327 71.2791 46.7946 71.2371 46.5949C71.1951 46.3949 71.1517 46.1924 71.1069 45.9875C71.0621 45.7825 70.9995 45.5335 70.9191 45.2403C70.8387 44.9465 70.7616 44.6662 70.6878 44.3995C70.6145 44.1325 70.5489 43.8935 70.491 43.6825C70.4331 43.4716 70.3651 43.2425 70.2868 42.9952C70.2084 42.7479 70.1414 42.5373 70.0857 42.3634C70.0296 42.1895 69.97 42.0066 69.9068 41.8147C69.8437 41.6231 69.7751 41.4035 69.701 41.1559C69.6266 40.9083 69.5659 40.6968 69.519 40.5215C69.4721 40.3461 69.4241 40.1576 69.375 39.9558C69.326 39.7537 69.2458 39.4665 69.1343 39.0944C69.0232 38.7222 68.9359 38.4552 68.8724 38.2932C68.8089 38.1313 68.7441 37.9634 68.6782 37.7895C68.6122 37.6159 68.5466 37.4357 68.4813 37.2487C68.4161 37.0617 68.3374 36.8362 68.2453 36.5719C68.1533 36.3077 68.0689 36.0701 67.9924 35.8592C67.9158 35.6482 67.8241 35.3874 67.7172 35.0766C67.6104 34.7658 67.5056 34.4714 67.4029 34.1934C67.3006 33.9151 67.1955 33.6655 67.0876 33.4447C66.9796 33.2239 66.875 33.0205 66.7738 32.8346C66.6725 32.6491 66.5522 32.4196 66.4129 32.1462C66.2736 31.8725 66.1485 31.6132 66.0377 31.3684C65.927 31.1232 65.8132 30.8844 65.6964 30.6519C65.58 30.4194 65.4834 30.2233 65.4065 30.0635C65.3296 29.904 65.2525 29.7449 65.1752 29.5862C65.098 29.4278 64.998 29.2354 64.8752 29.0089C64.7525 28.7828 64.6551 28.5946 64.5831 28.4443C64.5108 28.2944 64.4364 28.1307 64.3598 27.9533C64.2829 27.7755 64.2106 27.5961 64.1429 27.4151C64.0752 27.2338 63.9983 27.0306 63.9122 26.8056C63.8265 26.5809 63.7178 26.3419 63.5862 26.0886C63.4546 25.8353 63.3476 25.6358 63.265 25.4901C63.1821 25.3441 63.0987 25.1943 63.0148 25.0409C62.9308 24.8874 62.8502 24.7308 62.7729 24.571C62.6957 24.4112 62.605 24.2371 62.501 24.0487C62.3972 23.86 62.3041 23.6999 62.2216 23.5683C62.1394 23.4363 61.9868 23.2504 61.7639 23.0106C61.5406 22.7707 61.3665 22.598 61.2416 22.4925C61.1167 22.3871 60.9827 22.2766 60.8395 22.1613C60.6962 22.0456 60.525 21.9114 60.3257 21.7586C60.1263 21.6055 59.939 21.4618 59.7637 21.3274C59.5884 21.193 59.4303 21.0908 59.2896 21.021C59.1492 20.9508 58.9769 20.8808 58.7726 20.8109C58.5684 20.7407 58.3537 20.6931 58.1287 20.668C57.904 20.643 57.6445 20.6211 57.3503 20.6024C57.0561 20.5841 56.7986 20.5737 56.5777 20.5712C56.3569 20.5691 56.0881 20.5781 55.7713 20.5982C55.4546 20.6183 55.1909 20.64 54.9803 20.6633C54.77 20.6869 54.527 20.7315 54.2511 20.7972C53.9752 20.8628 53.6918 20.955 53.4008 21.0739C53.1101 21.1928 52.8155 21.3092 52.5171 21.4231C52.219 21.5371 51.9322 21.6429 51.6567 21.7406C51.3812 21.838 51.0985 21.9428 50.8085 22.0549C50.5189 22.1675 50.2446 22.2782 49.9857 22.3872C49.7268 22.4962 49.4657 22.6188 49.2026 22.755C48.9394 22.8915 48.6812 23.0418 48.4279 23.2058C48.1743 23.3702 47.9349 23.5355 47.7099 23.7016C47.4844 23.8674 47.2588 24.0509 47.0331 24.2519C46.807 24.4526 46.5865 24.6541 46.3717 24.8562C46.1572 25.058 45.9563 25.2457 45.769 25.4192C45.5816 25.5928 45.3979 25.766 45.2176 25.9388C45.037 26.112 44.877 26.2717 44.7377 26.4177C44.5983 26.5634 44.4288 26.7415 44.2292 26.9521C44.0291 27.1631 43.8353 27.3725 43.6476 27.5802C43.46 27.7884 43.276 28.0062 43.0957 28.2337C42.9155 28.4613 42.7758 28.6505 42.6767 28.8015C42.5779 28.9525 42.4616 29.1315 42.328 29.3386C42.1939 29.5456 42.0803 29.7224 41.9872 29.8688C41.8937 30.0148 41.778 30.2012 41.6401 30.4281C41.5018 30.6549 41.3804 30.8627 41.276 31.0514C41.1712 31.2398 41.054 31.4592 40.9241 31.7097C40.794 31.9601 40.6626 32.2092 40.5299 32.4568C40.3973 32.7048 40.2682 32.9584 40.1426 33.2177C40.017 33.477 39.8939 33.7361 39.7733 33.995C39.6523 34.2539 39.539 34.5065 39.4335 34.7527C39.3281 34.9986 39.2309 35.239 39.142 35.474C39.0534 35.7086 38.9727 35.9673 38.8996 36.2502C38.8266 36.5331 38.776 36.7603 38.7478 36.9318C38.7196 37.1032 38.6802 37.3461 38.6298 37.6604C38.5793 37.975 38.5462 38.2107 38.5303 38.3673C38.5148 38.5243 38.5172 38.694 38.5377 38.8764C38.5578 39.0584 38.5756 39.2367 38.5911 39.4113C38.6067 39.5856 38.622 39.7628 38.6372 39.9431C38.6524 40.1234 38.6725 40.3052 38.6975 40.4886C38.7226 40.6717 38.7515 40.8589 38.7843 41.0501C38.8167 41.2413 38.8522 41.4409 38.8906 41.6491C38.9291 41.8575 38.9718 42.0807 39.0187 42.3184C39.0653 42.5565 39.1199 42.8574 39.1827 43.2211C39.2459 43.5848 39.3083 43.9679 39.37 44.3704C39.4318 44.7733 39.4947 45.1862 39.5589 45.6092C39.6235 46.0325 39.6819 46.4575 39.7341 46.8844C39.7863 47.3112 39.8147 47.6516 39.8193 47.9056C39.8239 48.1596 39.7627 48.5023 39.6357 48.9338C39.509 49.3652 39.4212 49.5899 39.3722 49.6079C39.3235 49.6259 39.2732 49.6377 39.2214 49.6433C39.1695 49.6493 39.1176 49.649 39.0658 49.6423C39.0143 49.6356 38.9642 49.6227 38.9155 49.6036C38.8668 49.5846 38.8211 49.5601 38.7785 49.5301C38.7361 49.5001 38.6979 49.4654 38.6636 49.4259C38.6294 49.3867 38.6003 49.3438 38.5763 49.2973C38.5527 49.2511 38.5349 49.2026 38.5229 49.1518C38.5109 49.101 38.5051 49.0495 38.5054 48.9973C38.5058 48.945 38.5125 48.8937 38.5255 48.8433C38.5386 48.7928 38.5575 48.7447 38.5822 48.6988C38.6068 48.653 38.6367 48.6106 38.6716 48.5718C38.7065 48.533 38.7455 48.499 38.7885 48.4697C38.8319 48.4408 38.9356 48.3882 39.0997 48.312C39.2637 48.2358 39.4485 48.1464 39.6542 48.0437C39.8595 47.9411 40.138 47.801 40.4897 47.6236C40.8414 47.4458 41.2136 47.2551 41.6062 47.0516C41.9992 46.8481 42.4107 46.6371 42.8407 46.4187C43.2707 46.2007 43.6956 45.9928 44.1154 45.7949C44.5355 45.597 44.9583 45.4462 45.3837 45.3425C45.8092 45.2384 46.0326 45.183 46.0542 45.1763C46.0757 45.1693 46.0977 45.1649 46.1203 45.1631C46.1425 45.1617 46.1648 45.1629 46.187 45.1668C46.2092 45.1707 46.2307 45.177 46.2515 45.1858C46.2724 45.195 46.2916 45.2065 46.3092 45.2202C46.3272 45.234 46.3433 45.2497 46.3574 45.2673C46.3715 45.285 46.3833 45.304 46.3928 45.3245C46.4023 45.3449 46.4092 45.3663 46.4135 45.3885C46.4177 45.4107 46.4193 45.433 46.4182 45.4552C46.4172 45.4778 46.4135 45.4998 46.4071 45.5213C46.4004 45.5432 46.3914 45.5638 46.3801 45.5832C46.3685 45.6026 46.3547 45.6204 46.3388 45.6367C46.323 45.6525 46.3055 45.6665 46.2865 45.6785C46.2674 45.6905 46.2579 45.6965 46.2579 45.6965Z" fill="black"/>
<path d="M54.0409 103.493C54.0409 103.493 53.9106 103.332 53.6499 103.009C53.3892 102.686 53.2058 102.226 53.0996 101.627C52.9931 101.028 52.9848 100.31 53.0747 99.4729C53.1643 98.6358 53.3388 97.8772 53.598 97.1971C53.8573 96.517 54.2969 95.9818 54.9167 95.5917C55.5368 95.2015 56.2589 95.1499 57.083 95.4366C57.9074 95.7231 58.6348 96.2318 59.2652 96.9627C59.8952 97.6936 60.3811 98.5544 60.7229 99.5449C61.0648 100.536 61.2304 101.499 61.2198 102.433C61.2092 103.368 60.9965 104.232 60.5817 105.025C60.1665 105.818 59.5437 106.356 58.7133 106.639C57.8832 106.922 57.0124 106.916 56.1009 106.622C55.1893 106.328 54.3933 105.851 53.7129 105.191C53.0324 104.532 52.5518 103.929 52.271 103.384C51.9905 102.84 51.7977 102.293 51.6926 101.746C51.5875 101.197 51.5317 100.909 51.5254 100.879C51.519 100.85 51.5175 100.821 51.5206 100.791C51.5242 100.761 51.5323 100.732 51.545 100.705C51.5577 100.678 51.5743 100.654 51.5947 100.632C51.6155 100.61 51.6392 100.592 51.6656 100.578C51.6921 100.565 51.7201 100.555 51.7497 100.55C51.7794 100.546 51.809 100.546 51.8386 100.551C51.8683 100.556 51.8963 100.565 51.9228 100.579C51.9492 100.593 51.9727 100.611 51.9932 100.633C52.0136 100.655 52.0302 100.679 52.0429 100.706C52.0552 100.734 52.063 100.762 52.0662 100.792C52.0694 100.822 52.0678 100.852 52.0614 100.881C52.0547 100.91 52.0436 100.938 52.0281 100.963C52.0126 100.989 51.9933 101.011 51.9704 101.031C51.9475 101.05 51.9221 101.065 51.8942 101.076C51.8663 101.087 51.8374 101.094 51.8074 101.095C51.7778 101.097 51.7485 101.093 51.7196 101.085C51.6907 101.077 51.6639 101.065 51.6392 101.048C51.6141 101.031 51.5926 101.01 51.5746 100.987C51.5566 100.963 51.5429 100.937 51.5333 100.908C51.5238 100.88 51.519 100.851 51.519 100.821C51.5194 100.791 51.5243 100.761 51.5339 100.733C51.5434 100.705 51.5573 100.679 51.5757 100.655C51.5937 100.631 51.6152 100.611 51.6402 100.594C51.6649 100.577 51.6917 100.565 51.7206 100.557C51.7496 100.549 51.779 100.546 51.809 100.547C51.839 100.549 51.8679 100.555 51.8958 100.567C51.9237 100.578 51.9489 100.593 51.9715 100.613C51.9944 100.632 52.0136 100.655 52.0291 100.68C52.0443 100.706 52.0519 100.719 52.0519 100.719C52.0519 100.719 52.1882 100.922 52.4609 101.329C52.7336 101.736 53.0183 102.133 53.315 102.52C53.6116 102.906 54.0293 103.351 54.568 103.853C55.1073 104.355 55.6827 104.743 56.294 105.015C56.9057 105.287 57.4731 105.377 57.9963 105.287C58.5194 105.196 58.9029 104.912 59.1466 104.435C59.3907 103.957 59.5281 103.353 59.5588 102.624C59.5895 101.894 59.4814 101.125 59.2345 100.317C58.9879 99.508 58.6469 98.8161 58.2116 98.2411C57.776 97.6661 57.3056 97.2273 56.8004 96.9246C56.2953 96.6223 55.9284 96.5454 55.6998 96.6939C55.4712 96.8424 55.2484 97.1714 55.0315 97.6807C54.8142 98.1905 54.6382 98.799 54.5034 99.5063C54.369 100.214 54.318 100.811 54.3505 101.298C54.3829 101.786 54.4325 102.231 54.4992 102.636C54.5655 103.04 54.6024 103.254 54.6098 103.278C54.6172 103.301 54.6216 103.325 54.623 103.35C54.6244 103.374 54.623 103.398 54.6188 103.422C54.6142 103.447 54.6068 103.47 54.5965 103.493C54.5867 103.515 54.5741 103.536 54.559 103.555C54.5438 103.575 54.5265 103.592 54.5071 103.607C54.4877 103.622 54.4667 103.635 54.4441 103.645C54.4216 103.655 54.3983 103.662 54.3743 103.667C54.35 103.671 54.3258 103.673 54.3018 103.671C54.2771 103.67 54.2529 103.665 54.2293 103.658C54.206 103.651 54.1838 103.64 54.1626 103.628C54.1415 103.615 54.1222 103.6 54.105 103.583C54.0877 103.565 54.0727 103.546 54.06 103.525C54.0473 103.504 54.0409 103.493 54.0409 103.493Z" fill="black"/>
<path d="M0.269892 41.2951C0.269892 41.2951 0.335153 41.0605 0.465675 40.5913C0.595844 40.1222 0.852478 39.508 1.23558 38.7489C1.61868 37.9897 2.38717 36.6709 3.54105 34.7925C4.69493 32.914 6.10721 30.7668 7.77789 28.3507C9.44857 25.9346 11.4209 23.2711 13.6948 20.3601C15.969 17.4491 18.0947 14.804 20.072 12.4246C22.0492 10.0456 23.7673 8.05493 25.2263 6.45268C26.6857 4.85044 27.7877 3.66675 28.5324 2.90161C29.2768 2.13612 29.9706 1.51755 30.6141 1.04591C31.2575 0.574269 31.591 0.329275 31.6147 0.310932C31.6387 0.292941 31.6648 0.279182 31.693 0.269657C31.7216 0.260132 31.7508 0.255372 31.7808 0.255372C31.8108 0.255372 31.8401 0.260132 31.8687 0.269657C31.8969 0.279182 31.923 0.292941 31.947 0.310932C31.9706 0.329275 31.9909 0.350792 32.0078 0.375485C32.0248 0.400532 32.0371 0.427342 32.0449 0.455916C32.053 0.484843 32.0563 0.514297 32.0549 0.544282C32.0532 0.574267 32.0466 0.603194 32.0353 0.631062C32.0244 0.65893 32.0092 0.684329 31.9898 0.707259C31.9704 0.730188 31.9479 0.749238 31.9221 0.764407C31.8964 0.779928 31.8688 0.790864 31.8396 0.797213C31.8103 0.803916 31.7808 0.805501 31.7512 0.801974C31.7212 0.798799 31.6926 0.791038 31.6655 0.778691C31.6383 0.765992 31.6138 0.749238 31.5919 0.728426C31.5704 0.707965 31.5526 0.684506 31.5385 0.658049C31.5244 0.631592 31.5148 0.603546 31.5099 0.573914C31.5053 0.544282 31.5053 0.51465 31.5099 0.485018C31.5148 0.455386 31.5244 0.427344 31.5385 0.400886C31.5526 0.374429 31.5706 0.35097 31.5925 0.33051C31.614 0.309697 31.6383 0.293117 31.6655 0.28077C31.693 0.268071 31.7216 0.260133 31.7512 0.256958C31.7812 0.253783 31.8108 0.255372 31.8401 0.261722C31.8694 0.268072 31.8967 0.279007 31.9221 0.294528C31.9479 0.31005 31.9704 0.329274 31.9898 0.352203C32.0092 0.37478 32.0246 0.400002 32.0359 0.42787C32.0468 0.455738 32.0532 0.484665 32.0549 0.51465C32.0563 0.544635 32.053 0.574089 32.0449 0.603016C32.0371 0.631942 32.0248 0.658753 32.0078 0.683446C31.9909 0.70814 31.9824 0.720487 31.9824 0.720487C31.9824 0.720487 31.7642 1.05455 31.3279 1.72268C30.8915 2.39046 30.3153 3.11274 29.5992 3.88952C28.8831 4.66595 27.8068 5.8514 26.3704 7.44588C24.9336 9.04036 23.228 11.0188 21.2535 13.3813C19.2791 15.7441 17.155 18.3651 14.8811 21.2443C12.6072 24.1232 10.6199 26.7456 8.91925 29.1116C7.21859 31.4772 5.7839 33.5788 4.61521 35.4163C3.44616 37.2535 2.6565 38.5347 2.24624 39.26C1.83598 39.9853 1.49045 40.5469 1.20965 40.9448C0.92885 41.342 0.782278 41.5505 0.769931 41.5702C0.757585 41.5897 0.743122 41.6073 0.726542 41.6232C0.709962 41.6394 0.691618 41.6533 0.671511 41.665C0.651404 41.6763 0.630238 41.6851 0.608014 41.6914C0.586143 41.6981 0.563566 41.7018 0.540284 41.7025C0.517707 41.7036 0.49513 41.7018 0.472554 41.6972C0.449624 41.6927 0.427753 41.6854 0.40694 41.6755C0.386127 41.6657 0.366725 41.6533 0.348734 41.6385C0.331096 41.624 0.315222 41.6075 0.301112 41.5888C0.287354 41.5704 0.275889 41.5507 0.266717 41.5295C0.257898 41.5083 0.251549 41.4863 0.247668 41.4634C0.244141 41.4404 0.243259 41.4177 0.245023 41.3951C0.246786 41.3722 0.251372 41.3498 0.25878 41.3279C0.266188 41.306 0.269892 41.2951 0.269892 41.2951Z" fill="black"/>
<path d="M4.88112 58.5021C4.88112 58.5021 5.01799 58.2354 5.29173 57.702C5.56583 57.1686 6.06604 56.2827 6.79238 55.0441C7.51872 53.8052 8.45971 52.2476 9.61535 50.3713C10.771 48.4946 12.094 46.486 13.5844 44.3454C15.0749 42.2049 16.3713 40.3971 17.4736 38.9222C18.5764 37.4473 19.4429 36.3189 20.0733 35.5368C20.7041 34.7551 21.2081 34.2175 21.5856 33.924C21.9634 33.6305 22.2557 33.3467 22.4624 33.0726C22.6691 32.7981 22.7832 32.6505 22.8047 32.6297C22.8266 32.6092 22.8511 32.5926 22.8783 32.5799C22.9055 32.5669 22.9339 32.5588 22.9635 32.5556C22.9935 32.5521 23.0231 32.5535 23.0524 32.5598C23.0817 32.5662 23.1092 32.5771 23.1349 32.5926C23.1607 32.6078 23.1833 32.6269 23.2027 32.6498C23.2221 32.6724 23.2374 32.6976 23.2487 32.7255C23.26 32.7533 23.2665 32.7822 23.2683 32.8122C23.27 32.8422 23.267 32.8717 23.2593 32.9006C23.2512 32.9295 23.2388 32.9563 23.2222 32.981C23.2053 33.0061 23.185 33.0276 23.1614 33.0456C23.1378 33.0639 23.1116 33.078 23.0831 33.0879C23.0549 33.0974 23.0258 33.1022 22.9958 33.1022C22.9658 33.1026 22.9365 33.098 22.9079 33.0884C22.8794 33.0789 22.8531 33.0652 22.8291 33.0472C22.8055 33.0292 22.7852 33.0078 22.7682 32.9831C22.7513 32.9585 22.7388 32.9316 22.7307 32.9027C22.7222 32.8738 22.7188 32.8443 22.7206 32.8144C22.722 32.7844 22.7282 32.7554 22.7391 32.7276C22.7501 32.6997 22.7652 32.6743 22.7846 32.6514C22.804 32.6284 22.8264 32.6092 22.8518 32.5937C22.8776 32.5782 22.9051 32.5671 22.9344 32.5604C22.9637 32.554 22.9931 32.5522 23.0228 32.5551C23.0527 32.5582 23.0813 32.5662 23.1085 32.5789C23.136 32.5912 23.1605 32.6076 23.182 32.6281C23.2039 32.6486 23.2221 32.672 23.2365 32.6985C23.2506 32.7249 23.2602 32.753 23.2651 32.7826C23.27 32.8122 23.27 32.8419 23.2651 32.8715C23.2605 32.9011 23.2512 32.9292 23.2371 32.9556C23.2233 32.9821 23.2164 32.9953 23.2164 32.9953C23.2164 32.9953 23.1131 33.1325 22.9063 33.407C22.6996 33.6814 22.5056 34.043 22.3243 34.4917C22.1426 34.9408 21.7542 35.5641 21.1591 36.3617C20.5637 37.159 19.7211 38.292 18.6314 39.7609C17.5414 41.2302 16.2443 43.0162 14.7401 45.119C13.2363 47.2218 11.8871 49.1966 10.6927 51.0433C9.49859 52.8896 8.50874 54.4236 7.72314 55.6452C6.93719 56.8669 6.34508 57.702 5.94681 58.1507C5.5489 58.5987 5.34235 58.8314 5.32719 58.8487C5.31202 58.8656 5.29508 58.8806 5.27639 58.8936C5.25769 58.9067 5.23776 58.9173 5.21659 58.9254C5.19508 58.9339 5.17303 58.9395 5.15045 58.9423C5.12788 58.9452 5.1053 58.9452 5.08272 58.9423C5.06015 58.9399 5.0381 58.9346 5.01658 58.9265C4.99541 58.9183 4.97531 58.9079 4.95626 58.8952C4.93756 58.8822 4.92063 58.8672 4.90546 58.8503C4.89029 58.833 4.87724 58.8143 4.8663 58.7942C4.85572 58.7741 4.84761 58.7529 4.84196 58.7307C4.83632 58.7084 4.8335 58.686 4.8335 58.6635C4.8335 58.6409 4.83614 58.6185 4.84143 58.5963C4.84672 58.574 4.85466 58.5527 4.86524 58.5322C4.87583 58.5121 4.88112 58.5021 4.88112 58.5021Z" fill="black"/>
</svg>
